<?xml version="1.0" standalone="no"?>
<!DOCTYPE svg PUBLIC "-//W3C//DTD SVG 20010904//EN"
 "http://www.w3.org/TR/2001/REC-SVG-20010904/DTD/svg10.dtd">
<svg version="1.0" xmlns="http://www.w3.org/2000/svg"
 width="576.000000pt" height="576.000000pt" viewBox="0 0 576.000000 576.000000"
 preserveAspectRatio="xMidYMid meet">

<g transform="translate(0.000000,576.000000) scale(0.100000,-0.100000)"
fill="#000000" stroke="none">
<path d="M1888 4093 c-35 -40 -36 -57 -34 -529 1 -457 2 -473 21 -494 46 -51
111 -44 139 15 14 29 16 95 16 496 l0 462 -26 34 c-21 27 -32 33 -63 33 -24 0
-44 -7 -53 -17z"/>
<path d="M3782 4103 c-7 -3 -19 -18 -27 -33 -13 -24 -15 -104 -15 -504 l0
-475 23 -25 c34 -38 85 -39 122 -1 l25 24 0 484 0 484 -25 27 c-23 25 -67 34
-103 19z"/>
<path d="M1409 3761 l-29 -29 0 -232 0 -232 29 -29 c38 -37 82 -39 116 -4 l25
24 0 241 0 241 -25 24 c-34 35 -78 33 -116 -4z"/>
<path d="M2355 3765 l-25 -24 0 -241 0 -241 25 -24 c30 -31 82 -33 112 -5 30
28 35 76 31 309 l-3 203 -28 24 c-37 31 -81 31 -112 -1z"/>
<path d="M3295 3765 l-25 -24 0 -239 c0 -227 1 -241 21 -266 35 -44 108 -33
137 21 16 29 16 452 1 486 -23 50 -95 62 -134 22z"/>
<path d="M4239 3771 l-24 -19 0 -252 0 -252 25 -20 c19 -15 34 -19 65 -15 73
10 75 17 75 282 0 128 -3 241 -6 250 -8 20 -56 45 -87 45 -14 0 -35 -9 -48
-19z"/>
<path d="M961 3546 c-41 -23 -50 -53 -51 -169 0 -107 0 -109 29 -138 35 -35
77 -38 115 -8 26 20 26 22 26 147 0 70 -4 132 -8 138 -12 17 -56 44 -72 44 -8
-1 -26 -7 -39 -14z"/>
<path d="M2831 3534 l-31 -26 0 -123 c0 -109 2 -125 21 -149 31 -39 88 -37
123 5 24 29 26 37 26 135 0 111 -12 154 -49 174 -31 16 -57 12 -90 -16z"/>
<path d="M4740 3553 c-46 -17 -50 -30 -50 -174 0 -131 1 -139 22 -153 34 -24
85 -20 113 9 24 23 25 30 25 145 0 121 0 122 -29 151 -28 28 -49 34 -81 22z"/>
<path d="M1720 2499 l0 -300 48 3 c43 3 47 5 50 32 l4 28 29 -28 c23 -22 40
-28 86 -31 70 -5 108 15 150 78 25 39 28 51 28 133 0 107 -18 154 -74 192 -51
34 -132 34 -184 -1 l-37 -26 0 111 0 110 -50 0 -50 0 0 -301z m252 22 c32 -28
33 -32 33 -104 0 -66 -3 -79 -24 -101 -33 -35 -98 -36 -129 -3 -42 45 -45 154
-6 198 41 46 82 49 126 10z"/>
<path d="M4619 2758 c-1 -24 -1 -65 0 -93 2 -70 -9 -84 -44 -56 -34 26 -120
29 -165 6 -72 -37 -109 -142 -90 -257 16 -100 77 -158 165 -158 44 0 105 25
105 42 0 4 5 8 10 8 6 0 10 -9 10 -20 0 -22 31 -33 76 -28 l29 3 0 295 0 295
-47 3 -48 3 -1 -43z m-35 -238 c21 -21 34 -117 22 -164 -9 -38 -45 -66 -84
-66 -46 0 -71 16 -88 55 -30 74 -6 172 49 195 30 13 78 4 101 -20z"/>
<path d="M1305 2748 c-73 -205 -182 -538 -178 -542 4 -3 28 -6 54 -6 46 0 48
1 59 38 6 20 18 52 26 70 l15 32 98 0 c110 0 112 -1 132 -70 7 -25 17 -51 22
-57 13 -17 96 -17 103 0 2 7 -16 71 -41 143 -25 71 -57 165 -71 209 -14 44
-32 94 -39 110 -7 17 -17 42 -23 58 -11 26 -15 27 -82 27 -47 0 -72 -4 -75
-12z m115 -203 c16 -52 30 -100 30 -105 0 -6 -31 -10 -70 -10 -38 0 -70 3 -70
7 0 18 65 203 72 203 4 0 21 -43 38 -95z"/>
<path d="M3021 2738 c-35 -96 -181 -519 -181 -528 0 -14 96 -13 107 3 5 6 15
32 22 57 7 25 18 51 23 58 11 13 185 17 204 4 6 -4 19 -32 29 -62 10 -30 23
-58 29 -62 15 -10 94 -10 100 0 3 5 -37 130 -88 278 l-94 269 -71 3 c-66 3
-72 1 -80 -20z m113 -186 c16 -48 31 -95 34 -104 4 -16 -4 -18 -73 -18 -69 0
-76 2 -70 18 9 22 65 186 65 189 0 2 3 3 8 3 4 0 20 -40 36 -88z"/>
<path d="M2305 2615 c-149 -77 -149 -329 0 -396 98 -45 216 -12 269 74 25 41
29 58 30 120 0 87 -21 136 -77 181 -35 28 -47 31 -115 34 -55 2 -86 -2 -107
-13z m148 -86 c52 -40 60 -157 16 -213 -16 -20 -29 -26 -60 -26 -53 0 -78 14
-95 55 -52 124 48 256 139 184z"/>
<path d="M3390 2614 c0 -9 20 -66 44 -127 24 -62 47 -123 51 -137 4 -14 20
-55 37 -93 l29 -68 -21 -29 c-24 -33 -51 -43 -101 -38 -32 3 -34 1 -40 -37 -4
-26 -3 -43 5 -48 6 -4 42 -6 80 -5 68 4 70 5 110 49 27 30 51 72 68 120 15 41
57 152 93 248 36 95 65 175 65 177 0 2 -24 4 -53 4 l-53 0 -48 -145 c-27 -80
-53 -145 -57 -145 -4 0 -11 10 -15 23 -3 12 -27 77 -51 145 l-45 122 -49 0
c-38 0 -49 -4 -49 -16z"/>
<path d="M3975 2620 c-29 -12 -92 -80 -104 -113 -15 -40 -14 -152 3 -190 17
-39 71 -92 109 -106 16 -6 56 -11 89 -11 68 0 127 26 155 69 15 24 15 25 -13
48 -37 29 -45 29 -74 -2 -19 -20 -33 -25 -71 -25 -40 0 -51 4 -73 31 -14 17
-26 39 -26 50 0 18 8 19 134 19 l134 0 6 30 c8 42 -11 124 -36 156 -12 14 -36
33 -54 40 -36 15 -147 18 -179 4z m154 -101 c26 -48 11 -59 -79 -59 -91 0 -98
8 -54 60 24 28 32 31 72 28 38 -2 49 -8 61 -29z"/>
</g>
</svg>
