<?xml version="1.0" encoding="UTF-8"?>
<svg version="1.1" xmlns="http://www.w3.org/2000/svg" width="1058" height="305">
<path d="M0 0 C349.14 0 698.28 0 1058 0 C1058 100.65 1058 201.3 1058 305 C708.86 305 359.72 305 0 305 C0 204.35 0 103.7 0 0 Z " fill="#000001" transform="translate(0,0)"/>
<path d="M0 0 C67.65 0 135.3 0 205 0 C204.09535113 4.52324437 203.2819132 6.25766235 201 10 C200.28856912 11.98451771 199.61008664 13.98202112 199 16 C198.34 16 197.68 16 197 16 C196.62875 17.175625 196.62875 17.175625 196.25 18.375 C194.66068507 22.98401329 192.83792827 27.48547716 191 32 C190.34 32 189.68 32 189 32 C188.7525 32.78375 188.505 33.5675 188.25 34.375 C186.66068507 38.98401329 184.83792827 43.48547716 183 48 C182.34 48 181.68 48 181 48 C180.7525 48.78375 180.505 49.5675 180.25 50.375 C178.66068507 54.98401329 176.83792827 59.48547716 175 64 C174.34 64 173.68 64 173 64 C172.62875 65.175625 172.62875 65.175625 172.25 66.375 C170.66068507 70.98401329 168.83792827 75.48547716 167 80 C166.34 80 165.68 80 165 80 C164.62875 81.175625 164.62875 81.175625 164.25 82.375 C162.66068507 86.98401329 160.83792827 91.48547716 159 96 C158.34 96 157.68 96 157 96 C156.62875 97.175625 156.62875 97.175625 156.25 98.375 C154.66068507 102.98401329 152.83792827 107.48547716 151 112 C150.34 112 149.68 112 149 112 C148.62875 113.2375 148.62875 113.2375 148.25 114.5 C147.32162278 117.0994562 146.37829264 119.32236229 145.125 121.75 C143.64706242 124.61957224 142.39425354 127.48241101 141.25 130.5 C137.17609742 140.90930227 131.71849584 150.78348182 126.3046875 160.54296875 C124.67730116 163.60771729 123.30362541 166.74987405 121.9375 169.9375 C121.02050016 171.95489965 119.99516577 173.83912898 118.875 175.75 C117.28317012 178.50917179 116.15994857 181.05251876 115 184 C114.13512377 185.94204026 113.25997215 187.87953452 112.375 189.8125 C111.92898437 190.78832031 111.48296875 191.76414063 111.0234375 192.76953125 C110.68570313 193.50558594 110.34796875 194.24164063 110 195 C109.34 195 108.68 195 108 195 C107.88785156 195.70511719 107.77570313 196.41023437 107.66015625 197.13671875 C106.93685092 200.27389512 105.80542309 202.90127906 104.4375 205.8125 C103.98246094 206.78832031 103.52742188 207.76414063 103.05859375 208.76953125 C102.53458984 209.87361328 102.53458984 209.87361328 102 211 C101.34 211 100.68 211 100 211 C99.90589844 211.680625 99.81179687 212.36125 99.71484375 213.0625 C98.8376129 216.66729561 97.26919987 219.73520583 95.5625 223 C91.6576169 230.62023518 87.96346311 238.3287027 84.32641602 246.08007812 C83.92221436 246.93666016 83.5180127 247.79324219 83.1015625 248.67578125 C82.74400879 249.43802002 82.38645508 250.20025879 82.01806641 250.9855957 C81 253 81 253 79 256 C118.80250581 255.89376846 158.60499941 255.78367912 198.40748147 255.66888306 C203.17896218 255.65512451 207.95044298 255.64139577 212.72192383 255.62768555 C213.67126302 255.62495724 214.62060222 255.62222894 215.59870926 255.61941796 C228.82919999 255.58145625 242.05969422 255.54508706 255.29019299 255.51004343 C360.33905293 255.25775816 360.33905293 255.25775816 465.38561654 254.55786014 C468.69566209 254.52807866 472.00571525 254.49931508 475.3157711 254.47070503 C506.5272698 254.19659126 537.71151704 253.51740405 568.90625 252.47265625 C586.24902607 251.89710963 603.59463684 251.59292017 620.94482422 251.34179688 C631.91568583 251.17630221 642.86414654 250.8758948 653.82461548 250.36508179 C661.71109241 249.99942031 669.59435766 249.77983021 677.4871521 249.61184692 C708.58391543 248.93370607 739.76143559 248.13838237 770.77392578 245.67773438 C778.03706949 245.10754785 785.28074898 244.77917623 792.5625 244.5625 C809.19542241 244.04964009 825.77767759 242.76771087 842.37124634 241.55421448 C847.53309092 241.176791 852.69542094 240.81223455 857.859375 240.46484375 C874.09002705 239.36655452 890.2752209 237.91115139 906.46533203 236.33935547 C909.47479461 236.05042378 912.48475554 235.77240068 915.49609375 235.50390625 C939.24780127 233.3727631 962.91483396 230.61327287 986.39794922 226.44384766 C988.87720364 226.02094612 991.35753888 225.64563756 993.84765625 225.29296875 C1025.58358424 221.65135848 1025.58358424 221.65135848 1053 208 C1053.99 208 1054.98 208 1056 208 C1056 207.34 1056 206.68 1056 206 C1056.66 206 1057.32 206 1058 206 C1058 238.67 1058 271.34 1058 305 C708.86 305 359.72 305 0 305 C0 204.35 0 103.7 0 0 Z " fill="#BD1E2E" transform="translate(0,0)"/>
<path d="M0 0 C0 0.66 0 1.32 0 2 C0.53625 2.2475 1.0725 2.495 1.625 2.75 C12.48308503 8.4647816 24.87119917 18.67602521 29.25390625 30.3359375 C29.62322266 31.65464844 29.62322266 31.65464844 30 33 C30.66 33 31.32 33 32 33 C32.24234375 33.556875 32.4846875 34.11375 32.734375 34.6875 C34.38397339 38.44350864 36.0547685 42.13742721 38 45.75 C45.24588268 60.18471117 46.36251972 76.19863995 46.31567383 92.07592773 C46.31251707 94.30046876 46.33607618 96.52366894 46.36132812 98.74804688 C46.4256913 113.42648788 44.167103 127.20825296 39 141 C38.62230469 142.04929688 38.24460937 143.09859375 37.85546875 144.1796875 C36.91528371 146.79094347 35.96324684 149.39718408 35 152 C34.34 152 33.68 152 33 152 C32.92394531 152.680625 32.84789062 153.36125 32.76953125 154.0625 C31.77420871 157.86190382 29.86471067 160.78742873 27.6875 164 C27.25034668 164.6499292 26.81319336 165.2998584 26.36279297 165.96948242 C23.0886301 170.70592069 19.51927883 175.07405877 15.625 179.3125 C15.12572998 179.85712891 14.62645996 180.40175781 14.11206055 180.96289062 C11.56796017 183.64296804 9.29585754 185.39721997 6 187 C5.67 187.99 5.34 188.98 5 190 C1.90657405 192.67039334 -1.55951945 194.80443018 -5 197 C-5.9178125 197.59425781 -6.835625 198.18851563 -7.78125 198.80078125 C-28.44047733 211.06040168 -53.16972867 213.05432016 -76.3515625 208 C-82.37438313 206.34920548 -88.19228392 204.29586276 -94 202 C-94 201.34 -94 200.68 -94 200 C-94.928125 199.835 -95.85625 199.67 -96.8125 199.5 C-114.11002457 194.50293735 -127.21209447 174.48335823 -136 160 C-136.51046875 159.19820312 -137.0209375 158.39640625 -137.546875 157.5703125 C-153.07955871 130.09583432 -152.04068015 93.40517967 -144 64 C-141.74519245 56.31637504 -139.33677967 48.78565774 -135 42 C-134.071875 40.45119141 -134.071875 40.45119141 -133.125 38.87109375 C-125.94473508 27.15717959 -117.08868838 16.28605286 -106 8 C-105.34 8 -104.68 8 -104 8 C-104 7.34 -104 6.68 -104 6 C-72.66616115 -13.1907858 -33.27335437 -17.91010186 0 0 Z " fill="#1A74B8" transform="translate(744,11)"/>
<path d="M0 0 C1.73926758 -0.01836914 1.73926758 -0.01836914 3.51367188 -0.03710938 C21.14642997 -0.06684421 33.05556001 4.99543104 46.6875 16.1875 C48.55703069 18.10541854 50.07333114 20.03527485 51.6875 22.1875 C52.62142578 23.0846875 52.62142578 23.0846875 53.57421875 24 C61.8599507 32.57672809 66.02075211 44.08412904 69.6875 55.1875 C70.0175 56.17878906 70.3475 57.17007813 70.6875 58.19140625 C76.07964773 76.00104804 73.6875 97.57725527 73.6875 115.1875 C35.0775 115.1875 -3.5325 115.1875 -43.3125 115.1875 C-38.52844068 140.6291738 -38.52844068 140.6291738 -26.59765625 163.46875 C-25.3125 165.1875 -25.3125 165.1875 -25.3125 167.1875 C-24.755625 167.414375 -24.19875 167.64125 -23.625 167.875 C-20.67953501 169.5467504 -18.66925815 171.77031215 -16.3125 174.1875 C-14.8275 175.1775 -14.8275 175.1775 -13.3125 176.1875 C-13.3125 176.8475 -13.3125 177.5075 -13.3125 178.1875 C-12.4875 178.455625 -11.6625 178.72375 -10.8125 179 C-8.3470686 179.83648565 -5.97343331 180.72214662 -3.5625 181.6875 C14.50016975 188.42501974 34.874391 186.55848714 52.6875 180.1875 C53.37682617 179.94741211 54.06615234 179.70732422 54.77636719 179.45996094 C57.88641052 178.37609093 60.97957747 177.2651329 64.0625 176.10546875 C66.6875 175.1875 66.6875 175.1875 68.6875 175.1875 C66.58456771 181.90113946 63.85384775 188.37032948 61.12084961 194.84716797 C59.43011482 198.859454 57.81467566 202.74238519 56.6171875 206.93359375 C55.66561603 210.09263958 55.0374716 211.85636585 52.6875 214.1875 C47.65557403 216.39747678 42.20797809 217.13101525 36.80224609 217.87744141 C34.2852423 218.24647798 31.84753927 218.84424984 29.375 219.4375 C5.01230192 223.58513725 -22.89310964 218.71392112 -43.5546875 205.16015625 C-56.32851101 196.02307286 -70.19446753 182.8360234 -74.3125 167.1875 C-74.9725 167.1875 -75.6325 167.1875 -76.3125 167.1875 C-90.58938296 134.8265653 -91.26572833 91.08124461 -78.47802734 58.03076172 C-74.83955492 49.41611325 -70.50068334 40.96977501 -65.3125 33.1875 C-64.6525 33.1875 -63.9925 33.1875 -63.3125 33.1875 C-63.06628906 32.46433594 -62.82007813 31.74117187 -62.56640625 30.99609375 C-59.13847813 23.31796192 -52.2555826 17.72141307 -45.2265625 13.421875 C-43.16546781 12.20824812 -43.16546781 12.20824812 -41.375 10.0625 C-37.9417731 6.94138464 -33.62266356 5.7631187 -29.3125 4.1875 C-28.60351562 3.89617188 -27.89453125 3.60484375 -27.1640625 3.3046875 C-26.51179688 3.03914062 -25.85953125 2.77359375 -25.1875 2.5 C-24.62804687 2.26925781 -24.06859375 2.03851563 -23.4921875 1.80078125 C-15.87383396 -0.34273399 -7.8403453 0.00431499 0 0 Z " fill="#1A74B9" transform="translate(285.3125,0.8125)"/>
<path d="M0 0 C1.36381624 1.19525468 2.69924425 2.4239087 4 3.6875 C4.91652344 4.54601562 4.91652344 4.54601562 5.8515625 5.421875 C25.25771602 25.42645616 25.44675147 59.13954777 25.41069031 85.11363411 C25.40611388 88.70446341 25.42048185 92.29482471 25.43908691 95.88560486 C25.48155917 104.79336308 25.49305253 113.70110616 25.50531006 122.60894775 C25.51694138 130.17518181 25.54077885 137.74119783 25.58000183 145.30734062 C25.59334413 148.80379499 25.58944527 152.29993323 25.58459473 155.79640198 C25.62033794 170.45498035 26.02892532 185.33469283 30.09997559 199.520401 C31 202.6875 31 202.6875 31 206.6875 C12.19 206.6875 -6.62 206.6875 -26 206.6875 C-25.34570049 202.76170293 -24.75810939 199.67084535 -23.54154968 196.00901794 C-21.87108792 190.56959994 -21.01187147 185.1841711 -20.33520508 179.54321289 C-20.208803 178.50264016 -20.08240091 177.46206743 -19.95216846 176.3899622 C-18.69722703 165.25394697 -18.58228623 154.18981561 -18.63671875 142.99609375 C-18.6372398 140.82430522 -18.63671268 138.65251622 -18.63520813 136.48072815 C-18.63529678 131.97918449 -18.64550988 127.47782393 -18.66381836 122.97631836 C-18.68662549 117.24784266 -18.68701545 111.51963025 -18.68030071 105.79112148 C-18.67694018 101.32550267 -18.68362787 96.85994244 -18.69342995 92.39433479 C-18.69723708 90.2827186 -18.69844915 88.17109586 -18.6968441 86.05947685 C-17.84007313 61.53966211 -17.84007313 61.53966211 -27.375 39.875 C-36.90395503 31.93420414 -45.81661598 30.61173311 -58 31.6875 C-64.97647585 33.24721872 -71.48399871 35.77857085 -78 38.6875 C-81.42870155 40.00906396 -84.86504566 41.30875862 -88.3046875 42.6015625 C-90.87616704 43.43312582 -90.87616704 43.43312582 -92 44.6875 C-92.10236516 46.22164639 -92.13519367 47.7604859 -92.14044189 49.29803467 C-92.14615204 50.29558777 -92.15186218 51.29314087 -92.15774536 52.32092285 C-92.15886322 53.42512573 -92.15998108 54.52932861 -92.16113281 55.66699219 C-92.16609772 56.82334167 -92.17106262 57.97969116 -92.17617798 59.17108154 C-92.19086598 63.02551866 -92.19761822 66.8799144 -92.203125 70.734375 C-92.20742349 72.73942738 -92.21172251 74.74447977 -92.2160995 76.74953198 C-92.22793539 82.35417046 -92.23545422 87.95879896 -92.2388947 93.56344867 C-92.24334071 100.7649168 -92.26071292 107.96619182 -92.2898953 115.16760135 C-92.3117335 120.75516844 -92.32161109 126.34268223 -92.32293582 131.93029141 C-92.32397102 135.25491903 -92.33110428 138.57922412 -92.34775543 141.90383148 C-92.43661949 161.03796626 -91.35500816 179.39754841 -86.6484375 197.99609375 C-85.95775373 200.86284747 -85.48477693 203.7788384 -85 206.6875 C-104.14 206.6875 -123.28 206.6875 -143 206.6875 C-142.07413108 201.13228648 -140.6795366 196.07549391 -139.03515625 190.7109375 C-136.432726 181.23554411 -135.70346154 171.82281269 -135.7253418 162.03540039 C-135.72023087 160.83177353 -135.71511993 159.62814667 -135.70985413 158.38804626 C-135.69842216 155.11827074 -135.69587217 151.84865434 -135.69841743 148.57886434 C-135.69949924 145.81978696 -135.69457169 143.06073201 -135.689812 140.30165952 C-135.67875528 133.76367019 -135.67825332 127.22573828 -135.68432617 120.68774414 C-135.69032011 114.02718282 -135.67816388 107.36683521 -135.6567561 100.70631033 C-135.63888505 94.92560713 -135.63317919 89.14497025 -135.63639385 83.36424059 C-135.63817194 79.94009022 -135.63593556 76.51609106 -135.62167931 73.09196663 C-135.54302008 49.18626548 -136.69826933 25.45602115 -142.23046875 2.1171875 C-143 -1.3125 -143 -1.3125 -143 -4.3125 C-126.5 -4.3125 -110 -4.3125 -93 -4.3125 C-92.67 7.2375 -92.34 18.7875 -92 30.6875 C-85.04903334 23.73763892 -85.04903334 23.73763892 -79.2265625 16.15625 C-78.82179688 15.6715625 -78.41703125 15.186875 -78 14.6875 C-77.34 14.6875 -76.68 14.6875 -76 14.6875 C-75.690625 14.06875 -75.38125 13.45 -75.0625 12.8125 C-74.375 11.4375 -73.6875 10.0625 -73 8.6875 C-72.34 8.6875 -71.68 8.6875 -71 8.6875 C-70.74347656 8.12160156 -70.48695313 7.55570313 -70.22265625 6.97265625 C-67.15139315 1.23243608 -62.76497246 -4.13007458 -56.5 -6.3125 C-38.73065353 -11.2332421 -15.30210417 -11.13809252 0 0 Z " fill="#1A74B9" transform="translate(964,9.3125)"/>
<path d="M0 0 C1.62222384 1.29011502 3.22742732 2.60200326 4.8125 3.9375 C5.66457031 4.56785156 6.51664063 5.19820312 7.39453125 5.84765625 C21.25666058 17.82865656 24.3056971 41.45452767 25.59457397 58.75532532 C26.0721885 66.81099431 26.00372951 74.89416713 26.04229546 82.96106148 C26.05894039 86.32394068 26.08218533 89.68671842 26.10719299 93.04954529 C26.17731585 102.60271997 26.23776797 112.15593569 26.28930664 121.70922852 C26.32143516 127.57930105 26.36278657 133.44925355 26.40950203 139.31922722 C26.42531603 141.53275294 26.43772996 143.7463061 26.44640923 145.95987129 C26.51880818 164.16358638 27.5315984 181.89710414 31.2265625 199.75 C31.8125 202.9375 31.8125 202.9375 31.8125 206.9375 C13.3325 206.9375 -5.1475 206.9375 -24.1875 206.9375 C-23.51993805 202.9321283 -22.75798076 199.14360567 -21.77532959 195.22444153 C-15.85335877 170.85316132 -16.86891117 145.47580629 -16.92675781 120.57299805 C-16.93818963 115.60720093 -16.93154174 110.64161929 -16.91961288 105.67582989 C-16.91231111 101.7830906 -16.91471924 97.89040063 -16.91986847 93.99765968 C-16.92118004 92.16845485 -16.91964745 90.33924518 -16.91490936 88.51004601 C-16.89599138 79.16769907 -17.1206046 69.91172858 -18.02832031 60.60864258 C-18.09895565 59.83908328 -18.16959099 59.06952398 -18.24236679 58.27664471 C-18.98499381 51.49858755 -20.97131536 45.41949177 -25.1875 39.9375 C-26.83557843 38.90715285 -28.49923356 37.90058578 -30.1875 36.9375 C-30.1875 36.2775 -30.1875 35.6175 -30.1875 34.9375 C-31.5178125 34.751875 -31.5178125 34.751875 -32.875 34.5625 C-36.1875 33.9375 -36.1875 33.9375 -38.5234375 32.91796875 C-52.85342626 27.6440286 -70.05428023 35.27364256 -83.16796875 41.00195312 C-85.87126867 42.2542555 -88.52462044 43.60176197 -91.1875 44.9375 C-91.23453262 59.45582286 -91.26964017 73.97413543 -91.29112434 88.49251938 C-91.30137159 95.23592447 -91.31530401 101.97928183 -91.33837891 108.72265625 C-91.36030858 115.24551136 -91.37211053 121.76831719 -91.37725449 128.29120636 C-91.38091447 130.76433334 -91.38805996 133.237458 -91.39896011 135.71056366 C-91.47568703 153.86140198 -91.14280703 171.90526659 -87.125 189.6875 C-86.77713912 191.28584962 -86.43204694 192.88480454 -86.08984375 194.484375 C-85.86542603 195.48742676 -85.86542603 195.48742676 -85.63647461 196.51074219 C-84.99811029 199.96117251 -84.62273607 203.45561143 -84.1875 206.9375 C-102.9975 206.9375 -121.8075 206.9375 -141.1875 206.9375 C-140.06442308 197.95288462 -140.06442308 197.95288462 -139.25 194.9375 C-138.99089844 193.9475 -138.99089844 193.9475 -138.7265625 192.9375 C-138.3671875 191.60416667 -138.0078125 190.27083333 -137.6484375 188.9375 C-137.38933594 187.9475 -137.38933594 187.9475 -137.125 186.9375 C-136.96902344 186.36 -136.81304687 185.7825 -136.65234375 185.1875 C-135.0536043 177.44906369 -135.03366863 169.79791813 -135.02636719 161.92578125 C-135.02140228 160.63667847 -135.01643738 159.34757568 -135.01132202 158.01940918 C-134.99827306 154.49772308 -134.99176591 150.97605599 -134.98731136 147.45434952 C-134.98436388 145.24164839 -134.98025571 143.02895225 -134.97580719 140.81625366 C-134.96214189 133.85797814 -134.95247477 126.89971427 -134.9486053 119.94142628 C-134.94414953 111.97711993 -134.92671412 104.01298733 -134.8976047 96.04873371 C-134.87576371 89.85206682 -134.86588899 83.65544794 -134.86456418 77.4587431 C-134.86353047 73.77814204 -134.8579396 70.0977044 -134.83974457 66.41714478 C-134.74275566 45.60151879 -135.11527494 24.74041639 -140.63671875 4.5234375 C-141.1875 1.9375 -141.1875 1.9375 -141.1875 -4.0625 C-125.0175 -4.0625 -108.8475 -4.0625 -92.1875 -4.0625 C-92.1875 8.1475 -92.1875 20.3575 -92.1875 32.9375 C-91.5275 32.9375 -90.8675 32.9375 -90.1875 32.9375 C-89.94 32.38578125 -89.6925 31.8340625 -89.4375 31.265625 C-87.94515526 28.48613293 -86.15077477 26.1560293 -84.1875 23.6875 C-83.48625 22.79546875 -82.785 21.9034375 -82.0625 20.984375 C-81.44375 20.30890625 -80.825 19.6334375 -80.1875 18.9375 C-79.5275 18.9375 -78.8675 18.9375 -78.1875 18.9375 C-77.94515625 18.38707031 -77.7028125 17.83664063 -77.453125 17.26953125 C-75.32432778 13.34702527 -72.34524077 10.11285597 -69.4921875 6.69921875 C-68.13844837 5.07702626 -66.80184705 3.43973863 -65.5078125 1.76953125 C-62.2694954 -2.33525448 -59.2430863 -4.54295705 -54.1875 -6.0625 C-53.39214844 -6.33964844 -52.59679687 -6.61679688 -51.77734375 -6.90234375 C-34.60106209 -12.14461255 -14.78117301 -10.54390341 0 0 Z " fill="#1A74BA" transform="translate(534.1875,9.0625)"/>
<path d="M0 0 C8.58 0 17.16 0 26 0 C24.23016162 5.89946125 22.61598575 11.26479115 20.3125 16.875 C19.7888514 18.16137242 19.2654264 19.44783588 18.7421875 20.734375 C18.46342773 21.41564453 18.18466797 22.09691406 17.89746094 22.79882812 C16.22533737 26.89998866 14.58262811 31.01295353 12.9375 35.125 C12.59750977 35.97352539 12.25751953 36.82205078 11.90722656 37.69628906 C9.52006118 43.66535796 7.18946103 49.65287905 4.91015625 55.6640625 C4 58 4 58 3 60 C5.475 59.505 5.475 59.505 8 59 C8 58.34 8 57.68 8 57 C12.32824802 54.98882911 16.66260133 52.99135243 21 51 C22.12921875 50.47212891 22.12921875 50.47212891 23.28125 49.93359375 C26.52691781 48.46023139 28.32974647 48 32 48 C32 47.34 32 46.68 32 46 C43.919823 42.45040381 55.73057267 39.11586339 68 37 C69.32837891 36.7527417 69.32837891 36.7527417 70.68359375 36.50048828 C77.76725865 35.22979839 84.68614017 34.59217411 91.875 34.375 C93.50961182 34.31807983 93.50961182 34.31807983 95.17724609 34.26000977 C108.78105606 33.8371083 122.391562 33.90776345 136 34 C135.67 35.98 135.34 37.96 135 40 C134.34 40 133.68 40 133 40 C132.59587891 41.28583984 132.59587891 41.28583984 132.18359375 42.59765625 C130.9982862 46.00492646 129.60430579 49.17671269 128.0625 52.4375 C127.76819092 53.06148682 127.47388184 53.68547363 127.1706543 54.32836914 C126.11830329 56.55442478 125.05951343 58.77734451 124 61 C123.55849609 61.928125 123.11699219 62.85625 122.66210938 63.8125 C113.72923093 82.5825428 113.72923093 82.5825428 110.76171875 88.43359375 C109.48261821 91.0229924 108.44261103 93.4198677 107.5 96.125 C106.17840271 99.82258367 104.19561671 102.7419881 102 106 C100.75675853 109.2249208 100.75675853 109.2249208 100 112 C99.34 112 98.68 112 98 112 C97.77699219 112.76183594 97.55398437 113.52367188 97.32421875 114.30859375 C95.49836734 119.39835652 93.1606125 124.19565363 90.8125 129.0625 C90.32144775 130.08657959 89.83039551 131.11065918 89.32446289 132.16577148 C86.1794345 138.68227856 82.91062239 145.08420845 79.33984375 151.37890625 C77.90426557 154.18728223 76.92424186 156.98847509 76 160 C75.34 160 74.68 160 74 160 C73.64228516 161.47146484 73.64228516 161.47146484 73.27734375 162.97265625 C71.99065262 167.47324606 69.83140818 171.36519468 67.5625 175.4375 C64.55710745 180.85505101 62.0523113 186.14662339 60 192 C59.34 192 58.68 192 58 192 C57.59116577 193.3144812 57.59116577 193.3144812 57.17407227 194.65551758 C56.07028257 197.79979187 54.77803164 200.57429404 53.21484375 203.51171875 C52.68439453 204.51654297 52.15394531 205.52136719 51.60742188 206.55664062 C51.05634766 207.58982422 50.50527344 208.62300781 49.9375 209.6875 C48.84047643 211.75286029 47.74533483 213.81922162 46.65234375 215.88671875 C46.16757568 216.79639404 45.68280762 217.70606934 45.18334961 218.64331055 C43.90248529 221.05404146 43.90248529 221.05404146 43 224 C42.34 224 41.68 224 41 224 C40.855625 224.94875 40.71125 225.8975 40.5625 226.875 C40 230 40 230 39 232 C38.34 232 37.68 232 37 232 C36.855625 232.763125 36.71125 233.52625 36.5625 234.3125 C36 237 36 237 35 240 C34.34 240 33.68 240 33 240 C32.78472656 240.76570312 32.56945313 241.53140625 32.34765625 242.3203125 C30.48275939 247.41229174 27.96968907 252.08666105 25.4375 256.875 C24.9017334 257.8949707 24.3659668 258.91494141 23.81396484 259.96582031 C19.98324731 267.22534402 16.03235568 274.40782373 11.96875 281.5390625 C8.14088748 288.26820177 4.38737266 295.03706731 1 302 C0.67 302 0.34 302 0 302 C0 202.34 0 102.68 0 0 Z " fill="#010000" transform="translate(0,0)"/>
<path d="M0 0 C14.42719555 7.33032266 25.43789126 16.97920012 33.4140625 31.2265625 C33.94902344 32.17402344 34.48398437 33.12148437 35.03515625 34.09765625 C46.10535727 54.88534046 48.40273513 78.80193958 45.1015625 101.7890625 C44.92536377 103.02039917 44.92536377 103.02039917 44.74560547 104.27661133 C43.90016253 109.56467877 42.5003482 114.3007953 40.4140625 119.2265625 C40.11798096 119.92724854 39.82189941 120.62793457 39.5168457 121.34985352 C38.6009431 123.48197444 37.66737046 125.60532534 36.7265625 127.7265625 C36.24606445 128.81710938 36.24606445 128.81710938 35.75585938 129.9296875 C34.97721092 131.69617355 34.19591925 133.46149412 33.4140625 135.2265625 C32.7540625 135.2265625 32.0940625 135.2265625 31.4140625 135.2265625 C31.22457031 135.90589844 31.03507813 136.58523437 30.83984375 137.28515625 C28.83919207 141.41252807 25.87304229 144.12495435 22.6015625 147.2890625 C21.98474609 147.90072266 21.36792969 148.51238281 20.73242188 149.14257812 C19.52417555 150.33028041 18.30344228 151.50543545 17.06958008 152.66650391 C15.70248287 153.95477277 14.37650441 155.28652633 13.0625 156.62890625 C9.07756649 159.03279682 5.42111179 158.82490104 0.8515625 158.7265625 C-0.04159668 158.71375244 -0.93475586 158.70094238 -1.85498047 158.68774414 C-13.8099286 158.32288112 -22.24237919 154.57033045 -31.5859375 147.2265625 C-33.1328125 146.1128125 -33.1328125 146.1128125 -34.7109375 144.9765625 C-39.60032951 140.29975275 -45.46523181 134.12945986 -46.5859375 127.2265625 C-47.2459375 127.2265625 -47.9059375 127.2265625 -48.5859375 127.2265625 C-49.59290318 125.12572041 -50.5912964 123.02076761 -51.5859375 120.9140625 C-52.1428125 119.74230469 -52.6996875 118.57054687 -53.2734375 117.36328125 C-54.5859375 114.2265625 -54.5859375 114.2265625 -54.5859375 111.2265625 C-55.2459375 111.2265625 -55.9059375 111.2265625 -56.5859375 111.2265625 C-57.57305472 107.39523214 -58.54917699 103.56118051 -59.5234375 99.7265625 C-59.80123047 98.64890625 -60.07902344 97.57125 -60.36523438 96.4609375 C-66.90425741 70.61997901 -65.20256175 44.19938534 -52.0859375 20.7890625 C-49.59133132 16.63860058 -47.23674267 13.38401562 -43.5859375 10.2265625 C-42.8640625 9.4634375 -42.1421875 8.7003125 -41.3984375 7.9140625 C-39.5859375 6.2265625 -39.5859375 6.2265625 -37.5859375 6.2265625 C-37.5859375 5.5665625 -37.5859375 4.9065625 -37.5859375 4.2265625 C-28.84651572 -4.65085015 -11.07723534 -4.18821266 0 0 Z " fill="#000001" transform="translate(701.5859375,32.7734375)"/>
<path d="M0 0 C11.74852737 7.92979919 17.78194898 18.01949 21.51171875 31.6953125 C21.51171875 37.9653125 21.51171875 44.2353125 21.51171875 50.6953125 C-5.21828125 50.6953125 -31.94828125 50.6953125 -59.48828125 50.6953125 C-59.48828125 34.17251512 -56.51455912 19.34236509 -46.0390625 6.2421875 C-44.48828125 4.6953125 -44.48828125 4.6953125 -42.48828125 4.6953125 C-42.48828125 4.0353125 -42.48828125 3.3753125 -42.48828125 2.6953125 C-41.16828125 2.3653125 -39.84828125 2.0353125 -38.48828125 1.6953125 C-38.48828125 1.0353125 -38.48828125 0.3753125 -38.48828125 -0.3046875 C-25.76468365 -5.79618242 -12.27055964 -7.19828192 0 0 Z " fill="#000104" transform="translate(302.48828125,35.3046875)"/>
<path d="M0 0 C0.33 0 0.66 0 1 0 C1 32.01 1 64.02 1 97 C-8.57 97 -18.14 97 -28 97 C-25.73725147 86.90466039 -23.1901596 77.0276268 -20.15527344 67.13867188 C-18.21690273 60.80350906 -16.49591838 54.45606878 -15 48 C-14.34 48 -13.68 48 -13 48 C-13.09667969 46.81083984 -13.09667969 46.81083984 -13.1953125 45.59765625 C-12.93728867 40.84485728 -11.46685371 36.89543482 -9.875 32.4375 C-6.17001449 21.73410268 -3.01035556 10.91650869 0 0 Z " fill="#030000" transform="translate(1057,208)"/>
<path d="M0 0 C17.16 0 34.32 0 52 0 C48.89085936 1.55457032 46.35139546 2.56755506 43.0625 3.5 C42.18078125 3.76425781 41.2990625 4.02851562 40.390625 4.30078125 C38.70649568 4.79336156 37.01244564 5.25263019 35.3125 5.6875 C28.67139865 9.45677374 24.14897521 17.29911773 19.63989258 23.34301758 C16.99360746 26.85520434 14.117312 29.90778713 11 33 C9.12476435 35.36377399 7.33868308 37.77691191 5.55078125 40.20703125 C5.03902344 40.79871094 4.52726562 41.39039063 4 42 C3.34 42 2.68 42 2 42 C2 29.79 2 17.58 2 5 C-14.17 5 -30.34 5 -47 5 C-46.34 8.63 -45.68 12.26 -45 16 C-48 14 -48 14 -48.51171875 11.6171875 C-48.56972656 10.71226563 -48.62773437 9.80734375 -48.6875 8.875 C-48.75324219 7.96492187 -48.81898438 7.05484375 -48.88671875 6.1171875 C-48.92410156 5.41851562 -48.96148437 4.71984375 -49 4 C-46.62617015 2.81308507 -45.10821107 2.84427133 -42.45849609 2.79467773 C-41.51767181 2.77473251 -40.57684753 2.75478729 -39.60751343 2.73423767 C-38.58976837 2.71752518 -37.57202332 2.70081268 -36.5234375 2.68359375 C-35.48305328 2.66281265 -34.44266907 2.64203156 -33.37075806 2.62062073 C-30.03890751 2.55510128 -26.7069765 2.49622908 -23.375 2.4375 C-21.11978326 2.39431706 -18.86457473 2.35070285 -16.609375 2.30664062 C-11.07300236 2.19941748 -5.53654922 2.09765554 0 2 C0 1.34 0 0.68 0 0 Z " fill="#000104" transform="translate(440,0)"/>
<path d="M0 0 C9.6488446 9.6488446 5.1831581 38.27238429 5.20018864 50.84092784 C5.20315077 52.9204342 5.20726064 54.99993544 5.21169281 57.07943916 C5.2253053 63.62013622 5.23500517 70.16082113 5.2388947 76.70153135 C5.24337593 84.18985724 5.26095328 91.67800067 5.2898953 99.16627115 C5.31164394 105.00032467 5.32160576 110.8343273 5.32293582 116.66842085 C5.32397343 120.13292603 5.32965555 123.59725826 5.34775543 127.06171989 C5.4705951 154.65391412 5.4705951 154.65391412 2 168 C1.34 168 0.68 168 0 168 C0.14109986 165.89551062 0.28804175 163.7914123 0.4375 161.6875 C0.51871094 160.51574219 0.59992187 159.34398437 0.68359375 158.13671875 C1 155 1 155 2 152 C2.0941463 150.31582723 2.13060631 148.62815975 2.13371277 146.94136047 C2.14011024 145.37168266 2.14011024 145.37168266 2.14663696 143.77029419 C2.14618378 142.62189056 2.14573059 141.47348694 2.14526367 140.2902832 C2.14862228 139.07993912 2.1519809 137.86959503 2.15544128 136.62257385 C2.16332917 133.29478076 2.16662029 129.96705011 2.16725707 126.63925195 C2.16796912 124.54969725 2.17010678 122.46014902 2.17275429 120.37059593 C2.18202338 113.04857345 2.1860888 105.72656917 2.18530273 98.40454102 C2.18470731 91.63789458 2.19514859 84.87132925 2.2110464 78.10470325 C2.22427444 72.2605755 2.22948008 66.41647367 2.22884732 60.57233113 C2.22859598 57.09849309 2.23123801 53.62472651 2.24202538 50.1509037 C2.28507619 33.32643955 1.74787766 16.73960384 0 0 Z " fill="#276DA2" transform="translate(826,32)"/>
<path d="M0 0 C0.33 0 0.66 0 1 0 C2.94057031 16.16841371 3.31430248 32.17532262 3.30158257 48.44929147 C3.30049369 51.21998699 3.30544315 53.99066059 3.310188 56.76135129 C3.32117534 63.30519254 3.32177981 69.84897632 3.31567383 76.39282227 C3.30961957 83.09075074 3.3220067 89.78846992 3.3432439 96.48636276 C3.36096822 102.29506948 3.36684503 108.10371016 3.36360615 113.91244286 C3.36181308 117.3567241 3.36422927 120.80085537 3.37832069 124.24511147 C3.46710618 151.60176524 3.46710618 151.60176524 0 165 C-0.33 165 -0.66 165 -1 165 C-1.02721176 163.10424749 -1.04649136 161.20838021 -1.0625 159.3125 C-1.07410156 158.25675781 -1.08570313 157.20101562 -1.09765625 156.11328125 C-1 153 -1 153 -0.50141239 150.69416523 C0.06214655 147.6660771 0.12286723 144.86046972 0.12025452 141.78007507 C0.12162918 140.52790695 0.12300385 139.27573883 0.12442017 137.98562622 C0.1208815 136.60589575 0.1172467 135.22616553 0.11352539 133.84643555 C0.11324319 132.38758852 0.11340189 130.92874135 0.1139679 129.46989441 C0.1142546 125.51575867 0.10837837 121.56165332 0.10139394 117.60752463 C0.09513928 113.47287383 0.09455493 109.33822231 0.09336853 105.2035675 C0.09026145 97.37679853 0.08205644 89.55004354 0.07201904 81.72328073 C0.06083858 72.81160712 0.05534258 63.89993283 0.05032361 54.98825395 C0.03987332 36.65882804 0.02228592 18.32941515 0 0 Z " fill="#011328" transform="translate(826,35)"/>
<path d="M0 0 C0 0.66 0 1.32 0 2 C-0.99 2 -1.98 2 -3 2 C-2.89221457 16.45708303 -2.77930453 30.91411849 -2.66066074 45.37111664 C-2.60564691 52.0854488 -2.55233124 58.79978591 -2.50268555 65.51416016 C-2.45463549 72.00460734 -2.40228345 78.49500737 -2.34705925 84.98539734 C-2.32681812 87.45064607 -2.30807738 89.91590764 -2.29092598 92.38117981 C-3.1771065 113.44971112 -3.1771065 113.44971112 0 134 C0.30698862 137.38540224 0.50904595 140.77135062 0.71875 144.1640625 C0.68740332 146.89869363 0.68740332 146.89869363 2 148 C2.45459858 150.65463121 2.70243238 153.32189138 3 156 C2.34 156 1.68 156 1 156 C0.36135481 153.0857938 -0.2606294 150.16934968 -0.875 147.25 C-1.04902344 146.46367187 -1.22304688 145.67734375 -1.40234375 144.8671875 C-5.21775477 126.49668998 -5.31292002 107.86085862 -5.30078125 89.1796875 C-5.30467721 86.65715465 -5.3090137 84.13462245 -5.31376648 81.61209106 C-5.32116483 76.37304535 -5.32097976 71.13406715 -5.31567383 65.89501953 C-5.31040591 59.84153129 -5.3221159 53.78831893 -5.3432439 47.7348727 C-5.36293458 41.87647187 -5.36604221 36.01816167 -5.36250877 30.15973282 C-5.36302287 27.67731303 -5.36827713 25.19488961 -5.37832069 22.71249008 C-5.39057912 19.26631177 -5.38396256 15.82068044 -5.37231445 12.37451172 C-5.37995819 11.34713898 -5.38760193 10.31976624 -5.39547729 9.26126099 C-5.38846298 8.32820129 -5.38144867 7.3951416 -5.3742218 6.43380737 C-5.37438954 5.62095213 -5.37455729 4.80809689 -5.37473011 3.97060966 C-5.25106917 3.32030848 -5.12740824 2.67000729 -5 2 C-2 0 -2 0 0 0 Z " fill="#04142C" transform="translate(447,52)"/>
<path d="M0 0 C1.97388067 3.94776134 2.81041127 7.46826736 3.5625 11.75 C3.68818359 12.42804688 3.81386719 13.10609375 3.94335938 13.8046875 C4.80235301 18.5358985 5.40095509 23.20764071 6 28 C-12.81 28 -31.62 28 -51 28 C-50 20 -50 20 -48 17 C-48.33 20.3 -48.66 23.6 -49 27 C-45.04878772 26.88182083 -41.09781771 26.75757767 -37.14697266 26.62768555 C-35.14105193 26.56301749 -33.13497772 26.50316894 -31.12890625 26.44335938 C-29.87207031 26.40146484 -28.61523438 26.35957031 -27.3203125 26.31640625 C-26.15773926 26.27974854 -24.99516602 26.24309082 -23.79736328 26.20532227 C-21.0464499 26.18178341 -21.0464499 26.18178341 -19 25 C-18.505 23.515 -18.505 23.515 -18 22 C-12.21967481 19.018682 -5.29487131 18.29427261 1 17 C0.67 11.39 0.34 5.78 0 0 Z " fill="#3B6095" transform="translate(444,188)"/>
<path d="M0 0 C1.66933905 2.92720696 2.24966827 5.01692281 2.24723816 8.37733459 C2.25143265 9.24727554 2.25562714 10.11721649 2.25994873 11.01351929 C2.25432922 11.96046661 2.24870972 12.90741394 2.24291992 13.88305664 C2.24481827 14.88699966 2.24671661 15.89094269 2.24867249 16.92530823 C2.25238406 20.25366977 2.24165935 23.58181396 2.23046875 26.91015625 C2.22927563 29.23546829 2.22882407 31.56078081 2.2290802 33.88609314 C2.22751397 38.77280679 2.21922205 43.65944734 2.20581055 48.54614258 C2.18896201 54.75901578 2.18499227 60.9718076 2.18575573 67.18470097 C2.18548119 71.9970729 2.17995271 76.80942761 2.17275429 81.62179375 C2.16960565 83.90873522 2.16760928 86.19567863 2.16686058 88.48262215 C2.15946092 99.28774595 2.09492725 110.07549792 1.55200195 120.86889648 C1.51341411 121.65447717 1.47482626 122.44005785 1.43506908 123.24944401 C1.25635194 126.37250411 0.99427034 129.01718898 0 132 C-0.66 132 -1.32 132 -2 132 C-1.67 134.97 -1.34 137.94 -1 141 C-1.99 140.67 -2.98 140.34 -4 140 C-3.53211559 135.24317521 -2.9472474 130.62335165 -1.98086548 125.94230652 C-0.86046244 119.84715521 -0.69349377 113.92028988 -0.68115234 107.7355957 C-0.67110672 106.56356094 -0.6610611 105.39152618 -0.65071106 104.18397522 C-0.62006292 100.34791511 -0.60289513 96.51192419 -0.5859375 92.67578125 C-0.56721105 90.0010632 -0.5477306 87.32636121 -0.5272522 84.6516571 C-0.48068407 78.35509769 -0.44383456 72.05852141 -0.41057932 65.76187915 C-0.37220153 58.58637364 -0.32283306 51.41095647 -0.27259517 44.23552573 C-0.16960257 29.49041893 -0.08023718 14.74524863 0 0 Z " fill="#175788" transform="translate(400,64)"/>
<path d="M0 0 C9.14089435 10.98905331 6.16249922 32.02638012 6.16796875 45.578125 C6.17119263 47.47646101 6.1745575 49.37479679 6.17805481 51.27313232 C6.18401595 55.24361749 6.18589807 59.214081 6.18530273 63.18457031 C6.18522182 67.20675181 6.19211244 71.2288186 6.20581055 75.25097656 C6.34941281 117.95345219 6.34941281 117.95345219 4 138 C3.67 138 3.34 138 3 138 C3 98.4 3 58.8 3 18 C2.34 18 1.68 18 1 18 C1.01160156 17.14535156 1.02320313 16.29070312 1.03515625 15.41015625 C1.04417969 14.30542969 1.05320312 13.20070313 1.0625 12.0625 C1.07410156 10.96035156 1.08570313 9.85820313 1.09765625 8.72265625 C1.31262571 6.08552366 1.31262571 6.08552366 0 5 C-0.04063832 3.33382885 -0.042721 1.66611905 0 0 Z " fill="#09253F" transform="translate(512,54)"/>
<path d="M0 0 C38.61 0 77.22 0 117 0 C116.67 0.66 116.34 1.32 116 2 C101.43161407 2.1538313 86.86317878 2.30179886 72.29466438 2.4429636 C65.53055881 2.50861024 58.76648231 2.57616785 52.00244141 2.64819336 C45.4797157 2.71764394 38.95695062 2.78180997 32.43413925 2.84269524 C29.94054262 2.86684604 27.44696275 2.89279386 24.95340347 2.92053413 C21.47172926 2.95896562 17.99005124 2.99111507 14.50830078 3.02172852 C12.94816254 3.04114754 12.94816254 3.04114754 11.35650635 3.06095886 C10.41137177 3.06799835 9.46623718 3.07503784 8.49246216 3.08229065 C7.25633777 3.09473485 7.25633777 3.09473485 5.99524117 3.10743046 C4 3 4 3 2 2 C2.33 6.62 2.66 11.24 3 16 C0.03631576 10.07263152 0 6.83659261 0 0 Z " fill="#03172A" transform="translate(242,116)"/>
<path d="M0 0 C13.97138441 13.97138441 11.14367319 46.9974146 11.22979546 64.90130043 C11.24645558 68.24847576 11.2697029 71.59554977 11.29469299 74.94267273 C11.36475796 84.45171887 11.42511669 93.96080716 11.47680664 103.4699707 C11.50903431 109.31412518 11.55041118 115.15816152 11.59700203 121.00221825 C11.61276461 123.20127377 11.62520065 125.40035629 11.63390923 127.59945107 C11.69503204 142.8220665 12.51526338 157.8486889 14 173 C6.70741398 165.70741398 9.68594694 144.85997955 9.66447449 135.23992348 C9.65610453 131.61274141 9.63553261 127.98580147 9.61193848 124.35868835 C9.55587174 115.36643632 9.52019903 106.37412617 9.48431396 97.3817749 C9.45311151 89.74761385 9.4140008 82.11357537 9.36405945 74.47951317 C9.34397682 70.90366879 9.33567402 67.32791844 9.32775879 63.75202942 C9.31479495 61.57337086 9.30127592 59.39471552 9.28710938 57.21606445 C9.28809128 56.22026367 9.28907318 55.22446289 9.29008484 54.19848633 C9.28181168 53.28903763 9.27353851 52.37958893 9.26501465 51.44258118 C9.26208153 50.65235219 9.25914841 49.8621232 9.2561264 49.04794788 C9.1162341 46.68993167 9.1162341 46.68993167 7 44 C6.66870117 41.38720703 6.66870117 41.38720703 6.54296875 38.2578125 C6.4847998 37.11449463 6.42663086 35.97117676 6.36669922 34.79321289 C6.30756348 33.58270264 6.24842773 32.37219238 6.1875 31.125 C5.65781583 22.12333152 5.0027861 14.46237259 1.0234375 6.28515625 C0 4 0 4 0 0 Z " fill="#276DA2" transform="translate(549,27)"/>
<path d="M0 0 C16.5 0 33 0 50 0 C50.33 11.55 50.66 23.1 51 35 C51.66 34.67 52.32 34.34 53 34 C52.67 34.99 52.34 35.98 52 37 C50.68 36.67 49.36 36.34 48 36 C48 24.78 48 13.56 48 2 C32.82 2 17.64 2 2 2 C2.66 3.32 3.32 4.64 4 6 C4.2952194 8.77394833 4.50712231 11.4700511 4.625 14.25 C4.66367187 14.99507812 4.70234375 15.74015625 4.7421875 16.5078125 C4.83605108 18.3381524 4.91909718 20.16904143 5 22 C2.62879953 18.44319929 2.09400605 15.1232796 1.375 11 C1.2409375 10.27554687 1.106875 9.55109375 0.96875 8.8046875 C0.43072462 5.82907773 0 3.02980844 0 0 Z " fill="#24669A" transform="translate(821,5)"/>
<path d="M0 0 C0.53625 0.226875 1.0725 0.45375 1.625 0.6875 C-0.16536458 1.6640625 -1.95572917 2.640625 -3.74609375 3.6171875 C-5.54118315 4.60160024 -5.54118315 4.60160024 -6.375 6.6875 C-7.035 6.935 -7.695 7.1825 -8.375 7.4375 C-10.62567193 8.52443238 -10.62567193 8.52443238 -10.98716736 11.07473755 C-11.5126869 15.97008948 -11.55296168 20.82117439 -11.58032227 25.74169922 C-11.59022186 26.84472885 -11.60012146 27.94775848 -11.61032104 29.08421326 C-11.64183953 32.72018304 -11.66665534 36.35616588 -11.69140625 39.9921875 C-11.7119841 42.51710342 -11.7329808 45.04201595 -11.75437927 47.56692505 C-11.8038825 53.52720905 -11.84916999 59.48751557 -11.89240164 65.44784749 C-11.94187594 72.23628015 -11.99675609 79.02466578 -12.05208123 85.81305289 C-12.16571869 99.77115799 -12.27259705 113.72930828 -12.375 127.6875 C-12.705 127.6875 -13.035 127.6875 -13.375 127.6875 C-13.4917349 111.83255648 -13.57993959 95.97772871 -13.63406086 80.12246227 C-13.65985687 72.7607761 -13.69503347 65.39935673 -13.75219727 58.0378418 C-13.80199022 51.62248809 -13.83428087 45.20732758 -13.84544247 38.79178602 C-13.85196844 35.3938117 -13.86733355 31.99639012 -13.90365028 28.59859276 C-13.93977118 24.80782211 -13.94495217 21.01820903 -13.94262695 17.22729492 C-13.96060333 16.09729065 -13.97857971 14.96728638 -13.99710083 13.80303955 C-13.97845658 11.00734485 -13.92970512 8.42736172 -13.375 5.6875 C-11.03092957 3.57563782 -11.03092957 3.57563782 -8.375 2.6875 C-7.364375 2.11 -6.35375 1.5325 -5.3125 0.9375 C-2.375 -0.3125 -2.375 -0.3125 0 0 Z " fill="#010A1E" transform="translate(884.375,48.3125)"/>
<path d="M0 0 C-3 1 -3 1 -6 0 C-6 -0.66 -6 -1.32 -6 -2 C-6.9590625 -2.185625 -6.9590625 -2.185625 -7.9375 -2.375 C-10.24953497 -2.84684387 -12.53942998 -3.42902147 -14.8125 -4.0625 C-27.56545592 -6.86141607 -41.22049362 -4.65660268 -54 -3 C-54 -2.34 -54 -1.68 -54 -1 C-57.05847848 -0.45627049 -59.88772805 0 -63 0 C-60.51964394 -3.72053409 -58.06557933 -4.59683545 -54 -6 C-53.19949219 -6.28230469 -52.39898437 -6.56460937 -51.57421875 -6.85546875 C-34.52653599 -11.99147501 -14.6738259 -10.50053597 0 0 Z " fill="#2474B3" transform="translate(534,9)"/>
<path d="M0 0 C1.89453125 0.58203125 1.89453125 0.58203125 4 2 C5.01171875 5.01171875 5.01171875 5.01171875 5.6875 8.6875 C5.91824219 9.88761719 6.14898438 11.08773437 6.38671875 12.32421875 C6.69029297 14.14373047 6.69029297 14.14373047 7 16 C7.17530746 17.00994522 7.35061493 18.01989044 7.53123474 19.06044006 C8.1149356 23.96593271 8.1315437 28.77369081 8.11352539 33.70874023 C8.11367142 34.76314804 8.11381744 35.81755585 8.1139679 36.90391541 C8.11327394 40.3721628 8.1055058 43.84035579 8.09765625 47.30859375 C8.09579023 49.71997549 8.0943672 52.13135761 8.09336853 54.54273987 C8.08955783 60.87695367 8.07973991 67.21114441 8.06866455 73.54534912 C8.05841931 80.01395353 8.05386424 86.48256168 8.04882812 92.95117188 C8.03811633 105.63412441 8.02125063 118.31706097 8 131 C7.34 131.33 6.68 131.66 6 132 C6.00444122 130.69280502 6.00888245 129.38561005 6.01345825 128.0388031 C6.05415522 115.66720806 6.08405648 103.29562677 6.10362434 90.92397976 C6.11402282 84.56493254 6.12810953 78.20593974 6.15087891 71.84692383 C6.17274839 65.70015497 6.18459816 59.55343817 6.18975449 53.40663338 C6.19342507 51.07171879 6.20059214 48.73680677 6.21146011 46.4019146 C6.67442862 22.58031978 6.67442862 22.58031978 0 0 Z " fill="#276DA1" transform="translate(939,51)"/>
<path d="M0 0 C2 1 2 1 3.0625 4.0625 C5.44930063 12.44589065 5.1862735 21.18976149 5.18530273 29.82373047 C5.18746702 31.96733142 5.20560751 34.11039745 5.22460938 36.25390625 C5.26376866 45.98848471 4.45089183 55.36991983 3 65 C2.78597534 66.44318604 2.78597534 66.44318604 2.56762695 67.91552734 C2.125 70.375 2.125 70.375 1 74 C-1.0703125 75.2265625 -1.0703125 75.2265625 -3 76 C-2.72285156 74.865625 -2.44570313 73.73125 -2.16015625 72.5625 C-1.79404291 71.04172152 -1.42817037 69.52088505 -1.0625 68 C-0.88009766 67.25621094 -0.69769531 66.51242188 -0.50976562 65.74609375 C-0.33251953 65.00488281 -0.15527344 64.26367188 0.02734375 63.5 C0.18968506 62.8296875 0.35202637 62.159375 0.51928711 61.46875 C1.70995047 55.35397706 2.15769954 49.34563036 2.16796875 43.125 C2.17129715 42.39740479 2.17462555 41.66980957 2.17805481 40.92016602 C2.18308394 39.38737614 2.18546439 37.85457546 2.18530273 36.32177734 C2.18746845 34.0333333 2.20560964 31.74538903 2.22460938 29.45703125 C2.26127486 19.49046644 1.48097488 9.85414676 0 0 Z " fill="#04152A" transform="translate(787,72)"/>
<path d="M0 0 C0.33 0 0.66 0 1 0 C1.19335938 1.0621875 1.38671875 2.124375 1.5859375 3.21875 C1.84882577 4.64585776 2.11185413 6.07293972 2.375 7.5 C2.50132812 8.19609375 2.62765625 8.8921875 2.7578125 9.609375 C2.88671875 10.30546875 3.015625 11.0015625 3.1484375 11.71875 C3.32125244 12.66137695 3.32125244 12.66137695 3.49755859 13.62304688 C4.2334201 17.10426537 5.13702381 20.54809524 6 24 C-13.14 24 -32.28 24 -52 24 C-51.19838392 19.19030352 -50.21539644 14.69953288 -49 10 C-48 14 -48 14 -49 23 C-23.755 22.505 -23.755 22.505 2 22 C1.34 17.38 0.68 12.76 0 8 C-0.0683536 5.33420952 -0.10658144 2.66453589 0 0 Z " fill="#276A9F" transform="translate(873,192)"/>
<path d="M0 0 C16.17 0 32.34 0 49 0 C49 12.21 49 24.42 49 37 C49.99 37.495 49.99 37.495 51 38 C50.01 38 49.02 38 48 38 C46.43440074 34.86880149 46.99839503 31.5732679 47.12109375 28.1484375 C47.14175903 27.46241455 47.16242432 26.7763916 47.18371582 26.06958008 C47.26253792 23.50453616 47.35057566 20.93978213 47.4375 18.375 C47.7159375 9.774375 47.7159375 9.774375 48 1 C32.82 1 17.64 1 2 1 C2.66 4.3 3.32 7.6 4 11 C4.07204576 13.66569325 4.09869776 16.33516044 4 19 C2.51223434 16.23700663 1.55193921 13.68734407 0.875 10.625 C0.70742188 9.89539062 0.53984375 9.16578125 0.3671875 8.4140625 C0 6 0 6 0 0 Z " fill="#276A9D" transform="translate(393,5)"/>
<path d="M0 0 C13.86 0 27.72 0 42 0 C41.34 0.99 40.68 1.98 40 3 C40.99 3.66 41.98 4.32 43 5 C43 5.66 43 6.32 43 7 C45.475 7.495 45.475 7.495 48 8 C48.495 9.98 48.495 9.98 49 12 C49.66 12 50.32 12 51 12 C52.02104551 12.97850195 53.0206121 13.97980427 54 15 C54.66 15.33 55.32 15.66 56 16 C55.67 17.32 55.34 18.64 55 20 C53.29115995 18.37660195 51.62553283 16.70680947 50 15 C50 14.34 50 13.68 50 13 C49.484375 12.773125 48.96875 12.54625 48.4375 12.3125 C46 11 46 11 43.0625 8.625 C30.03950944 -0.46143441 14.10452174 1.57804065 -1 2 C-0.67 1.34 -0.34 0.68 0 0 Z " fill="#021429" transform="translate(918,0)"/>
<path d="M0 0 C0.33 0 0.66 0 1 0 C1.46215654 6.93234805 0.0092921 10.63259564 -2 18 C15.16 17.67 32.32 17.34 50 17 C49.505 16.01 49.505 16.01 49 15 C48.92934383 12.95944995 48.91578024 10.91665743 48.9375 8.875 C48.94652344 7.77929688 48.95554687 6.68359375 48.96484375 5.5546875 C48.97644531 4.71164063 48.98804688 3.86859375 49 3 C49.33 3 49.66 3 50 3 C50.66 8.28 51.32 13.56 52 19 C33.52 19 15.04 19 -4 19 C-3.2727136 14.63628158 -2.44602982 10.42221402 -1.4375 6.125 C-1.16808594 4.97257813 -0.89867187 3.82015625 -0.62109375 2.6328125 C-0.41613281 1.76398438 -0.21117187 0.89515625 0 0 Z " fill="#286A9E" transform="translate(514,197)"/>
<path d="M0 0 C0.81052322 0.02442673 1.62104645 0.04885345 2.45613098 0.07402039 C3.37685898 0.09426773 4.29758698 0.11451508 5.24621582 0.13537598 C6.23692581 0.17273361 7.2276358 0.21009125 8.24836731 0.24858093 C9.26514053 0.27502182 10.28191376 0.30146271 11.32949829 0.32870483 C14.58039021 0.41654906 17.83017533 0.52567152 21.08039856 0.63529968 C23.28283272 0.6985499 25.4853071 0.76041623 27.68782043 0.82084656 C33.09008252 0.97210273 38.49158828 1.14083819 43.89289856 1.32279968 C44.38789856 2.31279968 44.38789856 2.31279968 44.89289856 3.32279968 C28.39289856 3.32279968 11.89289856 3.32279968 -5.10710144 3.32279968 C-2.10710144 0.32279968 -2.10710144 0.32279968 0 0 Z " fill="#001428" transform="translate(826.1071014404297,1.6772003173828125)"/>
<path d="M0 0 C-5.82316226 5.82316226 -20.49775538 4.37691587 -28.37060547 4.65844727 C-29.20092285 4.68994873 -30.03124023 4.7214502 -30.88671875 4.75390625 C-31.63139404 4.77783447 -32.37606934 4.8017627 -33.14331055 4.82641602 C-35.09307399 4.89569786 -35.09307399 4.89569786 -37 6 C-39.03232634 6.08527628 -41.06747006 6.10716135 -43.1015625 6.09765625 C-44.31328125 6.09443359 -45.525 6.09121094 -46.7734375 6.08789062 C-48.04445313 6.07951172 -49.31546875 6.07113281 -50.625 6.0625 C-51.90375 6.05798828 -53.1825 6.05347656 -54.5 6.04882812 C-57.66671292 6.03701203 -60.83333356 6.02053815 -64 6 C-64 5.67 -64 5.34 -64 5 C-62.94312988 4.91959473 -61.88625977 4.83918945 -60.79736328 4.75634766 C-56.78247159 4.45005932 -52.76790727 4.13963919 -48.75341797 3.828125 C-47.0334493 3.69520526 -45.31339969 3.56332777 -43.59326172 3.43261719 C-33.73079566 2.68240034 -23.89622622 1.85358567 -14.07962036 0.62857056 C-9.35231751 0.06131095 -4.76218469 -0.0767341 0 0 Z " fill="#97232F" transform="translate(904,237)"/>
<path d="M0 0 C11.46399549 11.46399549 10.55426544 36.99872659 11 52 C10.67 52 10.34 52 10 52 C9.34 49.36 8.68 46.72 8 44 C7.67 44 7.34 44 7 44 C6.96559814 43.25016846 6.93119629 42.50033691 6.89575195 41.7277832 C6.37131832 23.48985736 6.37131832 23.48985736 1.0234375 6.28515625 C0 4 0 4 0 0 Z " fill="#23679A" transform="translate(549,27)"/>
<path d="M0 0 C-1.06541016 0.41572266 -1.06541016 0.41572266 -2.15234375 0.83984375 C-3.07144531 1.20207031 -3.99054688 1.56429687 -4.9375 1.9375 C-5.85402344 2.29714844 -6.77054687 2.65679687 -7.71484375 3.02734375 C-9.92418533 3.7996218 -9.92418533 3.7996218 -11 5 C-12.96669943 5.10014899 -14.93700332 5.13081239 -16.90625 5.1328125 C-18.12570312 5.13410156 -19.34515625 5.13539063 -20.6015625 5.13671875 C-21.88804687 5.13285156 -23.17453125 5.12898437 -24.5 5.125 C-25.75554687 5.12886719 -27.01109375 5.13273438 -28.3046875 5.13671875 C-34.95524008 5.12974752 -41.40951834 4.90260945 -48 4 C-47.67 3.01 -47.34 2.02 -47 1 C-45.92363281 1.15984375 -44.84726562 1.3196875 -43.73828125 1.484375 C-38.2261334 2.16808984 -32.73604038 2.22217033 -27.1875 2.25 C-25.66286133 2.2809375 -25.66286133 2.2809375 -24.10742188 2.3125 C-17.75883498 2.34487011 -12.40101278 1.55786205 -6.3684082 -0.45019531 C-3.82022017 -1.04173427 -2.44176015 -0.85170289 0 0 Z " fill="#23689E" transform="translate(335,184)"/>
<path d="M0 0 C1 2 1 2 0.45849609 3.88842773 C0.14992676 4.64583252 -0.15864258 5.4032373 -0.4765625 6.18359375 C-0.81494141 7.02422363 -1.15332031 7.86485352 -1.50195312 8.73095703 C-1.87255859 9.62411621 -2.24316406 10.51727539 -2.625 11.4375 C-2.99818359 12.34097168 -3.37136719 13.24444336 -3.75585938 14.17529297 C-4.49986454 15.97051166 -5.24687638 17.76448759 -5.99707031 19.55712891 C-6.83052564 21.58720534 -7.60641999 23.64079923 -8.3671875 25.69921875 C-10.96265078 32.40267391 -10.96265078 32.40267391 -13.90625 34.09765625 C-15.99994122 34.68748344 -17.82988597 34.93437155 -20 35 C-21.485 35.061875 -21.485 35.061875 -23 35.125 C-23.66 35.08375 -24.32 35.0425 -25 35 C-22.30715886 32.52258615 -21.32893005 31.99401945 -17.5625 32.0625 C-13.87073504 31.39607928 -13.87073504 31.39607928 -12.54296875 28.58984375 C-11.21940196 25.426879 -10.07111847 22.25683254 -9 19 C-8.70222656 18.1234375 -8.40445312 17.246875 -8.09765625 16.34375 C-7.60741836 14.88035331 -7.13102596 13.4121577 -6.67578125 11.9375 C-5.94825012 9.85163039 -5.00467171 7.96531398 -4 6 C-3.67 5.113125 -3.34 4.22625 -3 3.3125 C-2 1 -2 1 0 0 Z " fill="#28689A" transform="translate(350,182)"/>
<path d="M0 0 C0 0.33 0 0.66 0 1 C-1.56324232 0.88465396 -3.12559683 0.75724874 -4.6875 0.625 C-5.99267578 0.52058594 -5.99267578 0.52058594 -7.32421875 0.4140625 C-10 0 -10 0 -12.3203125 -1.015625 C-15.93405345 -2.34312168 -19.38599165 -2.38115928 -23.1875 -2.375 C-23.96689941 -2.37701416 -24.74629883 -2.37902832 -25.54931641 -2.38110352 C-32.31836625 -2.26659206 -38.62834413 -1.055972 -45.16088867 0.66455078 C-48.86586248 1.62908445 -51.34095676 2.13467708 -55 1 C-53.50549145 0.34155873 -52.00399308 -0.301021 -50.5 -0.9375 C-49.6646875 -1.29714844 -48.829375 -1.65679687 -47.96875 -2.02734375 C-33.65362841 -6.71742964 -13.7309717 -6.00730012 0 0 Z " fill="#236699" transform="translate(957,5)"/>
<path d="M0 0 C0.33 0 0.66 0 1 0 C1.14285714 8.57142857 1.14285714 8.57142857 0 12 C-0.66 12 -1.32 12 -2 12 C-2 12.99 -2 13.98 -2 15 C15.82 15 33.64 15 52 15 C52.33 14.01 52.66 13.02 53 12 C53 13.32 53 14.64 53 16 C34.19 16 15.38 16 -4 16 C-3.32520054 11.95120325 -2.63595911 8.48091191 -1.4375 4.625 C-1.16808594 3.75101563 -0.89867187 2.87703125 -0.62109375 1.9765625 C-0.41613281 1.32429687 -0.21117187 0.67203125 0 0 Z " fill="#2D6EA2" transform="translate(942,200)"/>
<path d="M0 0 C0.81533203 -0.00531738 1.63066406 -0.01063477 2.47070312 -0.01611328 C8.04796713 0.04855394 13.17072435 0.90388148 18.5625 2.3125 C18.5625 2.6425 18.5625 2.9725 18.5625 3.3125 C17.57330566 3.30726318 16.58411133 3.30202637 15.56494141 3.29663086 C11.90105084 3.27855477 8.23716423 3.26705842 4.57324219 3.25756836 C2.98632139 3.25253412 1.39940523 3.24570631 -0.1875 3.23706055 C-2.46615749 3.22495518 -4.74475376 3.21926267 -7.0234375 3.21484375 C-7.73494965 3.20968246 -8.44646179 3.20452118 -9.17953491 3.19920349 C-12.93343556 3.13935242 -12.93343556 3.13935242 -16.4375 4.3125 C-19.1098621 4.44665472 -21.76000488 4.35568541 -24.4375 4.3125 C-24.4375 4.9725 -24.4375 5.6325 -24.4375 6.3125 C-27.4075 5.8175 -27.4075 5.8175 -30.4375 5.3125 C-21.65558906 0.26290121 -9.89816577 0.03151101 0 0 Z " fill="#16578B" transform="translate(698.4375,-0.31250000000000006)"/>
<path d="M0 0 C3.2910841 3.60957611 4.54663921 6.12637153 5 11 C5.66 11 6.32 11 7 11 C7.33 12.98 7.66 14.96 8 17 C8.66 17 9.32 17 10 17 C10 17.99 10 18.98 10 20 C10.66 20 11.32 20 12 20 C12 28.58 12 37.16 12 46 C11.67 46 11.34 46 11 46 C10.98582031 44.79085937 10.97164063 43.58171875 10.95703125 42.3359375 C10.58992723 27.03523009 7.80278953 15.26054944 -2 3 C-1.34 2.67 -0.68 2.34 0 2 C0 1.34 0 0.68 0 0 Z " fill="#23689C" transform="translate(313,40)"/>
<path d="M0 0 C-2.94654542 2.94654542 -6.46581506 2.95495275 -10.4375 3.5625 C-11.66593628 3.75646362 -11.66593628 3.75646362 -12.91918945 3.9543457 C-24.02316781 5.66880961 -34.78045668 6.13626976 -46 6 C-46 5.67 -46 5.34 -46 5 C-36.85705205 3.50996727 -27.71217957 2.34158843 -18.5 1.375 C-17.26507812 1.2409375 -16.03015625 1.106875 -14.7578125 0.96875 C-4.85315451 -0.08402276 -4.85315451 -0.08402276 0 0 Z " fill="#9A2431" transform="translate(970,230)"/>
<path d="M0 0 C0.66 0 1.32 0 2 0 C2 10.56 2 21.12 2 32 C2.99 32.33 3.98 32.66 5 33 C3.625 35 3.625 35 2 37 C1.34 37 0.68 37 0 37 C0 24.79 0 12.58 0 0 Z " fill="#02162D" transform="translate(442,5)"/>
<path d="M0 0 C0.96550781 0.00451172 1.93101562 0.00902344 2.92578125 0.01367188 C5.28392089 0.02534583 7.64192602 0.04171979 10 0.0625 C10 0.3925 10 0.7225 10 1.0625 C8.44273193 1.19096313 8.44273193 1.19096313 6.85400391 1.32202148 C2.95874957 1.64358238 -0.93640971 1.96628272 -4.83154297 2.28930664 C-6.50925209 2.4282837 -8.18698598 2.56696217 -9.86474609 2.70532227 C-12.29271115 2.90560408 -14.72060087 3.10676132 -17.1484375 3.30859375 C-18.32453079 3.40635353 -18.32453079 3.40635353 -19.52438354 3.50608826 C-23.63541295 3.8515389 -27.74046106 4.22671195 -31.84375 4.65625 C-36.25730319 5.11363032 -40.56416687 5.1340457 -45 5.0625 C-41.74469192 3.37823191 -38.49529294 2.17463866 -35 1.0625 C-34.67 1.3925 -34.34 1.7225 -34 2.0625 C-31.64342379 1.9971221 -29.28874237 1.85892063 -26.9375 1.6875 C-25.64714844 1.59726563 -24.35679687 1.50703125 -23.02734375 1.4140625 C-20.38643258 1.20563671 -17.82140091 0.89689172 -15.19140625 0.52734375 C-10.13422827 -0.13021917 -5.09124061 -0.04564561 0 0 Z " fill="#290104" transform="translate(914,234.9375)"/>
<path d="M0 0 C1.24303616 3.59099336 0.68116015 6.31668957 0 10 C3.95121228 9.88182083 7.90218229 9.75757767 11.85302734 9.62768555 C13.85894807 9.56301749 15.86502228 9.50316894 17.87109375 9.44335938 C19.75634766 9.38051758 19.75634766 9.38051758 21.6796875 9.31640625 C22.84226074 9.27974854 24.00483398 9.24309082 25.20263672 9.20532227 C27.9535501 9.18178341 27.9535501 9.18178341 30 8 C30.33 7.01 30.66 6.02 31 5 C34.0625 3.8125 34.0625 3.8125 37 3 C36.4376049 6.26189156 35.5859495 7.91134848 33 10 C29.4937557 11.1687481 26.3522134 11.12514267 22.70703125 11.09765625 C21.64798836 11.09553383 21.64798836 11.09553383 20.56755066 11.09336853 C18.31582374 11.08777764 16.06419679 11.07522688 13.8125 11.0625 C12.28450665 11.05748382 10.75651173 11.05292112 9.22851562 11.04882812 C5.48563865 11.0378112 1.74283627 11.02055287 -2 11 C-1.125 3.375 -1.125 3.375 0 0 Z " fill="#2A6A9B" transform="translate(395,205)"/>
<path d="M0 0 C0.33 0 0.66 0 1 0 C1.07465394 4.14425088 1.12883721 8.28813624 1.16479492 12.43286133 C1.17979877 13.84015734 1.20020863 15.24740724 1.22631836 16.65454102 C1.26307665 18.68777907 1.27980984 20.72039432 1.29296875 22.75390625 C1.3086792 23.97408447 1.32438965 25.1942627 1.34057617 26.45141602 C0.94084739 30.61633208 -0.20882324 33.24125358 -2 37 C-2.37308631 38.32276056 -2.73046415 39.65232077 -3 41 C-3.66 41 -4.32 41 -5 41 C-4.88406494 40.29093506 -4.76812988 39.58187012 -4.64868164 38.85131836 C-1.49203422 19.51527852 -1.49203422 19.51527852 0 0 Z " fill="#24699E" transform="translate(748,109)"/>
<path d="M0 0 C16.83 0 33.66 0 51 0 C51 0.33 51 0.66 51 1 C34.83 1 18.66 1 2 1 C2.66 4.63 3.32 8.26 4 12 C3.01 11.34 2.02 10.68 1 10 C0.67 6.7 0.34 3.4 0 0 Z " fill="#012847" transform="translate(391,4)"/>
<path d="M0 0 C4.08378283 0.74250597 8.01939223 1.82923301 12 3 C12 3.66 12 4.32 12 5 C24.375 4.505 24.375 4.505 37 4 C35 7 35 7 33.12744141 7.40405273 C32.37640137 7.41380127 31.62536133 7.4235498 30.8515625 7.43359375 C30.01616943 7.44479248 29.18077637 7.45599121 28.32006836 7.4675293 C27.4306958 7.45761963 26.54132324 7.44770996 25.625 7.4375 C24.72338135 7.43210205 23.8217627 7.4267041 22.89282227 7.42114258 C15.39090745 7.25108752 7.0036018 6.62312992 1.19140625 1.36328125 C0.79824219 0.91339844 0.40507813 0.46351563 0 0 Z " fill="#041F3A" transform="translate(677,184)"/>
<path d="M0 0 C1.485 0.99 1.485 0.99 3 2 C4.21542227 8.17335225 4.13199076 14.35166626 4.09765625 20.625 C4.0962413 21.61250244 4.09482635 22.60000488 4.09336853 23.61743164 C4.08780927 26.74498636 4.07526446 29.87246723 4.0625 33 C4.05747973 35.13150938 4.05291775 37.26301988 4.04882812 39.39453125 C4.03785322 44.596379 4.02115612 49.79818422 4 55 C3.67 55 3.34 55 3 55 C2.96241577 53.46629761 2.96241577 53.46629761 2.92407227 51.90161133 C2.82867037 48.04540102 2.72879495 44.18931648 2.62768555 40.33325195 C2.58483117 38.67605568 2.5431306 37.01882909 2.50268555 35.36157227 C2.13799558 17.60607261 2.13799558 17.60607261 0 0 Z " fill="#000E23" transform="translate(356,61)"/>
<path d="M0 0 C1.83111328 -0.03867187 1.83111328 -0.03867187 3.69921875 -0.078125 C7.60709232 0.27675217 9.99137174 1.19856845 13.3125 3.25 C13.6425 3.91 13.9725 4.57 14.3125 5.25 C13.65894531 5.08886719 13.00539063 4.92773438 12.33203125 4.76171875 C8.5463621 4.12016292 4.82725326 4.0658661 1 4.0625 C0.27876953 4.05025391 -0.44246094 4.03800781 -1.18554688 4.02539062 C-6.33145477 4.01154513 -10.7388815 4.83531019 -15.6875 6.25 C-15.3575 5.26 -15.0275 4.27 -14.6875 3.25 C-12.37720915 2.50740651 -10.041748 1.838562 -7.6875 1.25 C-5.77919972 -0.65830028 -2.53976111 0.03184653 0 0 Z " fill="#23699E" transform="translate(283.6875,27.75)"/>
<path d="M0 0 C7.59 0 15.18 0 23 0 C22.09535113 4.52324437 21.2819132 6.25766235 19 10 C18.28856912 11.98451771 17.61008664 13.98202112 17 16 C15.85179456 12.55538369 16.18684082 11.74581478 17.375 8.4375 C17.65085938 7.65246094 17.92671875 6.86742187 18.2109375 6.05859375 C19 4 19 4 20 2 C13.73 2 7.46 2 1 2 C0.67 1.34 0.34 0.68 0 0 Z " fill="#8E1822" transform="translate(182,0)"/>
<path d="M0 0 C-2.65338341 2.65338341 -5.01451446 3.01040225 -8.625 4 C-10.40777344 4.495 -10.40777344 4.495 -12.2265625 5 C-13.47179687 5.33 -14.71703125 5.66 -16 6 C-17.21429688 6.36867187 -18.42859375 6.73734375 -19.6796875 7.1171875 C-25.21805115 8.49002467 -30.83171627 8.21314317 -36.5 8.125 C-37.60859375 8.11597656 -38.7171875 8.10695312 -39.859375 8.09765625 C-42.57314592 8.07426167 -45.28645545 8.04148175 -48 8 C-48 7.67 -48 7.34 -48 7 C-46.84886719 6.97421875 -45.69773437 6.9484375 -44.51171875 6.921875 C-29.90956121 6.45308355 -13.8464897 -0.79122798 0 0 Z " fill="#011933" transform="translate(344,179)"/>
<path d="M0 0 C1 3 1 3 0 6 C-0.66 6 -1.32 6 -2 6 C-2.1546875 7.051875 -2.1546875 7.051875 -2.3125 8.125 C-3.0966998 11.404381 -4.46984125 14.00088885 -6 17 C-6.309375 18.010625 -6.61875 19.02125 -6.9375 20.0625 C-8.12018422 23.33227401 -9.74495309 25.38123584 -12 28 C-12.33 28.66 -12.66 29.32 -13 30 C-13.66 30 -14.32 30 -15 30 C-13.50829734 25.0276578 -11.39542583 20.58154261 -9 16 C-8.34 16 -7.68 16 -7 16 C-6.773125 14.845 -6.54625 13.69 -6.3125 12.5 C-5.14142918 7.71314117 -2.79392225 4.00959834 0 0 Z " fill="#A42634" transform="translate(107,96)"/>
<path d="M0 0 C0.33 0 0.66 0 1 0 C0.03644647 9.41002278 0.03644647 9.41002278 -1 14 C2.465 13.505 2.465 13.505 6 13 C3.60490662 15.89932357 1.68754757 16.50168276 -2 17 C-2 17.66 -2 18.32 -2 19 C-3.65 19.33 -5.3 19.66 -7 20 C-5.07443364 13.14381674 -2.7527517 6.56747868 0 0 Z " fill="#9F2331" transform="translate(10,40)"/>
<path d="M0 0 C0.33 0.66 0.66 1.32 1 2 C-0.49786883 5.51999175 -1.94585316 8.60979813 -5 11 C-5.66 11 -6.32 11 -7 11 C-7.433125 11.928125 -7.433125 11.928125 -7.875 12.875 C-9 15 -9 15 -11 17 C-11.99 17 -12.98 17 -14 17 C-14.33 17.99 -14.66 18.98 -15 20 C-16.32 19.67 -17.64 19.34 -19 19 C-18.21496094 18.29875 -17.42992187 17.5975 -16.62109375 16.875 C-10.69794032 11.54095715 -5.04454319 6.19910414 0 0 Z " fill="#216192" transform="translate(732,170)"/>
<path d="M0 0 C0.33 0 0.66 0 1 0 C3.52136116 12.94448812 3.90177728 25.92528118 2 39 C1.67 39 1.34 39 1 39 C-0.19388403 12.0423526 -0.19388403 12.0423526 0 0 Z " fill="#031830" transform="translate(745,94)"/>
<path d="M0 0 C9.73897804 -0.33907467 19.43386718 -0.09337627 28 5 C28 5.33 28 5.66 28 6 C25.66705225 6.04241723 23.33297433 6.04092937 21 6 C20.67 5.67 20.34 5.34 20 5 C18.02490127 4.7905639 16.04428318 4.63196178 14.0625 4.5 C8.22008253 4.11004127 8.22008253 4.11004127 6 3 C6 2.34 6 1.68 6 1 C4.02 1 2.04 1 0 1 C0 0.67 0 0.34 0 0 Z " fill="#20659B" transform="translate(288,1)"/>
<path d="M0 0 C0.33 0 0.66 0 1 0 C1.17942163 3.94727588 1.09350689 6.5980513 -1 10 C-1.66 10 -2.32 10 -3 10 C-3 11.98 -3 13.96 -3 16 C-3.66 16 -4.32 16 -5 16 C-5.144375 17.2375 -5.28875 18.475 -5.4375 19.75 C-5.78688502 22.56504499 -6.20379366 25.2701497 -7 28 C-7.66 28 -8.32 28 -9 28 C-8.22676536 17.94794965 -4.75373091 8.8283574 0 0 Z " fill="#246A9E" transform="translate(212,48)"/>
<path d="M0 0 C4.4735844 0.32535159 8.01673807 0.85115153 12.0625 2.8125 C18.39020603 5.85380941 25.21435338 7.31923378 32 9 C27.65862673 10.32928629 24.11857861 9.37860663 19.8125 8.3125 C19.05380615 8.12896973 18.2951123 7.94543945 17.51342773 7.75634766 C4.48118528 4.48118528 4.48118528 4.48118528 0 0 Z " fill="#23689B" transform="translate(248,209)"/>
<path d="M0 0 C0.33 0 0.66 0 1 0 C1.02898097 4.10415189 1.0467922 8.20827753 1.0625 12.3125 C1.07087891 13.47974609 1.07925781 14.64699219 1.08789062 15.84960938 C1.09111328 16.96787109 1.09433594 18.08613281 1.09765625 19.23828125 C1.10289307 20.26993408 1.10812988 21.30158691 1.11352539 22.36450195 C1 25 1 25 0 28 C-0.66 28 -1.32 28 -2 28 C-1.67 30.97 -1.34 33.94 -1 37 C-1.99 36.67 -2.98 36.34 -4 36 C-3.53243513 31.24642377 -2.95040828 26.61861541 -2 21.9375 C-0.6160168 14.68708056 -0.35083615 7.35832652 0 0 Z " fill="#226397" transform="translate(400,168)"/>
<path d="M0 0 C0 0.33 0 0.66 0 1 C-12.65336943 3.3730221 -25.11165551 5.59278532 -38 6 C-35.04496433 4.32976245 -32.68683399 3.69963834 -29.3125 3.4375 C-26.35818712 3.40493693 -26.35818712 3.40493693 -24 2 C-16.00369193 0.14007775 -8.17889867 -0.26102868 0 0 Z " fill="#290304" transform="translate(1008,223)"/>
<path d="M0 0 C0.66 0 1.32 0 2 0 C-0.11220927 8.73686561 -2.4853638 17.37109608 -5 26 C-6.23853632 22.38905609 -5.79209453 19.59428048 -5.125 15.875 C-4.85042969 14.29332031 -4.85042969 14.29332031 -4.5703125 12.6796875 C-4 10 -4 10 -3 8 C-2.34 8 -1.68 8 -1 8 C-1 6.68 -1 5.36 -1 4 C-1.66 4 -2.32 4 -3 4 C-3 4.66 -3 5.32 -3 6 C-4.65 6 -6.3 6 -8 6 C-3.375 2 -3.375 2 0 2 C0 1.34 0 0.68 0 0 Z " fill="#972130" transform="translate(1056,206)"/>
<path d="M0 0 C2.01278414 3.01917621 2.29192943 4.04590762 2.5625 7.5 C2.78944318 10.27889602 3.10751754 12.32255263 4 15 C4.30698862 18.38540224 4.50904595 21.77135062 4.71875 25.1640625 C4.68740332 27.89869363 4.68740332 27.89869363 6 29 C6.45459858 31.65463121 6.70243238 34.32189138 7 37 C6.34 37 5.68 37 5 37 C4.34922827 33.83432793 3.7053016 30.66729923 3.0625 27.5 C2.88009766 26.613125 2.69769531 25.72625 2.50976562 24.8125 C1.11398264 17.90971867 -0.17302214 11.073417 -0.0625 4 C-0.05347656 3.236875 -0.04445313 2.47375 -0.03515625 1.6875 C-0.02355469 1.130625 -0.01195312 0.57375 0 0 Z " fill="#010F20" transform="translate(443,171)"/>
<path d="M0 0 C1.00289063 -0.01611328 2.00578125 -0.03222656 3.0390625 -0.04882812 C9.28524337 -0.05291594 13.92559356 0.73484482 19.625 3.3125 C19.295 3.9725 18.965 4.6325 18.625 5.3125 C18.05394531 5.0959375 17.48289062 4.879375 16.89453125 4.65625 C5.42825125 0.71870393 -5.65052409 2.16333257 -17.375 4.3125 C-17.375 3.6525 -17.375 2.9925 -17.375 2.3125 C-11.63172472 -0.14750358 -6.1346371 -0.01956198 0 0 Z " fill="#276A9E" transform="translate(484.375,38.6875)"/>
<path d="M0 0 C0.90234375 -0.01224609 1.8046875 -0.02449219 2.734375 -0.03710938 C3.60578125 -0.03904297 4.4771875 -0.04097656 5.375 -0.04296875 C6.16648437 -0.04707764 6.95796875 -0.05118652 7.7734375 -0.05541992 C10 0.1875 10 0.1875 14 2.1875 C-1.345 2.6825 -1.345 2.6825 -17 3.1875 C-11.56643884 -0.43487411 -6.34540331 0.00453243 0 0 Z " fill="#164D7D" transform="translate(502,-0.1875)"/>
<path d="M0 0 C4.04444923 4.04444923 4.12581064 9.26072998 4.1953125 14.71484375 C4.18214228 16.7891531 4.15847369 18.86341894 4.125 20.9375 C4.11597656 22.00291016 4.10695313 23.06832031 4.09765625 24.16601562 C4.07423414 26.77758034 4.04143452 29.38866937 4 32 C3.67 32 3.34 32 3 32 C2.01 21.44 1.02 10.88 0 0 Z " fill="#256BA1" transform="translate(826,32)"/>
<path d="M0 0 C16.52684776 0.40113708 16.52684776 0.40113708 24 5 C25.32219366 5.3750904 26.65461752 5.71922453 28 6 C28 6.66 28 7.32 28 8 C18.66666667 5.66666667 9.33333333 3.33333333 0 1 C0 0.67 0 0.34 0 0 Z " fill="#051D36" transform="translate(712,1)"/>
<path d="M0 0 C0 0.33 0 0.66 0 1 C-22.80127986 4.58165209 -22.80127986 4.58165209 -32 4 C-32 3.67 -32 3.34 -32 3 C-21.13479671 0.06534702 -11.17434943 -0.34207192 0 0 Z " fill="#280103" transform="translate(970,229)"/>
<path d="M0 0 C1.43088528 2.86177057 0.59991697 4.93375773 0 8 C-0.66 8 -1.32 8 -2 8 C-2.33 9.65 -2.66 11.3 -3 13 C-9.43028541 14.32388229 -15.4294834 15.24794402 -22 15 C-22 14.67 -22 14.34 -22 14 C-20.74703125 13.82726562 -19.4940625 13.65453125 -18.203125 13.4765625 C-9.11219375 12.39307631 -9.11219375 12.39307631 -1.9140625 7.5078125 C-0.95908146 4.97316359 -0.31784193 2.68627695 0 0 Z " fill="#051E36" transform="translate(342,204)"/>
<path d="M0 0 C1.12263188 3.7765796 0.68364724 5.44357535 -0.9375 9.0625 C-2.63008832 12.87580784 -2.63008832 12.87580784 -3 17 C-4.375 18.6875 -4.375 18.6875 -6 20 C-6.66 20 -7.32 20 -8 20 C-8 20.66 -8 21.32 -8 22 C-8.66 22 -9.32 22 -10 22 C-8.4719611 16.90117545 -6.28963144 12.34334341 -3.875 7.625 C-3.50246094 6.88894531 -3.12992187 6.15289062 -2.74609375 5.39453125 C-1.8343878 3.59449642 -0.91770068 1.79698598 0 0 Z " fill="#961F2E" transform="translate(74,160)"/>
<path d="M0 0 C0.33 0 0.66 0 1 0 C1.05391993 1.79133978 1.09275571 3.58313899 1.125 5.375 C1.14820313 6.37273437 1.17140625 7.37046875 1.1953125 8.3984375 C1 11 1 11 -1 13 C-1.33 14.175625 -1.66 15.35125 -2 16.5625 C-2.495 18.2640625 -2.495 18.2640625 -3 20 C-3.66 20.33 -4.32 20.66 -5 21 C-4.42351925 13.64987044 -2.28953836 6.98575424 0 0 Z " fill="#260205" transform="translate(1057,208)"/>
<path d="M0 0 C6.69201579 3.82400902 11.75331477 7.8572925 15 15 C14.67 15.66 14.34 16.32 14 17 C10.94433539 14.03693129 8.02864172 10.98279839 5.1875 7.8125 C4.58292969 7.13832031 3.97835937 6.46414062 3.35546875 5.76953125 C2 4 2 4 2 2 C1.34 2 0.68 2 0 2 C0 1.34 0 0.68 0 0 Z " fill="#296FA6" transform="translate(534,10)"/>
<path d="M0 0 C0.33 0 0.66 0 1 0 C1.39782446 11.08014794 0.41706541 21.18075485 -2 32 C-2.66 32 -3.32 32 -4 32 C-3.88556397 29.9160597 -3.75804453 27.83283507 -3.625 25.75 C-3.55539062 24.58984375 -3.48578125 23.4296875 -3.4140625 22.234375 C-3 19 -3 19 -2 17.0625 C-0.48080715 13.92916475 -0.5302256 10.67143099 -0.375 7.25 C-0.33632813 6.55261719 -0.29765625 5.85523438 -0.2578125 5.13671875 C-0.16401376 3.42489182 -0.08093826 1.71248318 0 0 Z " fill="#246DA6" transform="translate(830,168)"/>
<path d="M0 0 C1 2 1 2 0.47094727 3.87939453 C0.17244873 4.62302246 -0.1260498 5.36665039 -0.43359375 6.1328125 C-0.75263672 6.93847656 -1.07167969 7.74414062 -1.40039062 8.57421875 C-1.91375977 9.83685547 -1.91375977 9.83685547 -2.4375 11.125 C-2.77587891 11.97449219 -3.11425781 12.82398438 -3.46289062 13.69921875 C-4.30176957 15.80232371 -5.14771125 17.90230155 -6 20 C-6.33 20 -6.66 20 -7 20 C-7.1953125 13.9453125 -7.1953125 13.9453125 -7 12 C-6.34 11.34 -5.68 10.68 -5 10 C-4.1526187 7.69088595 -3.47578656 5.35525327 -2.78125 2.99609375 C-2 1 -2 1 0 0 Z " fill="#236597" transform="translate(350,182)"/>
<path d="M0 0 C1 2 1 2 -0.0625 5.375 C-2.32102882 11.09519915 -5.18688503 16.53764083 -8 22 C-8.66 22 -9.32 22 -10 22 C-8.4719611 16.90117545 -6.28963144 12.34334341 -3.875 7.625 C-3.50246094 6.88894531 -3.12992187 6.15289062 -2.74609375 5.39453125 C-1.8343878 3.59449642 -0.91770068 1.79698598 0 0 Z " fill="#8E2230" transform="translate(121,66)"/>
<path d="M0 0 C1.8871875 0.0309375 1.8871875 0.0309375 3.8125 0.0625 C0.72440305 1.82712683 -0.42062136 2.0625 -4.1875 2.0625 C-4.1875 2.7225 -4.1875 3.3825 -4.1875 4.0625 C-12.1075 3.7325 -20.0275 3.4025 -28.1875 3.0625 C-28.1875 2.7325 -28.1875 2.4025 -28.1875 2.0625 C-27.56705811 2.03744385 -26.94661621 2.0123877 -26.30737305 1.98657227 C-23.49637603 1.87053279 -20.68570759 1.74784241 -17.875 1.625 C-16.41030273 1.56602539 -16.41030273 1.56602539 -14.91601562 1.50585938 C-13.97822266 1.46396484 -13.04042969 1.42207031 -12.07421875 1.37890625 C-10.77810669 1.32391968 -10.77810669 1.32391968 -9.45581055 1.26782227 C-6.13843679 0.96754121 -3.38849264 -0.05554906 0 0 Z " fill="#021226" transform="translate(316.1875,218.9375)"/>
<path d="M0 0 C0 3.36238122 -0.67043383 4.56509516 -2.3125 7.4375 C-2.74175781 8.19933594 -3.17101562 8.96117187 -3.61328125 9.74609375 C-4.97166012 11.95393772 -6.32066659 14.02351912 -8 16 C-8.66 16 -9.32 16 -10 16 C-10.33 17.32 -10.66 18.64 -11 20 C-11.33 19.34 -11.66 18.68 -12 18 C-11.07421875 15.94140625 -11.07421875 15.94140625 -9.6875 13.5625 C-9.23761719 12.78003906 -8.78773438 11.99757813 -8.32421875 11.19140625 C-7.2614878 9.4327276 -6.13981749 7.70972623 -5 6 C-4.34 6 -3.68 6 -3 6 C-2.690625 5.195625 -2.38125 4.39125 -2.0625 3.5625 C-1 1 -1 1 0 0 Z " fill="#216291" transform="translate(225,28)"/>
<path d="M0 0 C0.33 0 0.66 0 1 0 C1 10.56 1 21.12 1 32 C1.99 32.33 2.98 32.66 4 33 C2.68 33.99 1.36 34.98 0 36 C0 24.12 0 12.24 0 0 Z " fill="#00061A" transform="translate(871,5)"/>
<path d="M0 0 C4.70999292 7.06498939 4.24577235 14.80758825 4 23 C1.60179572 19.40269358 1.33185865 16.24537795 0.875 12.0625 C0.78863281 11.34642578 0.70226562 10.63035156 0.61328125 9.89257812 C0.22440807 6.56246575 0 3.35761242 0 0 Z " fill="#206192" transform="translate(354,56)"/>
<path d="M0 0 C0.33 0 0.66 0 1 0 C1 2.64 1 5.28 1 8 C0.01 8 -0.98 8 -2 8 C-1.9175 8.7425 -1.835 9.485 -1.75 10.25 C-2.07105184 13.78157027 -3.35265617 14.76630364 -6 17 C-6.33 16.34 -6.66 15.68 -7 15 C-5.92591043 12.39525962 -4.79954367 9.90033962 -3.5625 7.375 C-3.22412109 6.66859375 -2.88574219 5.9621875 -2.53710938 5.234375 C-1.69845121 3.48618616 -0.85012153 1.74264314 0 0 Z " fill="#95202C" transform="translate(131,44)"/>
<path d="M0 0 C1 3 1 3 0 6 C-0.66 6 -1.32 6 -2 6 C-2.2475 6.78375 -2.495 7.5675 -2.75 8.375 C-4.33931493 12.98401329 -6.16207173 17.48547716 -8 22 C-8.66 22 -9.32 22 -10 22 C-10 20.68 -10 19.36 -10 18 C-9.34 18 -8.68 18 -8 18 C-7.896875 17.30390625 -7.79375 16.6078125 -7.6875 15.890625 C-6.88922694 12.53424962 -5.57190974 9.81824689 -4 6.75 C-3.195625 5.16445313 -3.195625 5.16445313 -2.375 3.546875 C-1 1 -1 1 0 0 Z " fill="#9C2330" transform="translate(183,42)"/>
<path d="M0 0 C4.88109444 0.47853867 7.89502965 1.39684807 12 4 C14.6395855 5.09241273 17.30717894 6.04153827 20 7 C15.9154674 8.72251754 12.63026304 7.07280563 8.75 5.5625 C8.1003125 5.31951172 7.450625 5.07652344 6.78125 4.82617188 C5.18383183 4.22714006 3.59139406 3.61485679 2 3 C2 2.34 2 1.68 2 1 C1.34 0.67 0.68 0.34 0 0 Z " fill="#24689D" transform="translate(648,210)"/>
<path d="M0 0 C1.43867515 4.31602545 -0.55098292 7.08741374 -2.375 11 C-3.02960535 12.43706331 -3.68328751 13.87454759 -4.3359375 15.3125 C-4.63032715 15.94800781 -4.9247168 16.58351563 -5.22802734 17.23828125 C-6.11015697 19.17861293 -6.11015697 19.17861293 -7 22 C-7.66 22 -8.32 22 -9 22 C-9.72945101 17.33151356 -7.86263324 14.91102512 -5.37890625 11.203125 C-3.16239434 7.66172919 -1.59600033 3.85179967 0 0 Z " fill="#A42433" transform="translate(198,10)"/>
<path d="M0 0 C0.70125 0.7425 1.4025 1.485 2.125 2.25 C4.92478751 5.09191836 4.92478751 5.09191836 8.3125 7.1875 C9.199375 7.785625 10.08625 8.38375 11 9 C11 9.66 11 10.32 11 11 C12.98 11.66 14.96 12.32 17 13 C14 14 14 14 10.75 12.4375 C6.92146875 10.07834109 2.87310416 7.49313575 0 4 C0 2.68 0 1.36 0 0 Z " fill="#25699C" transform="translate(261,168)"/>
<path d="M0 0 C3.39228531 4.27722931 4.12631248 7.26343886 4.0625 12.6875 C4.05347656 13.68136719 4.04445313 14.67523438 4.03515625 15.69921875 C4.02355469 16.45847656 4.01195312 17.21773437 4 18 C3.01 18 2.02 18 1 18 C1.01160156 17.14535156 1.02320313 16.29070312 1.03515625 15.41015625 C1.04417969 14.30542969 1.05320312 13.20070313 1.0625 12.0625 C1.07410156 10.96035156 1.08570313 9.85820313 1.09765625 8.72265625 C1.31262571 6.08552366 1.31262571 6.08552366 0 5 C-0.04063832 3.33382885 -0.042721 1.66611905 0 0 Z " fill="#04192F" transform="translate(512,54)"/>
<path d="M0 0 C0.66 0.33 1.32 0.66 2 1 C1.58427734 2.62808594 1.58427734 2.62808594 1.16015625 4.2890625 C0.7941437 5.73434281 0.4282654 7.17965712 0.0625 8.625 C-0.11990234 9.33785156 -0.30230469 10.05070312 -0.49023438 10.78515625 C-1.51316799 14.83969313 -2.37957367 18.85947059 -3 23 C-3.33 23 -3.66 23 -4 23 C-3.91218733 20.47765681 -3.80521993 17.9584835 -3.6875 15.4375 C-3.66494141 14.73302734 -3.64238281 14.02855469 -3.61914062 13.30273438 C-3.36252691 8.24044558 -2.23233598 4.55444419 0 0 Z " fill="#215D8C" transform="translate(247,53)"/>
<path d="M0 0 C0.99 0.33 1.98 0.66 3 1 C1.18690997 4.77727089 -0.9073259 8.37269822 -3 12 C-3.144375 11.401875 -3.28875 10.80375 -3.4375 10.1875 C-3.8872439 8.43849596 -4.42892341 6.71322977 -5 5 C-3.35 3.35 -1.7 1.7 0 0 Z " fill="#216EA9" transform="translate(253,41)"/>
<path d="M0 0 C-3.58291179 3.9810131 -8.16550114 6.76869284 -13 9 C-13 8.01 -13 7.02 -13 6 C-12.34 6 -11.68 6 -11 6 C-11 5.34 -11 4.68 -11 4 C-10.34 4 -9.68 4 -9 4 C-8.67 3.01 -8.34 2.02 -8 1 C-5.29120665 -0.35439668 -2.99066732 -0.06501451 0 0 Z " fill="#031428" transform="translate(245,11)"/>
<path d="M0 0 C0.33 0 0.66 0 1 0 C1.125 5.75 1.125 5.75 0 8 C-0.66 8 -1.32 8 -2 8 C-2.33 9.65 -2.66 11.3 -3 13 C-3.66 13 -4.32 13 -5 13 C-5 13.66 -5 14.32 -5 15 C-5.66 15 -6.32 15 -7 15 C-5.63408831 11.45756548 -4.09068516 8.07372071 -2.375 4.6875 C-1.70597656 3.36298828 -1.70597656 3.36298828 -1.0234375 2.01171875 C-0.68570312 1.34785156 -0.34796875 0.68398437 0 0 Z " fill="#9A202F" transform="translate(29,248)"/>
<path d="M0 0 C1.66842534 0.32441604 3.33480481 0.65939189 5 1 C5.721875 1.144375 6.44375 1.28875 7.1875 1.4375 C9 2 9 2 11 4 C11.53625 4.495 12.0725 4.99 12.625 5.5 C14 7 14 7 14 9 C14.66 9 15.32 9 16 9 C15.67 9.66 15.34 10.32 15 11 C14.25234375 10.44570313 13.5046875 9.89140625 12.734375 9.3203125 C11.74953125 8.59585937 10.7646875 7.87140625 9.75 7.125 C8.77546875 6.40570312 7.8009375 5.68640625 6.796875 4.9453125 C4.56097846 3.39017775 2.47127507 2.11795777 0 1 C0 0.67 0 0.34 0 0 Z " fill="#031529" transform="translate(316,6)"/>
<path d="M0 0 C6.38263338 0.4162587 11.55804099 2.65350796 17 6 C17.33 6.66 17.66 7.32 18 8 C15.03 7.505 15.03 7.505 12 7 C12 6.34 12 5.68 12 5 C11.319375 4.87625 10.63875 4.7525 9.9375 4.625 C6.5722588 3.90899123 3.29986575 2.97054875 0 2 C0 1.34 0 0.68 0 0 Z " fill="#246599" transform="translate(516,2)"/>
<path d="M0 0 C0.33 0 0.66 0 1 0 C1.36666667 7.33333333 1.36666667 7.33333333 -0.375 10.5 C-2 12 -2 12 -4 12 C-4.33 12.99 -4.66 13.98 -5 15 C-5.33 14.34 -5.66 13.68 -6 13 C-5.10333658 10.75689987 -4.10853317 8.55245679 -3.0625 6.375 C-2.49660156 5.18648437 -1.93070312 3.99796875 -1.34765625 2.7734375 C-0.90292969 1.85820313 -0.45820312 0.94296875 0 0 Z " fill="#911E2C" transform="translate(91,126)"/>
<path d="M0 0 C0.53625 0.2475 1.0725 0.495 1.625 0.75 C0.33534824 2.12562854 -1.00189293 3.45766393 -2.375 4.75 C-3.035 4.75 -3.695 4.75 -4.375 4.75 C-4.375 5.41 -4.375 6.07 -4.375 6.75 C-6.685 7.08 -8.995 7.41 -11.375 7.75 C-11.045 7.09 -10.715 6.43 -10.375 5.75 C-9.715 5.75 -9.055 5.75 -8.375 5.75 C-8.375 5.09 -8.375 4.43 -8.375 3.75 C-3.23290173 -0.34030544 -3.23290173 -0.34030544 0 0 Z " fill="#1F6499" transform="translate(648.375,13.25)"/>
<path d="M0 0 C0.625 1.8125 0.625 1.8125 1 4 C0.01 5.485 0.01 5.485 -1 7 C-0.34 7.33 0.32 7.66 1 8 C0.195625 8.763125 -0.60875 9.52625 -1.4375 10.3125 C-4.16799024 12.79430898 -4.16799024 12.79430898 -5 16 C-5.66 16 -6.32 16 -7 16 C-5.25 9.25 -5.25 9.25 -3 7 C-1.96157435 4.68351201 -0.9578025 2.35096976 0 0 Z " fill="#300307" transform="translate(118,176)"/>
<path d="M0 0 C4.52615993 3.67832017 8.39424999 7.41086363 12 12 C9.03 11.505 9.03 11.505 6 11 C6.33 10.01 6.66 9.02 7 8 C5.68 7.34 4.36 6.68 3 6 C3 5.34 3 4.68 3 4 C1.68 4.33 0.36 4.66 -1 5 C-0.67 3.35 -0.34 1.7 0 0 Z " fill="#22669B" transform="translate(660,170)"/>
<path d="M0 0 C0.66 0 1.32 0 2 0 C2.84378975 2.05824429 3.67463622 4.12179786 4.5 6.1875 C4.9640625 7.33605469 5.428125 8.48460937 5.90625 9.66796875 C6.90805652 12.71990077 7.23870804 14.83115072 7 18 C4.4345406 15.4345406 4.45953913 13.52313332 4 10 C3.34 10 2.68 10 2 10 C1.34 6.7 0.68 3.4 0 0 Z " fill="#011228" transform="translate(643,134)"/>
<path d="M0 0 C0.33 0 0.66 0 1 0 C1.1875 3.375 1.1875 3.375 1 7 C0.01 7.66 -0.98 8.32 -2 9 C-2.33 9.99 -2.66 10.98 -3 12 C-3.66 12 -4.32 12 -5 12 C-5.33 12.99 -5.66 13.98 -6 15 C-6.33 14.34 -6.66 13.68 -7 13 C-5.8203125 10.46875 -5.8203125 10.46875 -4.125 7.5 C-3.57070313 6.5203125 -3.01640625 5.540625 -2.4453125 4.53125 C-1.96835937 3.6959375 -1.49140625 2.860625 -1 2 C-0.67 1.34 -0.34 0.68 0 0 Z " fill="#205E8E" transform="translate(612,48)"/>
<path d="M0 0 C1.4540625 0.0309375 1.4540625 0.0309375 2.9375 0.0625 C-7.16776316 8.0625 -7.16776316 8.0625 -11.0625 8.0625 C-10.9375 6.25 -10.9375 6.25 -10.0625 4.0625 C-7.0625 2.375 -7.0625 2.375 -4.0625 1.0625 C-3.0625 0.0625 -3.0625 0.0625 0 0 Z " fill="#000816" transform="translate(653.0625,7.9375)"/>
<path d="M0 0 C-5.24749603 2.62374802 -8.08847633 3.09534716 -14 3 C-14 3.66 -14 4.32 -14 5 C-16.97 4.505 -16.97 4.505 -20 4 C-13.67546278 0.31068662 -7.12737257 -0.25454902 0 0 Z " fill="#215F8E" transform="translate(688,1)"/>
<path d="M0 0 C1.0390625 1.8828125 1.0390625 1.8828125 2 4 C1.375 5.875 1.375 5.875 0 8 C-0.66 9.0725 -1.32 10.145 -2 11.25 C-2.66 12.1575 -3.32 13.065 -4 14 C-4.66 14 -5.32 14 -6 14 C-4.50829734 9.0276578 -2.39542583 4.58154261 0 0 Z " fill="#951E2B" transform="translate(98,112)"/>
<path d="M0 0 C1.890625 0.58984375 1.890625 0.58984375 4 2 C6.62974921 9.38881028 7.40304296 17.20783614 7 25 C6.67 25 6.34 25 6 25 C5.85304688 23.54980469 5.85304688 23.54980469 5.703125 22.0703125 C4.79084706 14.12720287 3.52734032 7.27727979 0 0 Z " fill="#216091" transform="translate(939,51)"/>
<path d="M0 0 C1.4783226 2.95664519 1.06032783 5.74229737 1 9 C1.66 9.33 2.32 9.66 3 10 C0.69 10 -1.62 10 -4 10 C-3.43454163 6.04179141 -2.19097652 3.3340947 0 0 Z " fill="#9D1D29" transform="translate(4,295)"/>
<path d="M0 0 C-2 3 -2 3 -4.2421875 3.765625 C-5.54542969 4.00539063 -5.54542969 4.00539063 -6.875 4.25 C-7.73867188 4.42015625 -8.60234375 4.5903125 -9.4921875 4.765625 C-11.97633196 4.99778803 -13.64619994 4.76635351 -16 4 C-14.08959948 3.1319092 -12.17139263 2.28098217 -10.25 1.4375 C-9.18265625 0.96183594 -8.1153125 0.48617187 -7.015625 -0.00390625 C-4.01630163 -0.9946154 -2.86578759 -1.16161779 0 0 Z " fill="#300408" transform="translate(32,49)"/>
<path d="M0 0 C0.99 0.33 1.98 0.66 3 1 C3 1.99 3 2.98 3 4 C2.34 4 1.68 4 1 4 C1.33 5.65 1.66 7.3 2 9 C0.02 8.01 -1.96 7.02 -4 6 C-4 4 -4 4 -2 1.875 C-1.34 1.25625 -0.68 0.6375 0 0 Z " fill="#1F6EA9" transform="translate(508,40)"/>
<path d="M0 0 C5.61 0 11.22 0 17 0 C17 0.33 17 0.66 17 1 C11.72 1.66 6.44 2.32 1 3 C0.67 2.01 0.34 1.02 0 0 Z " fill="#020B1B" transform="translate(260,0)"/>
<path d="M0 0 C0.66 0.66 1.32 1.32 2 2 C1.625 4.125 1.625 4.125 1 6 C-0.0725 6.144375 -1.145 6.28875 -2.25 6.4375 C-4.91662949 6.83749442 -7.41399729 7.27591924 -10 8 C-9.67 7.01 -9.34 6.02 -9 5 C-4.545 4.505 -4.545 4.505 0 4 C0 2.68 0 1.36 0 0 Z " fill="#2B6CAB" transform="translate(444,200)"/>
<path d="M0 0 C-0.99 1.485 -0.99 1.485 -2 3 C-2.66 3 -3.32 3 -4 3 C-4.28875 3.61875 -4.5775 4.2375 -4.875 4.875 C-6 7 -6 7 -8 9 C-8.1875 5.625 -8.1875 5.625 -8 2 C-4.77208445 -0.1519437 -3.71599191 -0.20086443 0 0 Z " fill="#236CA3" transform="translate(660,41)"/>
<path d="M0 0 C0.66 0 1.32 0 2 0 C1.65697965 5.98511371 1.17692157 10.75117306 -2 16 C-3.3805087 12.23331402 -2.59568159 9.55210827 -1.5625 5.75 C-1.27503906 4.67234375 -0.98757813 3.5946875 -0.69140625 2.484375 C-0.46324219 1.66453125 -0.23507812 0.8446875 0 0 Z " fill="#360507" transform="translate(1042,256)"/>
<path d="M0 0 C-0.66 1.98 -1.32 3.96 -2 6 C-2.33 5.34 -2.66 4.68 -3 4 C-7.455 4.495 -7.455 4.495 -12 5 C-8.51164396 2.04831412 -4.66588377 0 0 0 Z " fill="#236394" transform="translate(354,176)"/>
<path d="M0 0 C0.33 0 0.66 0 1 0 C1.50449402 2.58252893 2.00374301 5.16588703 2.5 7.75 C2.71462891 8.84441406 2.71462891 8.84441406 2.93359375 9.9609375 C3.58888879 13.39343532 4 16.49169491 4 20 C3.34 20 2.68 20 2 20 C0.74158054 13.25846717 -0.26404456 6.86515862 0 0 Z " fill="#23679C" transform="translate(241,116)"/>
<path d="M0 0 C1.16161779 2.86578759 0.9946154 4.01630163 0.00390625 7.015625 C-0.70958984 8.61664063 -0.70958984 8.61664063 -1.4375 10.25 C-1.91058594 11.32765625 -2.38367188 12.4053125 -2.87109375 13.515625 C-3.24363281 14.33546875 -3.61617187 15.1553125 -4 16 C-4.66 16 -5.32 16 -6 16 C-4.25192871 10.53262809 -2.34205919 5.24175152 0 0 Z " fill="#350507" transform="translate(146,118)"/>
<path d="M0 0 C1 2 1 2 0.44140625 3.9453125 C0.15136719 4.66460937 -0.13867188 5.38390625 -0.4375 6.125 C-0.72496094 6.84945312 -1.01242188 7.57390625 -1.30859375 8.3203125 C-1.53675781 8.87460938 -1.76492187 9.42890625 -2 10 C-2.66 10 -3.32 10 -4 10 C-4.66 11.98 -5.32 13.96 -6 16 C-7 13 -7 13 -5.8203125 10.1171875 C-5.26085938 9.04726562 -4.70140625 7.97734375 -4.125 6.875 C-3.57070313 5.79992187 -3.01640625 4.72484375 -2.4453125 3.6171875 C-1 1 -1 1 0 0 Z " fill="#250102" transform="translate(62,182)"/>
<path d="M0 0 C2.39763185 2.39763185 2.34280586 3.33273498 2.625 6.625 C2.69976563 7.44226563 2.77453125 8.25953125 2.8515625 9.1015625 C2.90054688 9.72804687 2.94953125 10.35453125 3 11 C3.66 11 4.32 11 5 11 C5 12.65 5 14.3 5 16 C2.58152006 13.07880232 1.31293234 10.5084932 0.25 6.875 C-0.01296875 6.00617188 -0.2759375 5.13734375 -0.546875 4.2421875 C-1 2 -1 2 0 0 Z " fill="#216292" transform="translate(603,154)"/>
<path d="M0 0 C0.66 0.33 1.32 0.66 2 1 C1.34 2.98 0.68 4.96 0 7 C-0.66 7 -1.32 7 -2 7 C-2.28875 7.94875 -2.5775 8.8975 -2.875 9.875 C-4 13 -4 13 -6 15 C-5.33501617 10.61110675 -3.81242323 7.0188515 -2 3 C-1.34 3 -0.68 3 0 3 C0 2.01 0 1.02 0 0 Z " fill="#A4262F" transform="translate(159,89)"/>
<path d="M0 0 C2.80178062 3.2334275 3.74124175 6.10448769 4.6875 10.25 C4.93886719 11.32765625 5.19023438 12.4053125 5.44921875 13.515625 C5.72185547 14.74539062 5.72185547 14.74539062 6 16 C5.34 16 4.68 16 4 16 C1.37124595 10.62819824 0.3916035 5.95507399 0 0 Z " fill="#236290" transform="translate(978,28)"/>
<path d="M0 0 C-3 2 -3 2 -6.125 2.5 C-7.07375 2.665 -8.0225 2.83 -9 3 C-9.33 3.66 -9.66 4.32 -10 5 C-10.66 5 -11.32 5 -12 5 C-12 4.01 -12 3.02 -12 2 C-12.66 1.67 -13.32 1.34 -14 1 C-12.41913952 0.63495397 -10.83516093 0.28339494 -9.25 -0.0625 C-8.36828125 -0.25972656 -7.4865625 -0.45695313 -6.578125 -0.66015625 C-4.01320972 -0.99825872 -2.42908361 -0.81158635 0 0 Z " fill="#A4202F" transform="translate(1015,223)"/>
<path d="M0 0 C1.39195915 4.17587745 -0.17676781 6.13474776 -2 10 C-2.66 10 -3.32 10 -4 10 C-4.33 11.65 -4.66 13.3 -5 15 C-6 13 -6 13 -5.29296875 10.46875 C-4.92816406 9.4890625 -4.56335938 8.509375 -4.1875 7.5 C-3.83042969 6.5203125 -3.47335938 5.540625 -3.10546875 4.53125 C-2 2 -2 2 0 0 Z " fill="#992231" transform="translate(104,201)"/>
<path d="M0 0 C0.33 0.99 0.66 1.98 1 3 C-2.32307692 6.93846154 -2.32307692 6.93846154 -5.75 7.25 C-6.4925 7.1675 -7.235 7.085 -8 7 C-6.41641358 3.83282717 -5.54736301 2.26731682 -2.3125 0.6875 C-1.549375 0.460625 -0.78625 0.23375 0 0 Z " fill="#2A6DAB" transform="translate(431,208)"/>
<path d="M0 0 C0.33 0 0.66 0 1 0 C1.14285714 8.57142857 1.14285714 8.57142857 0 12 C-0.66 12 -1.32 12 -2 12 C-2.66 13.32 -3.32 14.64 -4 16 C-3.27275406 10.47293087 -1.66554027 5.30039859 0 0 Z " fill="#246394" transform="translate(942,200)"/>
<path d="M0 0 C0.99 0 1.98 0 3 0 C2.57316761 1.58624235 2.13303842 3.1689098 1.6875 4.75 C1.44386719 5.63171875 1.20023437 6.5134375 0.94921875 7.421875 C-0.02125331 10.05772505 -1.21005644 11.85407326 -3 14 C-2.48594831 9.03083364 -1.76615118 4.70973649 0 0 Z " fill="#310406" transform="translate(108,86)"/>
<path d="M0 0 C0.33 0 0.66 0 1 0 C1.19392201 5.52677733 0.7479503 9.75614911 -1 15 C-1.66 15 -2.32 15 -3 15 C-2.44854729 9.76119922 -1.57077907 5.02649303 0 0 Z " fill="#206292" transform="translate(206,61)"/>
<path d="M0 0 C3.33511388 2.9901021 5.21521119 5.89498574 7 10 C7 10.66 7 11.32 7 12 C5.68 12 4.36 12 3 12 C2.87625 10.865625 2.7525 9.73125 2.625 8.5625 C2.41875 7.386875 2.2125 6.21125 2 5 C1.34 4.67 0.68 4.34 0 4 C0 2.68 0 1.36 0 0 Z " fill="#03162B" transform="translate(729,56)"/>
<path d="M0 0 C-0.56589844 0.19335938 -1.13179688 0.38671875 -1.71484375 0.5859375 C-2.81505859 0.97652344 -2.81505859 0.97652344 -3.9375 1.375 C-5.03384766 1.75785156 -5.03384766 1.75785156 -6.15234375 2.1484375 C-8.18682116 2.85271413 -8.18682116 2.85271413 -9 5 C-11.64 5 -14.28 5 -17 5 C-14.65117776 2.65117776 -12.72876333 1.96496976 -9.625 0.8125 C-8.66851562 0.44769531 -7.71203125 0.08289062 -6.7265625 -0.29296875 C-3.94714704 -1.01370542 -2.64891897 -0.98549829 0 0 Z " fill="#041D37" transform="translate(473,43)"/>
<path d="M0 0 C-2.66936639 2.19269382 -4.64181221 3.28765714 -8 4 C-9.6744239 4.6469365 -11.34302621 5.30959426 -13 6 C-11.9280096 2.5458087 -10.90283569 1.94781917 -7.625 0.1875 C-3.0098832 -1.32434861 -3.0098832 -1.32434861 0 0 Z " fill="#206194" transform="translate(484,4)"/>
<path d="M0 0 C1.39195915 4.17587745 -0.17676781 6.13474776 -2 10 C-2.66 10 -3.32 10 -4 10 C-4.33 11.65 -4.66 13.3 -5 15 C-6 13 -6 13 -5.29296875 10.72265625 C-4.74576172 9.40587891 -4.74576172 9.40587891 -4.1875 8.0625 C-3.83042969 7.18722656 -3.47335938 6.31195313 -3.10546875 5.41015625 C-2 3 -2 3 0 0 Z " fill="#9A222E" transform="translate(112,185)"/>
<path d="M0 0 C2.25170312 2.25170312 2.51474 3.32987578 3.1875 6.375 C3.36667969 7.14585937 3.54585937 7.91671875 3.73046875 8.7109375 C4.01304909 11.11082272 3.73503321 12.71670535 3 15 C2.34 14.67 1.68 14.34 1 14 C0.5859375 10.83984375 0.5859375 10.83984375 0.375 6.9375 C0.30023437 5.64714844 0.22546875 4.35679687 0.1484375 3.02734375 C0.09945312 2.02832031 0.05046875 1.02929688 0 0 Z " fill="#041A31" transform="translate(596,136)"/>
<path d="M0 0 C0.66 0.33 1.32 0.66 2 1 C1.2169216 3.14898232 0.42328757 5.29412095 -0.375 7.4375 C-0.81585938 8.63246094 -1.25671875 9.82742187 -1.7109375 11.05859375 C-3 14 -3 14 -5 15 C-4.34 11.37 -3.68 7.74 -3 4 C-2.01 3.67 -1.02 3.34 0 3 C0 2.01 0 1.02 0 0 Z " fill="#96222D" transform="translate(143,121)"/>
<path d="M0 0 C0 2.62113708 -0.31292445 4.50935112 -1 7 C-1.66 7 -2.32 7 -3 7 C-3 7.66 -3 8.32 -3 9 C-3.99 9.495 -3.99 9.495 -5 10 C-5.33 10.99 -5.66 11.98 -6 13 C-6.66 13 -7.32 13 -8 13 C-6.40956621 7.91061189 -3.2553049 4.12543357 0 0 Z " fill="#051B31" transform="translate(258,40)"/>
<path d="M0 0 C0.99 0.33 1.98 0.66 3 1 C3.94921875 3.109375 3.94921875 3.109375 4.6875 5.75 C4.93886719 6.61109375 5.19023438 7.4721875 5.44921875 8.359375 C5.99753428 10.98817853 6.10108994 13.32352338 6 16 C3.69412696 13.69412696 3.31712405 12.22901367 2.4375 9.125 C2.18871094 8.26132812 1.93992187 7.39765625 1.68359375 6.5078125 C1.09388513 4.34442431 0.53189164 2.1782229 0 0 Z " fill="#011123" transform="translate(978,26)"/>
<path d="M0 0 C0.99 0.33 1.98 0.66 3 1 C3.33 6.28 3.66 11.56 4 17 C1.64019954 13.4602993 1.41399192 11.00893712 0.875 6.8125 C0.70742188 5.54019531 0.53984375 4.26789062 0.3671875 2.95703125 C0.24601563 1.98121094 0.12484375 1.00539063 0 0 Z " fill="#26679B" transform="translate(822,10)"/>
<path d="M0 0 C0.33 1.32 0.66 2.64 1 4 C0.34 4 -0.32 4 -1 4 C-1.0825 5.11375 -1.165 6.2275 -1.25 7.375 C-2 11 -2 11 -4.0625 12.4375 C-5.0215625 12.7159375 -5.0215625 12.7159375 -6 13 C-4.58707905 8.1725201 -2.57025846 4.2837641 0 0 Z " fill="#90202C" transform="translate(11,282)"/>
<path d="M0 0 C0.66 0 1.32 0 2 0 C1.67 1.32 1.34 2.64 1 4 C1.66 4.33 2.32 4.66 3 5 C1.68 5.33 0.36 5.66 -1 6 C-1.144375 6.598125 -1.28875 7.19625 -1.4375 7.8125 C-1.8872439 9.56150404 -2.42892341 11.28677023 -3 13 C-3.66 13 -4.32 13 -5 13 C-3.25 6.25 -3.25 6.25 -1 4 C-0.3574765 1.93125966 -0.3574765 1.93125966 0 0 Z " fill="#310407" transform="translate(100,211)"/>
<path d="M0 0 C4.42857143 5.14285714 4.42857143 5.14285714 5 9 C1.17053157 7.54744301 -0.12050295 5.57104439 -2 2 C-1.34 2 -0.68 2 0 2 C0 1.34 0 0.68 0 0 Z " fill="#1E6CA6" transform="translate(313,40)"/>
<path d="M0 0 C1.98 0 3.96 0 6 0 C6 0.66 6 1.32 6 2 C7.32 2.66 8.64 3.32 10 4 C10 4.66 10 5.32 10 6 C6.40992874 4.66654496 3.20429093 3.1056769 0 1 C0 0.67 0 0.34 0 0 Z " fill="#1F6091" transform="translate(704,34)"/>
<path d="M0 0 C0.66 0.66 1.32 1.32 2 2 C0.35 5.3 -1.3 8.6 -3 12 C-4.10191901 7.59232396 -3.58706842 6.1077065 -2 2 C-1.34 2 -0.68 2 0 2 C0 1.34 0 0.68 0 0 Z " fill="#9B212E" transform="translate(95,218)"/>
<path d="M0 0 C2.64 0.33 5.28 0.66 8 1 C8.66 2.98 9.32 4.96 10 7 C8.33073546 6.02526874 6.66464358 5.04510211 5 4.0625 C4.071875 3.51722656 3.14375 2.97195312 2.1875 2.41015625 C1.465625 1.94480469 0.74375 1.47945312 0 1 C0 0.67 0 0.34 0 0 Z " fill="#23699B" transform="translate(928,42)"/>
<path d="M0 0 C0.33 0.66 0.66 1.32 1 2 C-0.37393005 5.66381347 -1.1447677 7.56243929 -4.6875 9.375 C-5.450625 9.58125 -6.21375 9.7875 -7 10 C-4.93992341 6.39486597 -2.6486859 3.19668988 0 0 Z " fill="#1F5D8D" transform="translate(454,28)"/>
<path d="M0 0 C0 4.07605096 -1.55272534 6.7838181 -4 10 C-6.25 10.9375 -6.25 10.9375 -8 11 C-6.63629701 8.00779732 -5.05091917 5.70973471 -2.875 3.25 C-2.33617187 2.63640625 -1.79734375 2.0228125 -1.2421875 1.390625 C-0.62730469 0.70226562 -0.62730469 0.70226562 0 0 Z " fill="#226395" transform="translate(901,7)"/>
<path d="M0 0 C0.66 0 1.32 0 2 0 C2.39063507 1.43333021 2.76198474 2.87192679 3.125 4.3125 C3.33382812 5.11300781 3.54265625 5.91351563 3.7578125 6.73828125 C4 9 4 9 2 12 C0.86235649 7.73383684 0 4.43513689 0 0 Z " fill="#000D1F" transform="translate(563,196)"/>
<path d="M0 0 C3 1 3 1 4.6875 3.3125 C6 6 6 6 6 10 C6.66 10.33 7.32 10.66 8 11 C7.01 11 6.02 11 5 11 C2 4.25 2 4.25 2 2 C1.34 2 0.68 2 0 2 C0 1.34 0 0.68 0 0 Z " fill="#041D35" transform="translate(774,42)"/>
<path d="M0 0 C0.66 0 1.32 0 2 0 C0.54955729 4.10958767 -1.51110752 7.43258745 -4 11 C-4.33 9.68 -4.66 8.36 -5 7 C-4.34 7 -3.68 7 -3 7 C-2.67 5.35 -2.34 3.7 -2 2 C-1.34 2 -0.68 2 0 2 C0 1.34 0 0.68 0 0 Z " fill="#000C1F" transform="translate(615,40)"/>
<path d="M0 0 C4.10958767 1.45044271 7.43258745 3.51110752 11 6 C8 7 8 7 5.95703125 6.22265625 C5.24933594 5.83980469 4.54164063 5.45695313 3.8125 5.0625 C3.09707031 4.68222656 2.38164062 4.30195313 1.64453125 3.91015625 C1.10183594 3.60980469 0.55914062 3.30945313 0 3 C0 2.01 0 1.02 0 0 Z " fill="#266A9F" transform="translate(316,7)"/>
<path d="M0 0 C0.66 0 1.32 0 2 0 C3.19287411 3.87684087 4 6.91621923 4 11 C3.34 11 2.68 11 2 11 C0.57741188 7.17679443 -0.24042276 4.08718695 0 0 Z " fill="#011429" transform="translate(819,5)"/>
<path d="M0 0 C1.21065165 3.63195496 0.62784815 5.06531629 -0.4375 8.6875 C-0.86869141 10.17830078 -0.86869141 10.17830078 -1.30859375 11.69921875 C-1.53675781 12.45847656 -1.76492188 13.21773437 -2 14 C-2.33 14 -2.66 14 -3 14 C-3 11.36 -3 8.72 -3 6 C-2.34 6 -1.68 6 -1 6 C-1.0309375 4.7934375 -1.0309375 4.7934375 -1.0625 3.5625 C-1 1 -1 1 0 0 Z " fill="#9E2433" transform="translate(1048,234)"/>
<path d="M0 0 C0.33 0 0.66 0 1 0 C1.56561146 5.65611463 -0.28608722 9.22642128 -3 14 C-4.37095624 10.30962722 -3.60010967 8.29116165 -2.0625 4.75 C-1.68222656 3.85796875 -1.30195313 2.9659375 -0.91015625 2.046875 C-0.60980469 1.37140625 -0.30945313 0.6959375 0 0 Z " fill="#2970A8" transform="translate(342,198)"/>
<path d="M0 0 C0.66 0.33 1.32 0.66 2 1 C1.01 2.485 1.01 2.485 0 4 C-1.32 4 -2.64 4 -4 4 C-4.33 4.99 -4.66 5.98 -5 7 C-5.99 7 -6.98 7 -8 7 C-8 6.34 -8 5.68 -8 5 C-6.3203125 3.67578125 -6.3203125 3.67578125 -4.125 2.3125 C-3.40570312 1.85488281 -2.68640625 1.39726563 -1.9453125 0.92578125 C-1.30335938 0.62027344 -0.66140625 0.31476562 0 0 Z " fill="#051C33" transform="translate(672,32)"/>
<path d="M0 0 C2.94721162 2.74395564 5.19168608 5.38337216 7 9 C6.67 9.66 6.34 10.32 6 11 C1.9957657 7.50912907 0.37328935 5.35048061 0 0 Z " fill="#225E8E" transform="translate(542,16)"/>
<path d="M0 0 C0.96661363 3.12180401 0.98988909 5.52083795 0.5625 8.75 C0.40974609 9.94882813 0.40974609 9.94882813 0.25390625 11.171875 C0.12822266 12.07679688 0.12822266 12.07679688 0 13 C-0.99 13.33 -1.98 13.66 -3 14 C-2.28547412 9.23649415 -1.20465156 4.65798604 0 0 Z " fill="#1F5984" transform="translate(824,202)"/>
<path d="M0 0 C2.475 0.495 2.475 0.495 5 1 C5.33 1.99 5.66 2.98 6 4 C6.99 4 7.98 4 9 4 C9.33 4.99 9.66 5.98 10 7 C5.56541027 5.6062718 3.12621626 3.39417765 0 0 Z " fill="#236393" transform="translate(632,200)"/>
<path d="M0 0 C0.33 0 0.66 0 1 0 C1.3125 2.25 1.3125 2.25 1 5 C-1.5 7.3125 -1.5 7.3125 -4 9 C-4 6.69 -4 4.38 -4 2 C-2.68 2.33 -1.36 2.66 0 3 C0 2.01 0 1.02 0 0 Z " fill="#2271AD" transform="translate(761,183)"/>
<path d="M0 0 C0 3 0 3 -1 6 C-3.31 6.33 -5.62 6.66 -8 7 C-5.42215154 4.35247996 -3.08351902 2.05567935 0 0 Z " fill="#23679C" transform="translate(240,14)"/>
<path d="M0 0 C-3.66291938 2.47785723 -6.6109185 3.48964169 -11 4 C-11 3.34 -11 2.68 -11 2 C-9.73392393 1.46770674 -8.46189588 0.94955456 -7.1875 0.4375 C-6.47980469 0.14746094 -5.77210938 -0.14257812 -5.04296875 -0.44140625 C-3 -1 -3 -1 0 0 Z " fill="#266699" transform="translate(731,212)"/>
<path d="M0 0 C0.8723412 2.99480917 1.10829766 5.63575911 1.0625 8.75 C1.05347656 9.54921875 1.04445313 10.3484375 1.03515625 11.171875 C1.01775391 12.07679688 1.01775391 12.07679688 1 13 C0.01 12.67 -0.98 12.34 -2 12 C-1.85831863 10.56208484 -1.71148957 9.1246763 -1.5625 7.6875 C-1.48128906 6.88699219 -1.40007812 6.08648437 -1.31640625 5.26171875 C-1 3 -1 3 0 0 Z " fill="#1C5C8F" transform="translate(398,192)"/>
<path d="M0 0 C0.33 0 0.66 0 1 0 C1.3125 2.8125 1.3125 2.8125 1 6 C-1.5 7.875 -1.5 7.875 -4 9 C-2.94124926 5.59687262 -1.99097846 2.98646769 0 0 Z " fill="#931E2C" transform="translate(81,147)"/>
<path d="M0 0 C3.73884332 2.65654657 5.64978174 4.58110387 7 9 C5.68 9 4.36 9 3 9 C2.01 6.03 1.02 3.06 0 0 Z " fill="#23679C" transform="translate(334,20)"/>
<path d="M0 0 C0 0.99 0 1.98 0 3 C-2 4.6875 -2 4.6875 -4 6 C-4 5.34 -4 4.68 -4 4 C-5.32 4.33 -6.64 4.66 -8 5 C-3.16129032 0 -3.16129032 0 0 0 Z " fill="#031426" transform="translate(744,205)"/>
<path d="M0 0 C0.33 0.66 0.66 1.32 1 2 C1.66 2 2.32 2 3 2 C2.00102287 4.99693138 1.34869747 6.02709413 -1 8 C-1.66 8 -2.32 8 -3 8 C-1.125 2.25 -1.125 2.25 0 0 Z " fill="#971F2D" transform="translate(58,192)"/>
<path d="M0 0 C1.32 0 2.64 0 4 0 C4 0.99 4 1.98 4 3 C5.32 2.67 6.64 2.34 8 2 C8 3.32 8 4.64 8 6 C4.08597051 4.73058503 2.20927127 3.48832306 0 0 Z " fill="#010F22" transform="translate(669,178)"/>
<path d="M0 0 C0.8125 1.6875 0.8125 1.6875 1 4 C-1.4375 6.75 -1.4375 6.75 -4 9 C-4 5.00095031 -2.27413033 3.19799578 0 0 Z " fill="#031731" transform="translate(774,170)"/>
<path d="M0 0 C2 1 2 1 3.1875 3.8125 C3.96421451 6.85961076 4.10096399 8.13749363 3 11 C0.29417212 7.16674383 -0.32613618 4.67461851 0 0 Z " fill="#03172E" transform="translate(940,54)"/>
<path d="M0 0 C-3.67259383 2.44839588 -6.54648201 4 -11 4 C-11 3.34 -11 2.68 -11 2 C-7.17010894 0.19769832 -4.21878192 -0.19622241 0 0 Z " fill="#9A232F" transform="translate(48,41)"/>
<path d="M0 0 C0.99 0.66 1.98 1.32 3 2 C1.6875 3.5 1.6875 3.5 0 5 C-0.99 5 -1.98 5 -3 5 C-3 5.66 -3 6.32 -3 7 C-3.66 6.67 -4.32 6.34 -5 6 C-3.35 4.02 -1.7 2.04 0 0 Z " fill="#1E6297" transform="translate(625,31)"/>
<path d="M0 0 C0.66 0.33 1.32 0.66 2 1 C1.34 2.32 0.68 3.64 0 5 C-2.97 4.505 -2.97 4.505 -6 4 C-3.94766315 1.7522025 -2.99332739 0.9977758 0 0 Z " fill="#031325" transform="translate(734,210)"/>
<path d="M0 0 C0.33 0.66 0.66 1.32 1 2 C0.22265625 3.9453125 0.22265625 3.9453125 -0.9375 6.125 C-1.31777344 6.84945312 -1.69804688 7.57390625 -2.08984375 8.3203125 C-2.39019531 8.87460938 -2.69054688 9.42890625 -3 10 C-3.33 10 -3.66 10 -4 10 C-4.19990835 6.40164967 -3.96808719 4.06146896 -2 1 C-1.34 0.67 -0.68 0.34 0 0 Z " fill="#290001" transform="translate(54,198)"/>
<path d="M0 0 C4.41889613 1.35021826 6.34345343 3.26115668 9 7 C8.67 7.66 8.34 8.32 8 9 C6.66368764 7.6905332 5.33102075 6.37734515 4 5.0625 C3.2575 4.33160156 2.515 3.60070312 1.75 2.84765625 C0 1 0 1 0 0 Z " fill="#286CA1" transform="translate(226,191)"/>
<path d="M0 0 C4.875 4.75 4.875 4.75 6 7 C4.35 6.67 2.7 6.34 1 6 C0.4465236 3.92446352 0 2.15634036 0 0 Z " fill="#031429" transform="translate(219,184)"/>
<path d="M0 0 C0.66 0.33 1.32 0.66 2 1 C0.68 3.64 -0.64 6.28 -2 9 C-2.66 9 -3.32 9 -4 9 C-2.94124926 5.59687262 -1.99097846 2.98646769 0 0 Z " fill="#9F2434" transform="translate(115,79)"/>
<path d="M0 0 C2.9625 5.8875 2.9625 5.8875 4 9 C3.67 9.99 3.34 10.98 3 12 C0.50494038 9.50494038 0.64051624 8.32671112 0.375 4.875 C0.30023438 3.96492187 0.22546875 3.05484375 0.1484375 2.1171875 C0.09945313 1.41851562 0.05046875 0.71984375 0 0 Z " fill="#021328" transform="translate(391,4)"/>
<path d="M0 0 C1.32 0.33 2.64 0.66 4 1 C1.03 2.65 -1.94 4.3 -5 6 C-5 5.34 -5 4.68 -5 4 C-4.34 4 -3.68 4 -3 4 C-3 3.34 -3 2.68 -3 2 C-2.01 1.34 -1.02 0.68 0 0 Z " fill="#276B9F" transform="translate(741,203)"/>
<path d="M0 0 C0.33 0.66 0.66 1.32 1 2 C0.06421005 4.35981813 -0.93347808 6.69631264 -2 9 C-2.66 9 -3.32 9 -4 9 C-2.25 2.25 -2.25 2.25 0 0 Z " fill="#310205" transform="translate(107,199)"/>
<path d="M0 0 C-2.95183101 2.95183101 -5.95511947 3.08663988 -10 4 C-9.67 3.01 -9.34 2.02 -9 1 C-6.03421164 -0.16513114 -3.15436364 -0.08762121 0 0 Z " fill="#01172F" transform="translate(344,179)"/>
<path d="M0 0 C0.33 0.99 0.66 1.98 1 3 C-0.9375 6.1875 -0.9375 6.1875 -3 9 C-3.33 8.34 -3.66 7.68 -4 7 C-1.55555556 1.55555556 -1.55555556 1.55555556 0 0 Z " fill="#A12634" transform="translate(120,169)"/>
<path d="M0 0 C0.66 0 1.32 0 2 0 C0.7508258 3.45925163 -0.67527795 6.14693203 -3 9 C-3.25532751 5.93606987 -3.21861333 4.36766788 -1.625 1.6875 C-0.820625 0.8521875 -0.820625 0.8521875 0 0 Z " fill="#99212C" transform="translate(128,153)"/>
<path d="M0 0 C0.66 0.66 1.32 1.32 2 2 C0.68 4.31 -0.64 6.62 -2 9 C-2.33 9 -2.66 9 -3 9 C-3 7.35 -3 5.7 -3 4 C-2.34 4 -1.68 4 -1 4 C-0.67 2.68 -0.34 1.36 0 0 Z " fill="#246496" transform="translate(648,52)"/>
<path d="M0 0 C2.97 0.495 2.97 0.495 6 1 C6.33 2.65 6.66 4.3 7 6 C5.83054208 5.19152271 4.66449539 4.37810888 3.5 3.5625 C2.8503125 3.11003906 2.200625 2.65757813 1.53125 2.19140625 C1.0259375 1.79824219 0.520625 1.40507813 0 1 C0 0.67 0 0.34 0 0 Z " fill="#23659B" transform="translate(714,40)"/>
<path d="M0 0 C0.99 0.33 1.98 0.66 3 1 C1.02 3.31 -0.96 5.62 -3 8 C-3.33 6.68 -3.66 5.36 -4 4 C-3.01 3.67 -2.02 3.34 -1 3 C-0.67 2.01 -0.34 1.02 0 0 Z " fill="#011127" transform="translate(896,10)"/>
<path d="M0 0 C3.82097239 0.53069061 6.06171403 1.49701566 9 4 C7.02 4 5.04 4 3 4 C3 3.34 3 2.68 3 2 C2.01 2 1.02 2 0 2 C0 1.34 0 0.68 0 0 Z " fill="#02162D" transform="translate(253,212)"/>
<path d="M0 0 C1.32 0.33 2.64 0.66 4 1 C4 1.66 4 2.32 4 3 C6.97 3.495 6.97 3.495 10 4 C10 4.33 10 4.66 10 5 C3.375 4.25 3.375 4.25 0 2 C0 1.34 0 0.68 0 0 Z " fill="#061C32" transform="translate(646,210)"/>
<path d="M0 0 C0.99 0.33 1.98 0.66 3 1 C1.35 2.98 -0.3 4.96 -2 7 C-2.33 5.68 -2.66 4.36 -3 3 C-2.01 3 -1.02 3 0 3 C0 2.01 0 1.02 0 0 Z " fill="#2370AC" transform="translate(754,191)"/>
<path d="M0 0 C0.66 0.33 1.32 0.66 2 1 C0.25 6.75 0.25 6.75 -2 9 C-2 7.02 -2 5.04 -2 3 C-1.34 3 -0.68 3 0 3 C0 2.01 0 1.02 0 0 Z " fill="#031326" transform="translate(742,145)"/>
<path d="M0 0 C0.33 0 0.66 0 1 0 C1.25 2.75 1.25 2.75 1 6 C-1 8.375 -1 8.375 -3 10 C-2.01 6.7 -1.02 3.4 0 0 Z " fill="#010F23" transform="translate(249,53)"/>
<path d="M0 0 C2.79872437 2.52788007 4.45773019 4.20411134 5 8 C4.34 8 3.68 8 3 8 C3 7.01 3 6.02 3 5 C2.01 4.67 1.02 4.34 0 4 C0 2.68 0 1.36 0 0 Z " fill="#226091" transform="translate(344,34)"/>
<path d="M0 0 C0.66 0 1.32 0 2 0 C2 0.66 2 1.32 2 2 C2.66 2.33 3.32 2.66 4 3 C3.34 3 2.68 3 2 3 C2 3.66 2 4.32 2 5 C0.68 4.67 -0.64 4.34 -2 4 C-1.34 2.68 -0.68 1.36 0 0 Z " fill="#1C6DAE" transform="translate(258,35)"/>
<path d="M0 0 C0.66 1.32 1.32 2.64 2 4 C1.34 4.66 0.68 5.32 0 6 C-1.32 5.34 -2.64 4.68 -4 4 C-2.68 2.68 -1.36 1.36 0 0 Z " fill="#1F6CA6" transform="translate(630,26)"/>
<path d="M0 0 C0 0.33 0 0.66 0 1 C-5.445 2.485 -5.445 2.485 -11 4 C-10.67 3.01 -10.34 2.02 -10 1 C-6.76421296 -0.31828361 -3.44785988 -0.07836045 0 0 Z " fill="#02132A" transform="translate(485,2)"/>
</svg>
