<?xml version="1.0" standalone="no"?>
<!DOCTYPE svg PUBLIC "-//W3C//DTD SVG 20010904//EN"
 "http://www.w3.org/TR/2001/REC-SVG-20010904/DTD/svg10.dtd">
<svg version="1.0" xmlns="http://www.w3.org/2000/svg"
 width="1592.000000pt" height="769.000000pt" viewBox="0 0 1592.000000 769.000000"
 preserveAspectRatio="xMidYMid meet">

<g transform="translate(0.000000,769.000000) scale(0.100000,-0.100000)"
fill="#000000" stroke="none">
<path d="M5312 7068 c-7 -7 -12 -19 -11 -27 0 -10 4 -7 9 7 l9 22 2939 0
c2272 0 2941 -3 2950 -12 15 -15 16 -225 2 -248 -8 -13 -347 -15 -2938 -18
-2521 -2 -2931 0 -2948 12 -16 12 -20 31 -25 118 l-7 103 2 -103 c1 -96 3
-105 25 -123 23 -19 79 -19 2953 -17 2887 3 2930 3 2944 22 10 14 14 51 14
131 0 96 -3 114 -18 128 -17 16 -237 17 -2953 17 -2270 0 -2938 -3 -2947 -12z"/>
<path d="M8262 6643 c-1 -56 2 -104 7 -107 5 -4 619 -6 1365 -6 l1355 0 4 -73
3 -72 2 72 2 73 1088 3 c598 1 -16 3 -1365 5 l-2452 2 -4 103 -3 102 -2 -102z"/>
<path d="M2484 6526 c-3 -7 -3 -42 -1 -77 l3 -64 2 72 2 73 1678 3 1677 2
-1678 3 c-1404 2 -1678 0 -1683 -12z"/>
<path d="M2162 6290 c-31 -13 -44 -55 -40 -129 3 -48 9 -67 23 -77 15 -11 83
-14 341 -14 377 0 354 -7 354 113 0 59 -3 71 -25 92 l-24 25 -303 -1 c-167 0
-313 -4 -326 -9z m117 -107 c0 -25 -1 -25 -8 -8 -5 11 -7 23 -4 28 8 14 13 7
12 -20z m122 -2 c7 11 12 12 28 2 17 -11 20 -9 24 10 4 18 4 18 6 -5 l1 -28
-75 0 c-70 0 -91 9 -63 26 6 4 13 3 15 -3 6 -16 43 -3 44 16 1 9 4 5 6 -8 4
-19 7 -21 14 -10z m76 -8 c-3 -10 -5 -4 -5 12 0 17 2 24 5 18 2 -7 2 -21 0
-30z m73 16 c0 -11 5 -17 10 -14 6 3 10 1 10 -5 0 -5 -13 -9 -30 -8 -27 2 -45
18 -20 18 6 0 10 7 10 15 0 8 5 15 10 15 6 0 10 -9 10 -21z m140 -4 c0 -22 -4
-25 -39 -25 -22 0 -43 -4 -46 -10 -10 -17 -23 -11 -18 8 3 12 13 18 26 17 12
-1 26 3 30 9 6 8 10 7 14 -1 8 -20 23 -15 23 7 0 11 2 20 5 20 3 0 5 -11 5
-25z m17 -12 c-3 -10 -5 -4 -5 12 0 17 2 24 5 18 2 -7 2 -21 0 -30z"/>
<path d="M9075 6275 c-22 -21 -25 -33 -25 -95 0 -116 -19 -110 358 -110 259 0
322 3 338 14 16 12 19 27 19 96 0 126 19 120 -357 120 l-309 0 -24 -25z m190
-100 c6 0 16 4 23 9 8 5 18 4 25 -3 6 -6 18 -11 27 -11 13 0 13 2 0 11 -12 9
-12 10 -1 7 8 -3 17 -10 19 -16 2 -8 -15 -12 -57 -12 -60 0 -61 0 -60 28 1 22
2 24 7 7 4 -11 12 -20 17 -20z m135 9 c0 -30 -23 -28 -28 2 -3 16 -1 16 7 4 9
-13 11 -13 11 3 0 9 2 17 5 17 3 0 5 -12 5 -26z m17 -11 c-3 -10 -5 -4 -5 12
0 17 2 24 5 18 2 -7 2 -21 0 -30z m164 4 c17 2 29 0 29 -6 0 -6 -16 -11 -35
-11 -32 0 -35 2 -34 28 1 22 3 23 6 5 3 -17 10 -20 34 -16z m-91 -7 c0 -13 -7
-20 -20 -20 -13 0 -20 6 -19 18 0 10 3 12 6 5 2 -7 9 -13 14 -13 4 0 6 7 3 15
-4 8 -1 15 5 15 6 0 11 -9 11 -20z m40 -1 c0 -5 -8 -9 -17 -8 -11 0 -13 3 -5
6 6 2 9 10 6 15 -4 7 -2 8 4 4 7 -4 12 -11 12 -17z m-300 1 c0 -5 -4 -10 -10
-10 -5 0 -10 5 -10 10 0 6 5 10 10 10 6 0 10 -4 10 -10z"/>
<path d="M10672 6290 c-28 -12 -42 -48 -42 -111 0 -50 13 -87 34 -101 6 -4
156 -8 333 -8 377 0 353 -8 353 115 0 76 -4 86 -37 104 -27 14 -606 15 -641 1z
m118 -105 c0 -30 -15 -33 -23 -5 -4 16 1 23 21 29 1 1 2 -10 2 -24z m119 -7
c1 14 31 17 31 2 0 -5 5 -10 10 -10 6 0 10 9 10 20 0 11 7 20 15 20 9 0 15 -9
15 -25 0 -23 -3 -25 -50 -25 -48 0 -50 1 -49 28 l1 27 8 -25 c4 -14 8 -19 9
-12z m182 -3 c21 1 47 10 57 19 10 9 23 16 28 16 5 -1 -1 -9 -13 -19 l-22 -18
24 0 c16 0 25 6 28 21 3 16 5 15 6 -6 l1 -28 -80 0 -80 0 1 28 c1 21 3 22 6 6
3 -18 10 -21 44 -19z m126 -2 c-3 -10 -5 -4 -5 12 0 17 2 24 5 18 2 -7 2 -21
0 -30z m-377 6 c0 -6 9 -8 20 -4 11 4 20 2 20 -4 0 -6 -13 -11 -30 -11 -20 0
-30 5 -30 15 0 8 5 15 10 15 6 0 10 -5 10 -11z m190 -9 c0 -5 -4 -10 -10 -10
-5 0 -10 5 -10 10 0 6 5 10 10 10 6 0 10 -4 10 -10z m117 -26 c-3 -3 -12 -4
-19 -1 -8 3 -5 6 6 6 11 1 17 -2 13 -5z"/>
<path d="M12833 6274 c-23 -23 -25 -31 -21 -101 3 -60 7 -78 23 -89 28 -21
642 -21 671 0 16 12 19 27 19 96 0 126 19 120 -357 120 l-309 0 -26 -26z m126
-91 c0 -25 -1 -25 -8 -8 -5 11 -7 23 -4 28 8 14 13 7 12 -20z m92 -6 c10 3 19
0 19 -6 0 -6 -8 -11 -18 -11 -10 0 -23 -5 -29 -11 -13 -13 -33 -4 -32 14 0 9
2 8 6 -1 8 -19 23 -4 24 26 1 22 3 23 6 6 3 -16 9 -20 24 -17z m55 24 c9 8 14
8 14 1 0 -6 -8 -16 -17 -21 -15 -8 -12 -10 15 -7 17 2 32 -1 32 -5 0 -5 -16
-9 -35 -9 -32 0 -35 3 -34 28 0 15 3 21 6 14 4 -10 8 -10 19 -1z m162 -29 c7
-1 15 5 18 13 5 12 9 13 20 4 23 -19 16 -29 -19 -29 -18 0 -38 -5 -44 -11 -13
-13 -33 -4 -32 14 0 9 2 9 6 0 9 -24 23 -13 24 20 1 24 3 27 7 12 4 -11 13
-21 20 -23z m82 8 c7 11 12 11 23 2 7 -7 17 -9 20 -5 4 3 7 1 7 -5 0 -7 -15
-12 -35 -12 -32 0 -35 2 -34 28 2 25 2 26 6 3 4 -18 7 -21 13 -11z m57 14 c-3
-3 -12 -4 -19 -1 -8 3 -5 6 6 6 11 1 17 -2 13 -5z m-227 -34 c0 -13 -6 -20
-17 -19 -10 0 -13 3 -6 5 7 3 9 12 6 20 -3 8 0 14 6 14 6 0 11 -9 11 -20z"/>
<path d="M5586 6262 c-3 -5 -23 -14 -45 -22 -40 -13 -41 -14 -41 -59 0 -34 5
-51 20 -64 11 -9 20 -24 20 -32 0 -13 40 -15 313 -15 171 0 306 4 299 9 -10 6
-10 17 3 55 20 58 9 93 -34 119 -25 15 -62 17 -279 17 -138 0 -253 -4 -256 -8z
m41 -58 c-3 -3 -12 -4 -19 -1 -8 3 -5 6 6 6 11 1 17 -2 13 -5z m38 -28 c6 0
18 4 29 9 12 5 21 3 27 -6 7 -11 9 -11 9 4 0 21 16 23 23 3 4 -10 16 -13 36
-10 24 4 31 1 31 -10 0 -13 -16 -16 -94 -16 -103 0 -126 5 -126 26 0 17 27 19
33 2 3 -7 6 -2 7 12 2 22 3 23 8 5 4 -11 12 -20 17 -19z m265 20 c0 -21 27
-27 44 -11 8 8 22 12 30 9 9 -3 16 -1 16 5 0 6 5 11 10 11 6 0 10 -9 10 -21 0
-11 5 -17 10 -14 6 3 10 -1 10 -9 0 -9 5 -16 10 -16 6 0 10 7 10 15 0 8 5 15
10 15 13 0 13 -37 0 -45 -6 -4 -23 0 -38 7 -18 9 -40 11 -67 6 -22 -3 -49 -4
-60 -1 -11 4 -32 5 -47 4 -20 -2 -28 2 -28 14 0 9 5 13 10 10 16 -10 50 5 50
21 0 8 5 14 10 14 6 0 10 -6 10 -14z"/>
<path d="M7739 6241 c-31 -32 -35 -54 -18 -115 8 -31 8 -41 -3 -47 -7 -5 127
-9 305 -9 310 0 317 0 317 20 0 11 5 20 11 20 6 0 8 -7 4 -17 -5 -15 -4 -16 7
-5 16 16 25 158 9 148 -6 -4 -24 0 -41 9 -16 8 -30 12 -30 8 0 -4 -5 -2 -12 5
-9 9 -82 12 -266 12 l-254 0 -29 -29z m559 -53 c-3 -33 -4 -33 -57 -34 -30 -1
-71 -5 -91 -8 -20 -3 -40 -3 -44 1 -3 4 -19 7 -34 7 -15 1 -27 6 -27 11 0 6 4
9 9 7 16 -5 46 10 46 24 0 8 5 14 10 14 6 0 10 -7 10 -15 0 -15 5 -17 35 -17
36 0 45 3 45 17 0 8 5 15 10 15 6 0 10 -8 10 -18 0 -15 6 -18 30 -14 21 3 30
10 30 23 0 11 5 19 11 19 6 0 9 -14 7 -32z m-368 15 c0 -5 11 -13 25 -19 21
-10 24 -9 28 10 3 14 5 11 6 -11 1 -30 -1 -32 -31 -31 -18 1 -36 6 -40 12 -5
8 -8 7 -8 -1 0 -7 -12 -13 -28 -13 -15 0 -33 -5 -39 -11 -14 -14 -36 -2 -26
14 4 8 1 7 -9 -1 -13 -10 -22 -11 -37 -2 -37 20 -22 27 56 26 65 -1 77 2 81
17 4 17 22 24 22 10z m77 -40 c-3 -10 -5 -2 -5 17 0 19 2 27 5 18 2 -10 2 -26
0 -35z m70 31 c-3 -3 -12 -4 -19 -1 -8 3 -5 6 6 6 11 1 17 -2 13 -5z"/>
<path d="M2482 5983 l-2 -52 199 -3 c110 -2 197 0 194 5 -2 4 -89 7 -193 7
l-189 0 -4 48 -3 47 -2 -52z"/>
<path d="M8010 5960 l0 -70 -1210 0 -1210 0 2 -52 1 -53 6 45 6 45 2243 3
2242 2 0 -45 c0 -25 5 -45 11 -45 6 0 9 19 7 48 l-3 47 -1035 5 -1035 5 -3 68
c-4 89 -22 87 -22 -3z"/>
<path d="M12770 5890 c-266 -4 -149 -5 380 -5 421 -1 720 1 665 2 -230 6 -685
8 -1045 3z"/>
<path d="M13923 5835 c0 -22 2 -30 4 -17 2 12 2 30 0 40 -3 9 -5 -1 -4 -23z"/>
<path d="M1747 5782 c-13 -14 -17 -38 -17 -93 0 -122 -25 -114 345 -117 387
-3 365 -10 365 112 0 124 25 116 -357 116 -297 0 -321 -1 -336 -18z m133 -97
c0 -14 -2 -25 -4 -25 -2 0 -6 11 -8 25 -3 14 -1 25 3 25 5 0 9 -11 9 -25z m60
3 c0 -19 2 -20 10 -8 6 10 10 11 10 3 0 -23 20 -14 21 10 2 21 2 21 6 -2 4
-18 7 -21 13 -11 7 11 11 11 24 1 11 -9 16 -10 16 -2 0 15 30 14 31 -1 1 -7 5
-2 9 12 l8 25 1 -27 c1 -27 -1 -28 -51 -28 -29 0 -62 -3 -73 -6 -23 -6 -68 24
-47 32 6 3 10 10 6 15 -3 5 0 9 5 9 6 0 11 -10 11 -22z m167 -15 c-3 -10 -5
-4 -5 12 0 17 2 24 5 18 2 -7 2 -21 0 -30z m53 7 c1 9 5 7 10 -7 11 -26 30
-31 30 -7 0 8 5 12 10 9 6 -3 10 0 10 7 0 9 3 9 10 -2 6 -10 10 -11 10 -2 0 6
7 12 15 12 8 0 15 -6 16 -12 1 -7 5 -2 9 12 l8 25 1 -26 c1 -22 -4 -26 -51
-36 -69 -14 -98 -3 -97 34 l1 28 8 -25 c4 -14 9 -18 10 -10z m147 -7 c-3 -10
-5 -4 -5 12 0 17 2 24 5 18 2 -7 2 -21 0 -30z"/>
<path d="M2540 5780 c-16 -16 -20 -33 -20 -93 0 -120 -25 -112 345 -115 387
-3 365 -10 365 112 0 124 25 116 -353 116 -304 0 -318 -1 -337 -20z m138 -95
c-1 -14 -8 -25 -15 -25 -16 0 -17 16 -2 26 8 4 7 9 -2 15 -11 7 -10 9 3 9 13
0 17 -7 16 -25z m62 3 c0 -17 3 -19 9 -9 5 7 14 10 20 7 20 -13 11 -26 -18
-26 -31 0 -54 21 -32 28 11 4 11 6 0 13 -11 7 -10 9 4 9 11 0 17 -8 17 -22z
m81 2 c11 0 17 -4 14 -10 -3 -5 -2 -10 4 -10 5 0 12 10 14 23 4 19 4 18 6 -5
1 -26 -2 -28 -34 -28 -32 0 -35 3 -34 28 0 15 3 21 6 15 2 -7 14 -13 24 -13z
m56 -17 c-3 -10 -5 -4 -5 12 0 17 2 24 5 18 2 -7 2 -21 0 -30z m84 8 c6 11 9
8 9 -9 0 -35 -25 -21 -27 14 -1 23 0 24 4 5 4 -19 7 -21 14 -10z m127 -16 c-2
-3 -23 -6 -46 -7 -23 -2 -42 -6 -42 -10 0 -5 -5 -8 -11 -8 -8 0 -9 4 0 13 6 8
7 18 3 22 -4 5 -1 5 7 0 8 -4 17 -2 22 6 7 12 9 11 9 -1 0 -13 2 -13 9 -1 8
12 12 12 25 2 14 -12 16 -10 17 10 l2 24 4 -23 c3 -13 3 -25 1 -27z m19 8 c-3
-10 -5 -4 -5 12 0 17 2 24 5 18 2 -7 2 -21 0 -30z m-180 2 c0 -8 -6 -15 -13
-15 -8 0 -11 6 -8 15 4 8 9 15 13 15 4 0 8 -7 8 -15z"/>
<path d="M12040 5680 c-26 -26 -29 -143 -4 -178 15 -22 16 -22 343 -22 241 0
330 3 339 12 8 8 12 45 12 100 0 76 -2 89 -19 98 -13 6 -137 10 -335 10 -303
0 -317 -1 -336 -20z m292 -79 c-10 -6 -10 -10 2 -20 11 -9 15 -9 19 1 3 8 6 6
6 -5 1 -30 -63 -19 -67 10 -3 17 1 21 11 17 8 -3 18 0 22 6 4 6 10 9 13 5 4
-3 1 -10 -6 -14z m-152 0 c0 -6 -5 -13 -11 -17 -8 -4 -7 -9 2 -15 10 -6 7 -9
-10 -9 -20 0 -22 2 -10 16 10 13 10 17 -2 25 -11 7 -9 9 9 9 12 0 22 -4 22 -9z
m74 -23 c10 16 26 15 26 -2 0 -7 -14 -16 -31 -20 -34 -7 -49 -1 -48 17 0 9 2
9 6 0 9 -23 23 -14 24 15 l1 27 7 -25 c5 -17 9 -21 15 -12z m216 12 c0 -18 3
-19 21 -10 11 7 27 9 35 6 9 -3 14 1 15 12 1 11 4 8 9 -8 4 -14 8 -19 9 -12 1
6 8 12 16 12 8 0 15 -6 15 -12 0 -9 4 -8 10 2 8 13 10 13 10 -2 0 -14 -10 -17
-57 -16 -32 0 -73 -2 -90 -6 -28 -6 -33 -5 -33 11 0 15 2 16 10 3 8 -12 10 -9
10 13 0 15 5 27 10 27 6 0 10 -9 10 -20z m-75 -25 c0 -29 -20 -28 -23 1 -1 17
2 24 11 21 6 -2 12 -12 12 -22z"/>
<path d="M12300 5580 c0 -6 7 -10 15 -10 8 0 15 2 15 4 0 2 -7 6 -15 10 -8 3
-15 1 -15 -4z"/>
<path d="M12508 5573 c7 -3 16 -2 19 1 4 3 -2 6 -13 5 -11 0 -14 -3 -6 -6z"/>
<path d="M13586 5684 c-22 -22 -29 -56 -24 -119 8 -90 -14 -85 359 -85 383 0
359 -7 359 112 0 114 18 108 -359 108 -277 0 -322 -2 -335 -16z m255 -94 c10
0 19 -4 19 -10 0 -5 5 -10 11 -10 5 0 7 5 4 10 -3 6 1 10 9 10 9 0 16 -6 17
-12 1 -7 5 -2 9 12 l8 25 1 -26 c1 -26 0 -26 -66 -28 -41 -1 -70 -6 -75 -14
-6 -9 -10 -9 -18 3 -5 8 -10 20 -10 25 0 6 5 3 10 -5 8 -13 11 -13 19 -1 5 7
14 10 20 7 7 -5 11 2 12 16 0 13 3 17 6 11 2 -7 13 -13 24 -13z m96 -17 c-3
-10 -5 -4 -5 12 0 17 2 24 5 18 2 -7 2 -21 0 -30z m139 -10 c-3 -3 -22 -6 -43
-7 -21 -1 -44 -5 -51 -10 -7 -4 -16 -5 -19 -2 -4 3 -1 6 5 6 7 0 12 10 12 23
0 18 2 19 10 7 7 -10 10 -11 10 -2 0 9 7 8 28 -4 24 -14 25 -14 8 0 -20 16
-19 16 1 16 12 0 24 -6 26 -12 3 -7 6 -2 8 12 2 25 2 25 6 2 3 -13 2 -26 -1
-29z m21 10 c-3 -10 -5 -4 -5 12 0 17 2 24 5 18 2 -7 2 -21 0 -30z"/>
<path d="M2870 5491 l0 -51 -245 0 -245 0 1 -22 c1 -17 2 -19 6 -5 4 16 24 17
243 17 177 0 241 3 246 12 10 16 11 89 2 95 -5 2 -8 -19 -8 -46z"/>
<path d="M5580 5370 l0 -70 -493 0 c-370 0 -496 -3 -505 -12 -14 -14 -16 -88
-2 -88 6 0 10 18 10 40 l0 40 503 2 c276 2 615 1 752 -2 l250 -5 6 -40 c7 -38
7 -38 5 10 l-1 50 -252 3 -253 2 0 70 c0 40 -4 70 -10 70 -6 0 -10 -30 -10
-70z"/>
<path d="M10090 5370 l0 -70 -1255 0 c-1230 0 -1254 0 -1265 -19 -13 -25 -13
-81 0 -81 6 0 10 18 10 40 l0 40 670 0 670 0 0 -40 c0 -22 5 -40 10 -40 6 0
10 18 10 40 l0 40 569 0 570 0 4 -42 4 -43 1 43 c1 23 8 45 15 47 14 6 11 155
-4 155 -5 0 -9 -31 -9 -70z"/>
<path d="M12370 5270 l0 -170 -242 -2 -243 -3 -3 -147 c-2 -97 1 -148 8 -148
6 0 10 51 10 140 l0 140 178 1 c97 1 380 5 627 8 l450 7 -382 2 -383 2 0 170
c0 107 -4 170 -10 170 -6 0 -10 -63 -10 -170z"/>
<path d="M13910 5320 c0 -73 4 -120 10 -120 6 0 10 47 10 120 0 73 -4 120 -10
120 -6 0 -10 -47 -10 -120z"/>
<path d="M2953 5300 c-48 -20 -57 -182 -11 -212 7 -4 157 -8 334 -8 378 0 354
-7 354 111 0 80 -4 90 -37 108 -26 13 -606 15 -640 1z m122 -90 c8 -12 -12
-40 -28 -40 -5 0 -2 9 7 19 13 15 14 20 4 24 -9 4 -9 6 -1 6 6 1 15 -4 18 -9z
m133 -26 c12 0 22 3 22 8 0 4 7 8 15 8 8 0 15 -4 15 -10 0 -5 5 -10 10 -10 6
0 10 9 10 20 0 11 7 20 15 20 9 0 15 -9 15 -25 l0 -25 -100 0 c-82 0 -100 3
-100 15 0 8 5 15 10 15 6 0 10 -4 10 -9 0 -20 40 -7 41 14 1 20 1 20 7 0 4
-12 16 -20 30 -21z m148 0 c8 3 14 1 14 -4 0 -6 -9 -10 -20 -10 -15 0 -20 6
-19 28 2 24 2 25 6 4 3 -15 10 -22 19 -18z m144 13 c0 -21 -5 -24 -47 -26 -27
-1 -49 -6 -51 -12 -6 -17 -20 -9 -15 9 2 10 14 19 25 19 12 1 24 7 28 14 5 8
11 6 19 -7 10 -18 10 -18 11 4 0 13 6 22 15 22 9 0 15 -9 15 -23z"/>
<path d="M2046 5284 c-12 -11 -16 -36 -16 -93 0 -118 -23 -111 353 -111 375 0
357 -5 357 108 0 119 23 112 -355 112 -281 0 -326 -2 -339 -16z m246 -98 c7 5
9 1 5 -9 -4 -11 -1 -17 8 -17 8 0 15 7 15 16 0 8 4 13 9 9 5 -3 13 -1 16 5 5
8 11 7 21 -1 12 -9 13 -9 9 3 -4 9 0 18 7 21 9 3 14 -3 13 -18 0 -31 -9 -38
-48 -42 -51 -4 -77 5 -77 27 0 12 -7 20 -17 21 -15 0 -15 2 2 8 15 6 21 4 23
-11 2 -10 8 -15 14 -12z m218 19 c0 -8 5 -15 10 -15 6 0 10 7 10 15 0 8 5 15
10 15 6 0 10 -9 10 -20 0 -11 5 -20 11 -20 5 0 7 5 4 10 -3 6 -1 10 5 10 6 0
10 -8 8 -17 -2 -12 -11 -17 -26 -15 -12 2 -22 -2 -22 -7 0 -6 -8 -11 -17 -10
-11 0 -13 3 -5 6 26 10 10 21 -18 11 -31 -10 -60 -6 -60 10 0 5 12 7 26 4 20
-3 26 0 31 17 6 24 23 29 23 6z m-300 -14 c0 -4 11 -7 25 -6 28 4 32 -7 11
-24 -12 -10 -20 -9 -40 4 -14 10 -23 21 -20 26 7 11 24 12 24 0z"/>
<path d="M11147 5283 c6 -4 13 -26 16 -48 4 -40 4 -40 3 4 -1 30 -6 46 -16 48
-10 3 -11 2 -3 -4z"/>
<path d="M9760 5097 c-23 -12 -25 -18 -28 -97 -4 -127 -26 -120 352 -120 252
0 316 3 331 14 30 22 35 152 7 186 l-20 25 -309 3 c-235 2 -314 -1 -333 -11z
m180 -102 c0 -14 -4 -25 -9 -25 -10 0 -21 36 -13 44 12 13 22 5 22 -19z m109
-6 c1 11 4 11 16 1 12 -10 15 -9 16 6 0 11 3 14 5 7 3 -7 12 -9 20 -6 9 3 14
-2 15 -18 1 -19 2 -20 6 -6 3 12 10 16 20 13 11 -4 13 -2 9 9 -3 9 0 15 8 15
8 0 22 3 32 7 12 4 15 3 10 -5 -4 -7 -4 -18 0 -24 6 -9 10 -5 15 12 l7 25 1
-27 c1 -26 -2 -28 -38 -28 -22 0 -43 -4 -46 -10 -3 -5 -18 -10 -33 -10 -21 0
-24 2 -12 10 11 7 4 10 -27 10 -40 0 -43 2 -42 28 l1 27 8 -25 c4 -14 8 -19 9
-11z m198 -6 c-3 -10 -5 -4 -5 12 0 17 2 24 5 18 2 -7 2 -21 0 -30z m-229 4
c3 -13 -3 -17 -27 -17 -17 0 -31 5 -31 10 0 6 11 8 25 4 28 -7 35 11 8 20 -14
4 -14 4 2 3 11 -1 21 -10 23 -20z"/>
<path d="M10830 5097 c-23 -12 -25 -18 -28 -97 -4 -128 -28 -120 364 -120 385
0 364 -7 364 113 0 120 26 112 -352 115 -247 2 -329 -1 -348 -11z m57 -83 c-3
-3 -12 -4 -19 -1 -8 3 -5 6 6 6 11 1 17 -2 13 -5z m90 -21 c18 -10 22 -10 26
5 3 12 5 11 6 -5 1 -22 -3 -23 -74 -23 -60 0 -75 3 -75 15 0 8 7 15 15 15 8 0
15 -6 15 -12 0 -9 3 -9 9 1 8 12 12 12 25 2 14 -12 16 -10 16 10 0 13 4 20 8
14 4 -5 17 -15 29 -22z m50 -10 c-3 -10 -5 -4 -5 12 0 17 2 24 5 18 2 -7 2
-21 0 -30z m140 0 c-3 -10 -5 -4 -5 12 0 17 2 24 5 18 2 -7 2 -21 0 -30z m71
1 c12 -1 22 3 22 7 0 5 -7 9 -16 9 -8 0 -12 5 -9 10 9 14 35 -7 35 -26 0 -9
-12 -14 -35 -14 -32 0 -35 3 -34 28 1 22 2 24 7 7 4 -12 17 -21 30 -21z m49
-1 c-3 -10 -5 -4 -5 12 0 17 2 24 5 18 2 -7 2 -21 0 -30z m74 -3 c5 0 9 6 9
13 0 8 4 7 10 -3 8 -12 10 -10 11 10 2 24 2 24 6 3 3 -13 12 -23 21 -23 15 0
15 2 2 10 -13 9 -13 10 1 10 8 0 21 -6 28 -12 11 -11 13 -10 8 5 -4 9 -2 17 3
17 6 0 10 -9 10 -20 0 -17 -7 -20 -49 -20 -27 0 -63 -3 -80 -6 -21 -5 -31 -3
-31 6 0 7 7 10 15 6 11 -4 15 2 16 22 2 23 2 24 6 5 2 -13 9 -23 14 -23z
m-297 4 c8 -21 -1 -34 -22 -33 -9 0 -12 3 -6 5 7 3 10 14 7 24 -6 24 12 27 21
4z m86 1 c0 -10 -10 -15 -30 -15 -16 0 -30 4 -30 9 0 4 11 6 25 3 15 -2 25 0
25 7 0 6 2 11 5 11 3 0 5 -7 5 -15z m40 -15 c0 -13 -6 -20 -17 -19 -11 0 -13
3 -5 6 6 2 12 11 12 19 0 8 2 14 5 14 3 0 5 -9 5 -20z"/>
<path d="M2378 5044 c-5 -4 -8 -38 -8 -76 l0 -68 -734 0 c-816 0 -748 6 -744
-68 1 -36 1 -36 7 8 l6 45 408 3 407 2 2 -47 1 -48 6 45 6 45 475 0 475 0 6
-45 6 -45 1 48 2 47 480 0 480 0 0 -45 c0 -25 5 -45 11 -45 6 0 9 19 7 48 l-3
47 -640 5 -640 5 -5 73 c-3 41 -8 70 -12 66z"/>
<path d="M4570 4630 l0 -220 -344 0 c-189 0 -351 -3 -360 -6 -14 -5 -16 -32
-16 -200 0 -123 4 -194 10 -194 6 0 10 70 10 190 l0 190 350 0 350 0 0 -390
c0 -253 4 -390 10 -390 7 0 10 213 10 620 0 407 -3 620 -10 620 -6 0 -10 -80
-10 -220z"/>
<path d="M6098 4844 c-5 -4 -8 -27 -8 -51 l0 -43 -315 0 -315 0 1 -27 c2 -24
2 -25 6 -5 l4 22 520 0 c512 0 519 0 519 -20 0 -11 5 -20 10 -20 16 0 11 47
-6 54 -9 3 -103 6 -209 6 l-194 0 -3 46 c-2 25 -6 42 -10 38z"/>
<path d="M7565 4841 c-3 -5 -1 -12 5 -16 5 -3 10 1 10 9 0 18 -6 21 -15 7z"/>
<path d="M10075 4841 c-3 -5 -1 -12 5 -16 5 -3 10 1 10 9 0 18 -6 21 -15 7z"/>
<path d="M11155 4841 c-3 -5 -1 -12 5 -16 5 -3 10 1 10 9 0 18 -6 21 -15 7z"/>
<path d="M7565 4801 c-3 -5 -1 -12 5 -16 5 -3 10 1 10 9 0 18 -6 21 -15 7z"/>
<path d="M10075 4801 c-3 -5 -1 -12 5 -16 5 -3 10 1 10 9 0 18 -6 21 -15 7z"/>
<path d="M11155 4801 c-3 -5 -1 -12 5 -16 5 -3 10 1 10 9 0 18 -6 21 -15 7z"/>
<path d="M7565 4760 c-3 -5 -1 -10 4 -10 6 0 11 5 11 10 0 6 -2 10 -4 10 -3 0
-8 -4 -11 -10z"/>
<path d="M10075 4760 c-3 -5 -1 -10 4 -10 6 0 11 5 11 10 0 6 -2 10 -4 10 -3
0 -8 -4 -11 -10z"/>
<path d="M11155 4760 c-3 -5 -1 -10 4 -10 6 0 11 5 11 10 0 6 -2 10 -4 10 -3
0 -8 -4 -11 -10z"/>
<path d="M7565 4720 c-3 -5 -1 -10 4 -10 6 0 11 5 11 10 0 6 -2 10 -4 10 -3 0
-8 -4 -11 -10z"/>
<path d="M10075 4720 c-3 -5 -1 -10 4 -10 6 0 11 5 11 10 0 6 -2 10 -4 10 -3
0 -8 -4 -11 -10z"/>
<path d="M11155 4720 c-3 -5 -1 -10 4 -10 6 0 11 5 11 10 0 6 -2 10 -4 10 -3
0 -8 -4 -11 -10z"/>
<path d="M573 4700 c-17 -7 -23 -20 -28 -63 -7 -57 0 -113 17 -134 15 -18 658
-19 676 -1 7 7 12 44 12 94 0 121 21 114 -350 113 -168 0 -315 -4 -327 -9z
m449 -83 c-7 -8 -7 -18 -1 -27 7 -12 10 -11 15 8 9 30 34 28 34 -3 0 -24 -3
-25 -55 -25 -30 0 -55 -4 -55 -10 0 -5 -12 -10 -27 -10 -19 0 -24 3 -15 9 11
7 11 9 -1 14 -8 3 -19 1 -25 -5 -6 -6 -19 -7 -29 -3 -10 4 -33 7 -50 6 -18 -2
-33 2 -33 7 0 5 11 7 24 5 18 -4 26 0 31 16 9 28 25 27 26 -1 0 -13 3 -17 6
-9 5 11 7 11 14 0 6 -10 9 -11 9 -1 0 6 11 12 25 12 19 0 25 -5 26 -22 1 -22
1 -22 9 2 4 14 8 19 9 11 1 -11 4 -11 16 -1 10 9 15 9 15 1 0 -6 6 -11 13 -11
6 1 1 10 -13 22 -15 13 -18 19 -8 15 10 -3 20 -2 23 3 4 6 11 10 17 10 7 0 7
-4 0 -13z m-272 -22 c0 -14 -2 -25 -4 -25 -2 0 -6 11 -8 25 -3 14 -1 25 3 25
5 0 9 -11 9 -25z"/>
<path d="M1362 4694 c-20 -14 -22 -24 -22 -98 0 -50 5 -87 12 -94 9 -9 106
-12 374 -12 316 0 365 2 378 16 12 11 16 36 16 94 0 117 25 110 -390 110 -297
0 -349 -2 -368 -16z m249 -78 c-9 -10 -8 -16 3 -25 12 -10 15 -8 19 11 4 20 4
20 6 -4 1 -25 -3 -28 -28 -28 -16 0 -31 -6 -34 -12 -3 -10 -7 -10 -19 0 -11 9
-17 10 -20 2 -3 -9 -11 -8 -31 1 -20 9 -27 19 -26 38 l1 26 8 -25 c4 -14 8
-19 9 -12 1 6 6 12 12 12 6 0 9 -7 6 -15 -4 -8 -2 -17 3 -20 6 -4 10 3 10 14
0 12 5 18 13 16 6 -3 26 4 42 15 35 23 42 25 26 6z m-184 -17 c4 -16 8 -17 14
-7 7 10 9 10 9 -2 0 -13 1 -13 10 0 8 13 10 13 10 -1 0 -9 -7 -20 -16 -23 -23
-9 -53 11 -51 34 2 26 17 26 24 -1z m230 -16 c-3 -10 -5 -4 -5 12 0 17 2 24 5
18 2 -7 2 -21 0 -30z m70 31 c-3 -3 -12 -4 -19 -1 -8 3 -5 6 6 6 11 1 17 -2
13 -5z m30 -31 c-3 -10 -5 -4 -5 12 0 17 2 24 5 18 2 -7 2 -21 0 -30z m54 -3
c5 0 9 8 9 18 1 16 2 16 15 -1 13 -18 14 -17 18 5 4 21 4 20 6 -4 1 -26 -2
-28 -34 -28 -32 0 -35 2 -34 28 2 23 2 24 6 5 2 -13 9 -23 14 -23z m66 3 c-3
-10 -5 -4 -5 12 0 17 2 24 5 18 2 -7 2 -21 0 -30z m-137 2 c0 -17 -45 -21 -55
-5 -4 7 2 9 19 4 16 -4 26 -2 26 5 0 6 2 11 5 11 3 0 5 -7 5 -15z m40 -10 c0
-14 -4 -25 -9 -25 -4 0 -6 11 -3 25 2 14 6 25 8 25 2 0 4 -11 4 -25z m150 13
c0 -8 3 -9 8 -3 11 16 74 19 83 3 7 -10 9 -10 9 0 0 6 7 12 15 12 8 0 15 -7
15 -15 0 -17 -45 -21 -55 -5 -3 6 -12 10 -18 10 -7 0 -6 -4 3 -10 12 -8 9 -10
-12 -10 -16 0 -30 1 -31 3 -2 1 -11 -4 -21 -12 -9 -8 -19 -11 -23 -7 -3 3 -1
6 6 6 8 0 11 8 8 20 -3 11 -1 20 4 20 5 0 9 -6 9 -12z"/>
<path d="M1580 4590 c0 -5 5 -10 11 -10 5 0 7 5 4 10 -3 6 -8 10 -11 10 -2 0
-4 -4 -4 -10z"/>
<path d="M2350 4692 c-19 -16 -22 -27 -22 -96 1 -45 6 -83 13 -92 9 -12 68
-14 349 -14 395 0 370 -7 370 108 0 118 21 112 -364 112 -296 0 -326 -2 -346
-18z m66 -87 c4 -8 10 -12 15 -9 6 3 16 0 24 -6 12 -10 15 -8 16 11 0 13 3 18
6 12 2 -7 13 -13 24 -13 10 0 19 -6 19 -12 0 -9 4 -8 10 2 8 13 10 12 10 -3 0
-16 -8 -18 -72 -15 -68 3 -73 5 -74 26 -1 25 14 30 22 7z m160 -8 c10 4 14 -2
14 -21 0 -18 -5 -26 -17 -26 -15 0 -16 2 -3 10 13 9 7 14 -12 11 -5 0 -7 11
-7 27 1 15 3 20 6 10 2 -10 10 -15 19 -11z m130 8 c18 -17 15 -47 -4 -51 -7
-1 -8 0 -2 3 5 2 10 12 10 21 0 10 -3 13 -8 6 -9 -13 -82 -18 -82 -6 0 5 11 7
24 5 18 -4 26 0 31 16 8 25 12 26 31 6z m61 -21 c14 -1 25 6 28 17 9 27 25 23
25 -6 0 -23 -4 -25 -45 -25 -43 0 -45 1 -44 28 1 22 2 24 7 7 4 -11 17 -21 29
-21z m18 26 c3 -5 -1 -10 -10 -10 -9 0 -13 5 -10 10 3 6 8 10 10 10 2 0 7 -4
10 -10z m111 -19 c11 9 14 8 15 -2 1 -8 5 -3 9 11 8 24 8 24 9 3 1 -13 6 -23
12 -23 5 0 7 5 4 10 -4 6 7 10 24 10 29 0 41 -13 24 -23 -5 -3 -41 -8 -80 -11
-66 -6 -73 -5 -72 11 0 11 3 13 6 6 9 -23 23 -14 24 15 2 24 2 24 6 4 4 -19 7
-21 19 -11z"/>
<path d="M3330 4690 c-26 -26 -29 -143 -4 -178 15 -22 16 -22 343 -22 293 0
330 2 342 17 9 10 14 43 14 95 0 67 -3 82 -19 94 -16 11 -79 14 -338 14 -305
0 -319 -1 -338 -20z m333 -71 c-12 -12 -7 -39 7 -39 5 0 11 10 13 23 4 19 4
18 6 -5 1 -25 -3 -28 -28 -28 -16 0 -31 -6 -34 -12 -3 -10 -7 -10 -20 1 -11 9
-17 10 -17 2 0 -6 -4 -11 -9 -11 -4 0 -6 12 -3 28 3 15 7 21 9 15 3 -9 16 -5
41 12 39 27 53 32 35 14z m-112 -28 c7 11 9 9 9 -8 0 -16 -4 -21 -15 -17 -9 4
-14 17 -14 33 2 25 2 25 6 2 4 -19 7 -21 14 -10z m156 -8 c-3 -10 -5 -4 -5 12
0 17 2 24 5 18 2 -7 2 -21 0 -30z m114 28 c6 10 9 6 9 -13 0 -37 -25 -37 -26
0 -1 15 1 21 3 13 5 -11 7 -11 14 0z m69 -14 c0 -32 -44 -36 -46 -4 -1 17 4
23 22 25 19 1 24 -3 24 -21z m-410 -4 c0 -15 2 -16 10 -3 9 13 10 13 10 0 0
-13 1 -13 10 0 8 13 10 13 10 -1 0 -23 -29 -32 -49 -17 -9 7 -18 13 -20 15 -1
1 0 6 4 12 10 17 25 13 25 -6z m310 -8 c0 -17 -45 -21 -55 -5 -4 7 2 9 19 4
16 -4 26 -2 26 5 0 6 2 11 5 11 3 0 5 -7 5 -15z"/>
<path d="M3630 4590 c0 -5 5 -10 11 -10 5 0 7 5 4 10 -3 6 -8 10 -11 10 -2 0
-4 -4 -4 -10z"/>
<path d="M12835 4696 c-27 -20 -35 -145 -11 -181 l16 -25 329 0 c293 0 330 2
342 17 9 10 14 43 14 95 0 67 -3 82 -19 94 -29 21 -643 21 -671 0z m287 -85
c-10 -6 -10 -10 2 -20 11 -9 15 -9 19 1 3 8 6 6 6 -5 1 -15 -6 -17 -41 -15
-24 1 -58 -2 -75 -6 -28 -6 -33 -5 -33 11 0 15 2 16 10 3 8 -12 10 -9 10 13 0
15 5 27 10 27 6 0 10 -7 10 -15 0 -9 6 -12 17 -8 12 5 14 3 8 -7 -5 -9 -4 -11
3 -6 7 4 12 14 12 21 0 8 6 12 14 9 8 -3 17 0 21 6 4 6 10 9 13 5 4 -3 1 -10
-6 -14z m-156 -13 c0 -12 -7 -23 -14 -24 -7 -1 -8 0 -3 2 5 3 7 14 4 24 -3 11
-1 20 4 20 6 0 10 -10 9 -22z m327 -4 c18 6 36 16 40 21 6 6 10 6 14 -2 2 -7
11 -13 19 -13 8 0 14 -6 14 -12 0 -9 3 -8 10 2 5 8 12 11 15 8 4 -4 4 -11 0
-17 -8 -15 -65 -14 -65 0 0 8 -4 8 -12 2 -7 -6 -34 -13 -60 -16 -41 -6 -48 -4
-47 11 0 10 3 12 6 5 9 -23 23 -14 24 15 1 21 3 23 6 6 4 -20 7 -21 36 -10z
m-106 -28 c-4 -9 -12 -16 -19 -16 -10 0 -10 2 1 9 9 6 10 11 2 15 -6 4 -8 12
-5 18 10 15 28 -8 21 -26z"/>
<path d="M13095 4590 c3 -5 11 -10 16 -10 6 0 7 5 4 10 -3 6 -11 10 -16 10 -6
0 -7 -4 -4 -10z"/>
<path d="M13298 4583 c7 -3 16 -2 19 1 4 3 -2 6 -13 5 -11 0 -14 -3 -6 -6z"/>
<path d="M7565 4680 c-3 -5 -1 -10 4 -10 6 0 11 5 11 10 0 6 -2 10 -4 10 -3 0
-8 -4 -11 -10z"/>
<path d="M10075 4680 c-3 -5 -1 -10 4 -10 6 0 11 5 11 10 0 6 -2 10 -4 10 -3
0 -8 -4 -11 -10z"/>
<path d="M11155 4680 c-3 -5 -1 -10 4 -10 6 0 11 5 11 10 0 6 -2 10 -4 10 -3
0 -8 -4 -11 -10z"/>
<path d="M7565 4640 c-3 -5 -1 -10 4 -10 6 0 11 5 11 10 0 6 -2 10 -4 10 -3 0
-8 -4 -11 -10z"/>
<path d="M10075 4640 c-3 -5 -1 -10 4 -10 6 0 11 5 11 10 0 6 -2 10 -4 10 -3
0 -8 -4 -11 -10z"/>
<path d="M11155 4640 c-3 -5 -1 -10 4 -10 6 0 11 5 11 10 0 6 -2 10 -4 10 -3
0 -8 -4 -11 -10z"/>
<path d="M5117 4592 c-13 -14 -17 -38 -17 -100 0 -70 3 -83 19 -92 13 -6 141
-10 349 -10 387 0 362 -8 362 112 0 115 24 108 -367 108 -307 0 -331 -1 -346
-18z m143 -82 c0 11 6 9 19 -8 13 -15 21 -18 24 -10 3 8 6 6 6 -4 1 -15 -8
-18 -61 -18 -73 0 -101 12 -79 32 10 10 15 10 18 1 2 -7 11 -9 20 -6 8 3 19 0
24 -8 6 -10 9 -5 10 16 0 26 2 27 9 10 6 -14 9 -15 10 -5z m80 -44 c5 -5 6 0
3 13 -3 12 -1 21 6 21 6 0 11 -11 11 -25 0 -15 -6 -25 -14 -25 -17 0 -27 23
-25 58 2 26 2 26 6 -3 3 -16 8 -34 13 -39z m141 34 c13 0 7 -42 -7 -47 -6 -2
-11 14 -11 39 -1 24 1 35 4 26 2 -10 9 -18 14 -18z m57 -16 c25 -1 30 12 7 19
-11 4 -10 4 2 3 10 -1 19 -9 21 -19 3 -14 -4 -17 -32 -17 -34 0 -36 2 -35 33
1 29 2 30 8 7 4 -17 13 -25 29 -26z m49 -1 c-3 -10 -5 -2 -5 17 0 19 2 27 5
18 2 -10 2 -26 0 -35z m79 11 c8 3 15 0 15 -7 1 -7 5 2 9 18 7 28 8 28 9 5 1
-18 4 -21 10 -11 6 10 13 10 28 2 11 -5 23 -7 27 -4 3 3 6 1 6 -6 0 -15 -12
-19 -87 -25 -58 -5 -86 4 -68 22 3 3 10 0 15 -8 7 -11 10 -6 11 20 1 25 3 28
6 12 3 -15 10 -22 19 -18z m-221 -13 c-8 -14 -42 -14 -50 -1 -4 7 2 9 19 4 18
-4 26 -2 26 7 0 7 3 10 6 6 3 -3 3 -10 -1 -16z"/>
<path d="M7565 4600 c-3 -5 -1 -10 4 -10 6 0 11 5 11 10 0 6 -2 10 -4 10 -3 0
-8 -4 -11 -10z"/>
<path d="M11155 4600 c-3 -5 -1 -10 4 -10 6 0 11 5 11 10 0 6 -2 10 -4 10 -3
0 -8 -4 -11 -10z"/>
<path d="M7560 4560 c0 -5 5 -10 10 -10 6 0 10 5 10 10 0 6 -4 10 -10 10 -5 0
-10 -4 -10 -10z"/>
<path d="M11155 4560 c-3 -5 -1 -10 4 -10 6 0 11 5 11 10 0 6 -2 10 -4 10 -3
0 -8 -4 -11 -10z"/>
<path d="M7560 4520 c0 -5 5 -10 10 -10 6 0 10 5 10 10 0 6 -4 10 -10 10 -5 0
-10 -4 -10 -10z"/>
<path d="M11155 4520 c-3 -5 -1 -10 4 -10 6 0 11 5 11 10 0 6 -2 10 -4 10 -3
0 -8 -4 -11 -10z"/>
<path d="M7560 4480 c0 -5 5 -10 10 -10 6 0 10 5 10 10 0 6 -4 10 -10 10 -5 0
-10 -4 -10 -10z"/>
<path d="M11150 4480 c0 -5 5 -10 10 -10 6 0 10 5 10 10 0 6 -4 10 -10 10 -5
0 -10 -4 -10 -10z"/>
<path d="M890 4330 c0 -73 4 -120 10 -120 6 0 10 47 10 120 0 73 -4 120 -10
120 -6 0 -10 -47 -10 -120z"/>
<path d="M7560 4440 c0 -5 5 -10 10 -10 6 0 10 5 10 10 0 6 -4 10 -10 10 -5 0
-10 -4 -10 -10z"/>
<path d="M11150 4440 c0 -5 5 -10 10 -10 6 0 10 5 10 10 0 6 -4 10 -10 10 -5
0 -10 -4 -10 -10z"/>
<path d="M11150 4400 c0 -5 5 -10 10 -10 6 0 10 5 10 10 0 6 -4 10 -10 10 -5
0 -10 -4 -10 -10z"/>
<path d="M11150 4360 c0 -5 5 -10 10 -10 6 0 10 5 10 10 0 6 -4 10 -10 10 -5
0 -10 -4 -10 -10z"/>
<path d="M5450 4340 c0 -5 5 -10 10 -10 6 0 10 5 10 10 0 6 -4 10 -10 10 -5 0
-10 -4 -10 -10z"/>
<path d="M6510 4340 c0 -5 5 -10 10 -10 6 0 10 5 10 10 0 6 -4 10 -10 10 -5 0
-10 -4 -10 -10z"/>
<path d="M11150 4320 c0 -5 5 -10 10 -10 6 0 10 5 10 10 0 6 -4 10 -10 10 -5
0 -10 -4 -10 -10z"/>
<path d="M5450 4300 c0 -5 5 -10 10 -10 6 0 10 5 10 10 0 6 -4 10 -10 10 -5 0
-10 -4 -10 -10z"/>
<path d="M6510 4300 c0 -5 5 -10 10 -10 6 0 10 5 10 10 0 6 -4 10 -10 10 -5 0
-10 -4 -10 -10z"/>
<path d="M11155 4280 c3 -5 8 -10 11 -10 2 0 4 5 4 10 0 6 -5 10 -11 10 -5 0
-7 -4 -4 -10z"/>
<path d="M5455 4260 c3 -5 8 -10 11 -10 2 0 4 5 4 10 0 6 -5 10 -11 10 -5 0
-7 -4 -4 -10z"/>
<path d="M6510 4260 c0 -5 5 -10 10 -10 6 0 10 5 10 10 0 6 -4 10 -10 10 -5 0
-10 -4 -10 -10z"/>
<path d="M10070 4205 l0 -45 -230 0 -230 0 1 -27 c1 -17 3 -21 6 -11 4 16 27
18 231 20 393 5 582 -1 582 -17 0 -8 5 -15 11 -15 6 0 9 10 7 23 -3 22 -5 22
-180 25 l-178 2 0 45 c0 25 -4 45 -10 45 -5 0 -10 -20 -10 -45z"/>
<path d="M11155 4240 c3 -5 8 -10 11 -10 2 0 4 5 4 10 0 6 -5 10 -11 10 -5 0
-7 -4 -4 -10z"/>
<path d="M5455 4220 c3 -5 8 -10 11 -10 2 0 4 5 4 10 0 6 -5 10 -11 10 -5 0
-7 -4 -4 -10z"/>
<path d="M6510 4220 c0 -5 5 -10 10 -10 6 0 10 5 10 10 0 6 -4 10 -10 10 -5 0
-10 -4 -10 -10z"/>
<path d="M11155 4200 c3 -5 8 -10 11 -10 2 0 4 5 4 10 0 6 -5 10 -11 10 -5 0
-7 -4 -4 -10z"/>
<path d="M5455 4180 c3 -5 8 -10 11 -10 2 0 4 5 4 10 0 6 -5 10 -11 10 -5 0
-7 -4 -4 -10z"/>
<path d="M6510 4180 c0 -5 5 -10 10 -10 6 0 10 5 10 10 0 6 -4 10 -10 10 -5 0
-10 -4 -10 -10z"/>
<path d="M11155 4160 c3 -5 8 -10 11 -10 2 0 4 5 4 10 0 6 -5 10 -11 10 -5 0
-7 -4 -4 -10z"/>
<path d="M5455 4140 c3 -5 8 -10 11 -10 2 0 4 5 4 10 0 6 -5 10 -11 10 -5 0
-7 -4 -4 -10z"/>
<path d="M6510 4140 c0 -5 5 -10 10 -10 6 0 10 5 10 10 0 6 -4 10 -10 10 -5 0
-10 -4 -10 -10z"/>
<path d="M11155 4120 c3 -5 8 -10 11 -10 2 0 4 5 4 10 0 6 -5 10 -11 10 -5 0
-7 -4 -4 -10z"/>
<path d="M6510 4100 c0 -5 5 -10 10 -10 6 0 10 5 10 10 0 6 -4 10 -10 10 -5 0
-10 -4 -10 -10z"/>
<path d="M11155 4080 c3 -5 8 -10 11 -10 2 0 4 5 4 10 0 6 -5 10 -11 10 -5 0
-7 -4 -4 -10z"/>
<path d="M6510 4060 c0 -5 5 -10 10 -10 6 0 10 5 10 10 0 6 -4 10 -10 10 -5 0
-10 -4 -10 -10z"/>
<path d="M7568 4054 c-5 -4 -8 -38 -8 -76 l0 -68 -337 -2 -338 -3 -3 -47 c-2
-29 1 -48 7 -48 6 0 11 20 11 45 l0 45 543 -2 542 -3 3 -42 c4 -57 22 -55 22
2 l0 45 480 0 480 0 0 -45 c0 -25 5 -45 11 -45 6 0 9 19 7 48 l-3 47 -700 5
-700 5 -5 73 c-3 41 -8 70 -12 66z"/>
<path d="M11155 4040 c3 -5 8 -10 11 -10 2 0 4 5 4 10 0 6 -5 10 -11 10 -5 0
-7 -4 -4 -10z"/>
<path d="M11155 4011 c-3 -5 -1 -12 5 -16 5 -3 10 1 10 9 0 18 -6 21 -15 7z"/>
<path d="M11155 3971 c-3 -5 -1 -12 5 -16 5 -3 10 1 10 9 0 18 -6 21 -15 7z"/>
<path d="M11155 3931 c-3 -5 -1 -12 5 -16 5 -3 10 1 10 9 0 18 -6 21 -15 7z"/>
<path d="M11155 3891 c-3 -5 -1 -12 5 -16 5 -3 10 1 10 9 0 18 -6 21 -15 7z"/>
<path d="M890 3735 c0 -82 4 -124 10 -120 6 4 10 55 10 120 0 65 -4 116 -10
120 -6 4 -10 -38 -10 -120z"/>
<path d="M11155 3851 c-3 -5 -1 -12 5 -16 5 -3 10 1 10 9 0 18 -6 21 -15 7z"/>
<path d="M11155 3811 c-3 -5 -1 -12 5 -16 5 -3 10 1 10 9 0 18 -6 21 -15 7z"/>
<path d="M11161 3764 c0 -11 3 -14 6 -6 3 7 2 16 -1 19 -3 4 -6 -2 -5 -13z"/>
<path d="M6215 3760 c-3 -5 -1 -10 4 -10 6 0 11 5 11 10 0 6 -2 10 -4 10 -3 0
-8 -4 -11 -10z"/>
<path d="M6255 3760 c-3 -5 -1 -10 4 -10 6 0 11 5 11 10 0 6 -2 10 -4 10 -3 0
-8 -4 -11 -10z"/>
<path d="M6295 3760 c-3 -5 -1 -10 4 -10 6 0 11 5 11 10 0 6 -2 10 -4 10 -3 0
-8 -4 -11 -10z"/>
<path d="M6330 3760 c0 -5 5 -10 10 -10 6 0 10 5 10 10 0 6 -4 10 -10 10 -5 0
-10 -4 -10 -10z"/>
<path d="M6370 3760 c0 -5 5 -10 10 -10 6 0 10 5 10 10 0 6 -4 10 -10 10 -5 0
-10 -4 -10 -10z"/>
<path d="M6410 3760 c0 -5 5 -10 11 -10 5 0 7 5 4 10 -3 6 -8 10 -11 10 -2 0
-4 -4 -4 -10z"/>
<path d="M6450 3760 c0 -5 5 -10 11 -10 5 0 7 5 4 10 -3 6 -8 10 -11 10 -2 0
-4 -4 -4 -10z"/>
<path d="M6490 3760 c0 -5 5 -10 11 -10 5 0 7 5 4 10 -3 6 -8 10 -11 10 -2 0
-4 -4 -4 -10z"/>
<path d="M10444 3615 c0 -77 2 -107 3 -67 2 40 2 103 0 140 -2 37 -3 4 -3 -73z"/>
<path d="M11150 3730 c0 -5 5 -10 10 -10 6 0 10 5 10 10 0 6 -4 10 -10 10 -5
0 -10 -4 -10 -10z"/>
<path d="M6160 3720 c0 -5 5 -10 10 -10 6 0 10 5 10 10 0 6 -4 10 -10 10 -5 0
-10 -4 -10 -10z"/>
<path d="M11150 3690 c0 -5 5 -10 10 -10 6 0 10 5 10 10 0 6 -4 10 -10 10 -5
0 -10 -4 -10 -10z"/>
<path d="M6160 3680 c0 -5 5 -10 10 -10 6 0 10 5 10 10 0 6 -4 10 -10 10 -5 0
-10 -4 -10 -10z"/>
<path d="M11150 3650 c0 -5 5 -10 10 -10 6 0 10 5 10 10 0 6 -4 10 -10 10 -5
0 -10 -4 -10 -10z"/>
<path d="M6160 3640 c0 -5 5 -10 10 -10 6 0 10 5 10 10 0 6 -4 10 -10 10 -5 0
-10 -4 -10 -10z"/>
<path d="M11150 3610 c0 -5 5 -10 10 -10 6 0 10 5 10 10 0 6 -4 10 -10 10 -5
0 -10 -4 -10 -10z"/>
<path d="M6160 3599 c0 -5 5 -7 10 -4 6 3 10 8 10 11 0 2 -4 4 -10 4 -5 0 -10
-5 -10 -11z"/>
<path d="M11150 3570 c0 -5 5 -10 10 -10 6 0 10 5 10 10 0 6 -4 10 -10 10 -5
0 -10 -4 -10 -10z"/>
<path d="M6160 3559 c0 -5 5 -7 10 -4 6 3 10 8 10 11 0 2 -4 4 -10 4 -5 0 -10
-5 -10 -11z"/>
<path d="M11150 3530 c0 -5 5 -10 10 -10 6 0 10 5 10 10 0 6 -4 10 -10 10 -5
0 -10 -4 -10 -10z"/>
<path d="M6160 3519 c0 -5 5 -7 10 -4 6 3 10 8 10 11 0 2 -4 4 -10 4 -5 0 -10
-5 -10 -11z"/>
<path d="M11150 3490 c0 -5 5 -10 10 -10 6 0 10 5 10 10 0 6 -4 10 -10 10 -5
0 -10 -4 -10 -10z"/>
<path d="M6160 3479 c0 -5 5 -7 10 -4 6 3 10 8 10 11 0 2 -4 4 -10 4 -5 0 -10
-5 -10 -11z"/>
<path d="M7990 3450 c0 -5 5 -10 10 -10 6 0 10 5 10 10 0 6 -4 10 -10 10 -5 0
-10 -4 -10 -10z"/>
<path d="M8970 3240 c0 -140 4 -220 10 -220 6 0 10 80 10 220 0 140 -4 220
-10 220 -6 0 -10 -80 -10 -220z"/>
<path d="M11150 3450 c0 -5 5 -10 10 -10 6 0 10 5 10 10 0 6 -4 10 -10 10 -5
0 -10 -4 -10 -10z"/>
<path d="M6160 3439 c0 -5 5 -7 10 -4 6 3 10 8 10 11 0 2 -4 4 -10 4 -5 0 -10
-5 -10 -11z"/>
<path d="M7990 3410 c0 -5 5 -10 10 -10 6 0 10 5 10 10 0 6 -4 10 -10 10 -5 0
-10 -4 -10 -10z"/>
<path d="M11150 3410 c0 -5 5 -10 10 -10 6 0 10 5 10 10 0 6 -4 10 -10 10 -5
0 -10 -4 -10 -10z"/>
<path d="M6160 3399 c0 -5 5 -7 10 -4 6 3 10 8 10 11 0 2 -4 4 -10 4 -5 0 -10
-5 -10 -11z"/>
<path d="M6160 3364 c0 -8 5 -12 10 -9 6 4 8 11 5 16 -9 14 -15 11 -15 -7z"/>
<path d="M7990 3370 c0 -5 5 -10 10 -10 6 0 10 5 10 10 0 6 -4 10 -10 10 -5 0
-10 -4 -10 -10z"/>
<path d="M10096 3364 c-12 -11 -16 -36 -16 -94 0 -116 -22 -110 367 -110 382
0 363 -6 363 108 0 120 25 112 -365 112 -290 0 -336 -2 -349 -16z m71 -70 c-3
-3 -12 -4 -19 -1 -8 3 -5 6 6 6 11 1 17 -2 13 -5z m73 -10 c0 5 8 2 18 -7 10
-10 22 -14 25 -10 4 3 7 1 7 -5 0 -8 -25 -12 -75 -12 -41 0 -75 4 -75 9 0 14
21 25 29 15 3 -5 16 -9 29 -10 16 0 22 5 22 20 0 17 2 18 10 6 5 -8 10 -11 10
-6z m67 -21 c-3 -10 -5 -4 -5 12 0 17 2 24 5 18 2 -7 2 -21 0 -30z m143 12 c0
-22 -4 -25 -40 -25 -22 0 -40 4 -40 9 0 4 12 6 26 3 20 -3 26 0 31 17 7 29 23
27 23 -4z m70 -10 c16 0 26 6 28 18 5 26 22 20 22 -8 0 -23 -4 -25 -45 -25
-43 0 -45 1 -44 28 1 22 2 24 7 7 5 -13 16 -20 32 -20z m15 25 c3 -5 -1 -10
-10 -10 -9 0 -13 5 -10 10 3 6 8 10 10 10 2 0 7 -4 10 -10z m113 -28 c9 2 20
12 24 23 6 19 6 18 7 -2 1 -15 7 -23 19 -23 14 0 15 2 2 10 -13 8 -13 10 2 10
9 0 20 -5 23 -10 4 -6 11 -7 17 -4 6 4 9 1 6 -7 -3 -10 -20 -13 -59 -11 -36 2
-49 0 -40 -6 10 -7 4 -9 -19 -8 -19 1 -35 7 -38 14 -2 7 2 10 12 6 12 -5 16 1
17 22 2 24 2 25 6 6 3 -14 11 -22 21 -20z m-308 -11 c0 -23 -16 -36 -25 -21
-3 5 -2 10 4 10 6 0 8 7 5 15 -4 8 -1 15 5 15 6 0 11 -9 11 -19z m130 -1 c0
-13 -6 -20 -17 -19 -11 0 -13 3 -5 6 6 2 12 11 12 19 0 8 2 14 5 14 3 0 5 -9
5 -20z"/>
<path d="M11150 3370 c0 -5 5 -10 10 -10 6 0 10 5 10 10 0 6 -4 10 -10 10 -5
0 -10 -4 -10 -10z"/>
<path d="M6160 3324 c0 -8 5 -12 10 -9 6 4 8 11 5 16 -9 14 -15 11 -15 -7z"/>
<path d="M7990 3330 c0 -5 5 -10 10 -10 6 0 10 5 10 10 0 6 -4 10 -10 10 -5 0
-10 -4 -10 -10z"/>
<path d="M11150 3330 c0 -5 5 -10 10 -10 6 0 10 5 10 10 0 6 -4 10 -10 10 -5
0 -10 -4 -10 -10z"/>
<path d="M6160 3284 c0 -8 5 -12 10 -9 6 4 8 11 5 16 -9 14 -15 11 -15 -7z"/>
<path d="M7990 3289 c0 -5 5 -7 10 -4 6 3 10 8 10 11 0 2 -4 4 -10 4 -5 0 -10
-5 -10 -11z"/>
<path d="M11150 3290 c0 -5 5 -10 10 -10 6 0 10 5 10 10 0 6 -4 10 -10 10 -5
0 -10 -4 -10 -10z"/>
<path d="M4570 3152 l0 -119 -442 -6 c-244 -4 -624 -7 -845 -7 l-403 0 2 -102
2 -103 5 95 6 95 535 0 535 0 6 -95 5 -95 2 91 2 91 564 8 c310 4 569 4 575 1
7 -4 11 -43 11 -97 0 -53 4 -89 10 -89 11 0 14 157 4 184 -5 14 -40 16 -280
16 l-274 0 0 125 c0 77 -4 125 -10 125 -6 0 -10 -46 -10 -118z"/>
<path d="M6160 3244 c0 -8 5 -12 10 -9 6 4 8 11 5 16 -9 14 -15 11 -15 -7z"/>
<path d="M7990 3249 c0 -5 5 -7 10 -4 6 3 10 8 10 11 0 2 -4 4 -10 4 -5 0 -10
-5 -10 -11z"/>
<path d="M11150 3250 c0 -5 5 -10 10 -10 6 0 10 5 10 10 0 6 -4 10 -10 10 -5
0 -10 -4 -10 -10z"/>
<path d="M10435 3110 c3 -5 8 -10 11 -10 2 0 4 5 4 10 0 6 -5 10 -11 10 -5 0
-7 -4 -4 -10z"/>
<path d="M10435 3070 c3 -5 8 -10 11 -10 2 0 4 5 4 10 0 6 -5 10 -11 10 -5 0
-7 -4 -4 -10z"/>
<path d="M10435 3041 c-3 -5 -1 -12 5 -16 5 -3 10 1 10 9 0 18 -6 21 -15 7z"/>
<path d="M872 2918 l2 -103 5 95 6 95 555 5 555 5 -562 3 -563 2 2 -102z"/>
<path d="M11150 2940 c0 -5 5 -10 10 -10 6 0 10 5 10 10 0 6 -4 10 -10 10 -5
0 -10 -4 -10 -10z"/>
<path d="M11150 2900 c0 -5 5 -10 10 -10 6 0 10 5 10 10 0 6 -4 10 -10 10 -5
0 -10 -4 -10 -10z"/>
<path d="M6160 2650 l0 -220 -619 0 c-341 0 -626 -3 -635 -6 -14 -5 -16 -32
-16 -200 0 -123 4 -194 10 -194 6 0 10 70 10 190 l0 190 490 0 490 0 0 -190
c0 -120 4 -190 10 -190 6 0 10 70 10 190 l0 189 128 3 c70 2 337 2 595 0 l467
-2 0 -190 c0 -120 4 -190 10 -190 6 0 10 70 10 190 l0 190 550 0 550 0 0 -190
c0 -120 4 -190 10 -190 15 0 13 373 -2 388 -9 9 -252 12 -1030 12 l-1018 0 0
220 c0 140 -4 220 -10 220 -6 0 -10 -80 -10 -220z"/>
<path d="M11150 2860 c0 -5 5 -10 10 -10 6 0 10 5 10 10 0 6 -4 10 -10 10 -5
0 -10 -4 -10 -10z"/>
<path d="M11150 2820 c0 -5 5 -10 10 -10 6 0 10 5 10 10 0 6 -4 10 -10 10 -5
0 -10 -4 -10 -10z"/>
<path d="M11150 2780 c0 -5 5 -10 10 -10 6 0 10 5 10 10 0 6 -4 10 -10 10 -5
0 -10 -4 -10 -10z"/>
<path d="M11150 2740 c0 -5 5 -10 10 -10 6 0 10 5 10 10 0 6 -4 10 -10 10 -5
0 -10 -4 -10 -10z"/>
<path d="M1700 2680 c-30 -11 -56 -20 -57 -20 -2 0 -3 -20 -3 -45 0 -31 5 -47
15 -51 8 -4 15 -17 15 -30 l0 -24 323 0 c177 0 316 4 309 8 -10 7 -10 20 -1
61 11 53 11 54 -20 85 l-31 31 -248 2 c-226 3 -252 1 -302 -17z m140 -50 c0
-11 9 -16 30 -15 22 0 30 5 30 17 0 10 7 18 15 18 10 0 15 -10 15 -29 0 -26
-4 -30 -40 -36 -21 -4 -45 -3 -51 1 -7 4 -37 6 -66 5 -57 -3 -73 13 -23 23 17
3 30 12 30 19 0 9 11 14 30 14 21 0 30 -5 30 -17z m200 -8 c0 -26 -3 -28 -45
-31 -26 -1 -45 2 -45 9 0 5 5 10 11 10 5 0 7 5 4 10 -3 6 -1 10 4 10 6 0 11
-6 12 -12 0 -10 2 -10 6 0 2 6 11 12 18 12 7 0 16 -6 18 -12 3 -7 6 -3 6 10 1
32 11 27 11 -6z m178 10 c10 -10 24 -16 31 -14 8 3 12 -1 9 -9 -3 -9 -23 -15
-54 -17 -27 -2 -52 -8 -56 -15 -4 -6 -10 -8 -15 -4 -11 12 12 42 31 41 10 -1
16 6 16 17 0 24 15 24 38 1z m-461 2 c-3 -3 -12 -4 -19 -1 -8 3 -5 6 6 6 11 1
17 -2 13 -5z m356 -14 c4 -15 -3 -24 -29 -36 -40 -19 -45 -17 -37 14 3 13 13
22 25 22 10 0 16 5 13 10 -3 6 0 10 8 10 8 0 17 -9 20 -20z"/>
<path d="M8975 2660 c-3 -5 -1 -10 4 -10 6 0 11 5 11 10 0 6 -2 10 -4 10 -3 0
-8 -4 -11 -10z"/>
<path d="M8975 2620 c-3 -5 -1 -10 4 -10 6 0 11 5 11 10 0 6 -2 10 -4 10 -3 0
-8 -4 -11 -10z"/>
<path d="M8970 2580 c0 -5 5 -10 10 -10 6 0 10 5 10 10 0 6 -4 10 -10 10 -5 0
-10 -4 -10 -10z"/>
<path d="M10434 2460 c0 -74 1 -105 3 -67 2 37 2 97 0 135 -2 37 -3 6 -3 -68z"/>
<path d="M8970 2540 c0 -5 5 -10 10 -10 6 0 10 5 10 10 0 6 -4 10 -10 10 -5 0
-10 -4 -10 -10z"/>
<path d="M8970 2500 c0 -5 5 -10 10 -10 6 0 10 5 10 10 0 6 -4 10 -10 10 -5 0
-10 -4 -10 -10z"/>
<path d="M11150 2130 l0 -240 -1201 0 c-808 0 -1207 -3 -1220 -10 -18 -10 -19
-23 -19 -231 0 -144 3 -218 10 -214 6 4 10 88 10 221 l0 214 530 0 530 0 2
-222 2 -223 6 220 5 220 508 3 507 2 0 -214 c0 -133 4 -217 10 -221 7 -4 10
68 10 209 l0 215 158 3 c86 2 325 2 530 0 l372 -3 0 -209 c0 -128 4 -211 10
-215 7 -4 10 68 10 209 l0 216 560 0 560 0 0 -209 c0 -129 4 -212 10 -216 7
-4 10 70 10 214 l0 221 528 -2 527 -3 3 -210 c1 -119 7 -214 12 -219 7 -7 10
67 10 212 l0 222 518 -2 517 -3 3 -218 c1 -139 6 -216 12 -212 6 4 10 89 10
215 0 176 -2 211 -16 224 -14 14 -211 16 -2015 16 l-1999 0 0 240 c0 153 -4
240 -10 240 -6 0 -10 -87 -10 -240z"/>
<path d="M3960 2300 c0 -5 5 -10 10 -10 6 0 10 5 10 10 0 6 -4 10 -10 10 -5 0
-10 -4 -10 -10z"/>
<path d="M10005 2215 c-21 -20 -25 -34 -25 -85 0 -60 11 -97 34 -112 6 -4 196
-8 423 -8 361 0 414 2 427 16 22 22 29 56 24 121 -8 98 15 93 -455 93 l-404 0
-24 -25z m57 -95 c-2 -16 -6 -30 -8 -30 -2 0 -4 14 -4 30 0 17 4 30 8 30 5 0
7 -13 4 -30z m107 0 c1 9 4 11 9 5 4 -5 18 -11 32 -12 l25 -3 -25 15 c-29 17
-22 19 14 5 20 -7 26 -6 29 8 3 11 5 7 6 -9 1 -24 -2 -26 -54 -28 -54 -2 -55
-2 -54 26 l1 28 8 -25 c4 -14 9 -18 9 -10z m121 0 c0 -10 -3 -21 -7 -23 -5 -3
-8 8 -8 23 0 15 3 26 8 23 4 -2 7 -13 7 -23z m92 1 c7 11 11 11 15 2 7 -18 23
-16 23 2 0 8 9 15 20 15 14 0 18 -5 13 -17 -6 -15 -4 -16 9 -5 11 9 18 10 23
2 10 -17 25 -11 25 10 0 11 5 20 10 20 6 0 10 -11 10 -25 l0 -25 -105 0 c-87
0 -105 3 -105 15 0 8 5 15 10 15 6 0 10 -4 10 -10 0 -21 20 -9 21 13 2 21 2
21 6 -2 4 -19 7 -21 15 -10z m281 -2 c-8 -28 -33 -24 -33 5 0 19 4 23 19 19
13 -3 17 -11 14 -24z m123 -24 c-8 -8 -27 -14 -43 -14 -19 1 -22 3 -9 6 15 4
16 7 5 14 -11 6 -11 11 -2 20 10 10 14 7 22 -12 7 -18 10 -20 10 -6 1 10 6 15
11 12 6 -3 11 4 11 17 l2 23 4 -23 c2 -12 -2 -29 -11 -37z m31 18 c-3 -10 -5
-4 -5 12 0 17 2 24 5 18 2 -7 2 -21 0 -30z m-702 2 c-4 -28 11 -34 18 -7 3 12
5 11 6 -6 1 -20 -3 -23 -31 -20 -27 2 -33 8 -35 28 -1 14 0 18 3 8 3 -10 10
-18 16 -18 5 0 8 6 5 14 -6 14 0 26 13 26 4 0 6 -11 5 -25z m505 0 c0 -10 -10
-15 -30 -15 -16 0 -30 4 -30 9 0 4 11 6 25 3 15 -2 25 0 25 7 0 6 2 11 5 11 3
0 5 -7 5 -15z m90 5 c8 13 10 13 10 -1 0 -17 -46 -46 -57 -36 -3 4 -1 7 6 7 7
0 9 5 6 10 -10 16 6 35 16 19 8 -12 11 -11 19 1z"/>
<path d="M3960 1761 c0 -69 4 -122 10 -126 6 -4 10 38 10 119 0 77 -4 126 -10
126 -6 0 -10 -46 -10 -119z"/>
<path d="M11905 1081 c-3 -5 -1 -12 5 -16 5 -3 10 1 10 9 0 18 -6 21 -15 7z"/>
<path d="M14128 1084 c-5 -4 -7 -84 -7 -178 l2 -171 9 105 c9 117 7 256 -4
244z"/>
<path d="M10820 910 c0 -107 4 -170 10 -170 6 0 10 63 10 170 0 107 -4 170
-10 170 -6 0 -10 -63 -10 -170z"/>
<path d="M11905 1041 c-3 -5 -1 -12 5 -16 5 -3 10 1 10 9 0 18 -6 21 -15 7z"/>
<path d="M11905 1001 c-3 -5 -1 -12 5 -16 5 -3 10 1 10 9 0 18 -6 21 -15 7z"/>
<path d="M11905 961 c-3 -5 -1 -12 5 -16 5 -3 10 1 10 9 0 18 -6 21 -15 7z"/>
<path d="M8710 920 c0 -5 5 -10 10 -10 6 0 10 5 10 10 0 6 -4 10 -10 10 -5 0
-10 -4 -10 -10z"/>
<path d="M11905 920 c-3 -5 -1 -10 4 -10 6 0 11 5 11 10 0 6 -2 10 -4 10 -3 0
-8 -4 -11 -10z"/>
<path d="M11900 880 c0 -5 5 -10 11 -10 5 0 7 5 4 10 -3 6 -8 10 -11 10 -2 0
-4 -4 -4 -10z"/>
<path d="M11900 840 c0 -5 5 -10 10 -10 6 0 10 5 10 10 0 6 -4 10 -10 10 -5 0
-10 -4 -10 -10z"/>
<path d="M11900 800 c0 -5 5 -10 10 -10 6 0 10 5 10 10 0 6 -4 10 -10 10 -5 0
-10 -4 -10 -10z"/>
<path d="M11900 760 c0 -5 5 -10 10 -10 6 0 10 5 10 10 0 6 -4 10 -10 10 -5 0
-10 -4 -10 -10z"/>
</g>
</svg>
